<svg width="70" height="48" viewBox="0 0 70 48" fill="none" xmlns="http://www.w3.org/2000/svg">
<g clip-path="url(#clip0_3_24460)">
<path d="M0 0.589844H70V47.2565H0V0.589844Z" fill="#41662E"/>
<path d="M35 0.589844H70V47.2565H35V0.589844Z" fill="white"/>
<path d="M46.6895 14.9883L42.6699 20.5123L36.1758 18.4066L40.1953 23.9306L36.1758 29.4545L42.6699 27.3488L46.6895 32.8728V26.0362L53.1836 23.9169L46.6895 21.8112V14.9883Z" fill="#D80027"/>
<path d="M42.3691 38.4231C34.3711 38.4231 27.877 31.9283 27.877 23.9295C27.877 15.9306 34.3711 9.43587 42.3691 9.43587C44.8711 9.43587 47.209 10.0648 49.2598 11.1724C46.0469 8.02753 41.6445 6.08594 36.791 6.08594C26.9473 6.08594 18.9629 14.0711 18.9629 23.9158C18.9629 33.7605 26.9473 41.7456 36.791 41.7456C41.6445 41.7456 46.0469 39.804 49.2598 36.6592C47.2227 37.7804 44.8711 38.4231 42.3691 38.4231Z" fill="#D80027"/>
</g>
<defs>
<clipPath id="clip0_3_24460">
<rect width="70" height="46.6666" fill="white" transform="translate(0 0.589844)"/>
</clipPath>
</defs>
</svg>
