<svg width="70" height="48" viewBox="0 0 70 48" fill="none" xmlns="http://www.w3.org/2000/svg">
<g clip-path="url(#clip0_3_25045)">
<path d="M0 0.920898H70V47.5866H0V0.920898Z" fill="white"/>
<path d="M0 0.920898H70V24.2537H0V0.920898Z" fill="#D80027"/>
<path d="M11.4125 12.5868C11.4125 9.18729 13.8018 6.34736 16.9923 5.65051C16.4924 5.54092 15.9823 5.48555 15.4706 5.48535C11.5484 5.48535 8.36914 8.66461 8.36914 12.5867C8.36914 16.5087 11.5485 19.6881 15.4706 19.6881C15.9931 19.6881 16.5019 19.63 16.9923 19.5229C13.8018 18.8264 11.4125 15.9864 11.4125 12.5868ZM20.543 5.99271L21.0467 7.5427H22.6765L21.3578 8.50068L21.8615 10.0507L20.543 9.09281L19.2243 10.0507L19.7281 8.50068L18.4095 7.5427H20.0393L20.543 5.99271Z" fill="white"/>
<path d="M16.5905 9.03613L17.0941 10.5861H18.7239L17.4052 11.5441L17.9089 13.0941L16.5905 12.1362L15.2719 13.0941L15.7757 11.5441L14.457 10.5861H16.0869L16.5905 9.03613ZM24.4975 9.03613L25.0012 10.5861H26.631L25.3124 11.5441L25.816 13.0941L24.4975 12.1362L23.179 13.0941L23.6828 11.5441L22.3642 10.5861H23.994L24.4975 9.03613ZM22.9757 13.6013L23.4794 15.1513H25.1092L23.7907 16.1093L24.2944 17.6593L22.9757 16.7014L21.6573 17.6593L22.161 16.1093L20.8425 15.1513H22.4722L22.9757 13.6013ZM18.1122 13.6013L18.6157 15.1513H20.2456L18.9271 16.1093L19.4307 17.6593L18.1122 16.7014L16.7937 17.6593L17.2974 16.1093L15.9788 15.1513H17.6085L18.1122 13.6013Z" fill="white"/>
</g>
<defs>
<clipPath id="clip0_3_25045">
<rect width="70" height="46.6666" fill="white" transform="translate(0 0.919922)"/>
</clipPath>
</defs>
</svg>
