<svg width="70" height="48" viewBox="0 0 70 48" fill="none" xmlns="http://www.w3.org/2000/svg">
<g clip-path="url(#clip0_3_24635)">
<path d="M0 0.59082H70V47.2565H0V0.59082Z" fill="white"/>
<path d="M0 0.59082H70V16.146H0V0.59082ZM0 31.7013H70V47.2565H0V31.7013Z" fill="#0052B4"/>
<path d="M31.252 24.7348L35.0005 18.2422L38.7491 24.7348H31.252Z" fill="#FFDA44"/>
<path d="M39.8696 26.8781L35.0002 29.3129L30.1309 26.8781V23.6318H39.8696V26.8781Z" fill="#6DA544"/>
<path d="M39.5913 18.5205L37.8698 20.2421C38.6039 20.9765 39.0583 21.9908 39.0583 23.1115C39.0583 25.3526 37.2414 27.1693 35.0004 27.1693C32.7594 27.1693 30.9426 25.3525 30.9426 23.1115C30.9426 21.9911 31.3968 20.9765 32.1311 20.2421L30.4096 18.5205C29.2346 19.6955 28.5078 21.3186 28.5078 23.1114C28.5078 26.6972 31.4146 29.604 35.0004 29.604C38.5863 29.604 41.4931 26.6972 41.4931 23.1114C41.4931 21.3185 40.7663 19.6952 39.5913 18.5205Z" fill="#FFDA44"/>
</g>
<defs>
<clipPath id="clip0_3_24635">
<rect width="70" height="46.6666" fill="white" transform="translate(0 0.589844)"/>
</clipPath>
</defs>
</svg>
