<svg width="70" height="48" viewBox="0 0 70 48" fill="none" xmlns="http://www.w3.org/2000/svg">
<g clip-path="url(#clip0_3_24570)">
<path d="M0 0.589844H70V47.2565H0V0.589844Z" fill="#D21034"/>
<path d="M0 23.9297H28.916V35.5929H0V23.9297ZM41.084 23.9297H70V35.5929H41.084V23.9297Z" fill="#3A9927"/>
<path d="M0 0.589844V12.2531H28.916V0.589844H41.084V12.2531H70V0.589844H0Z" fill="#003082"/>
<path d="M41.084 12.2529H70V23.9162H41.084V12.2529ZM0 12.2529H28.916V23.9162H0V12.2529Z" fill="white"/>
<path d="M41.084 47.2564H28.916V35.5931H0V47.2564H70V35.5931H41.084V47.2564ZM14.4512 1.76562L15.627 5.348H19.3867L16.3379 7.56306L17.5137 11.1454L14.4512 8.93038L11.4023 11.1454L12.5645 7.56306L9.51562 5.348H13.2891L14.4512 1.76562Z" fill="#FFCE00"/>
</g>
<defs>
<clipPath id="clip0_3_24570">
<rect width="70" height="46.6666" fill="white" transform="translate(0 0.589844)"/>
</clipPath>
</defs>
</svg>
