<svg width="70" height="48" viewBox="0 0 70 48" fill="none" xmlns="http://www.w3.org/2000/svg">
<g clip-path="url(#clip0_3_24525)">
<path d="M0 0.589844H70.0136V47.2565H0V0.589844Z" fill="#10338C"/>
<path d="M13.6309 0.589844H60.2975V47.2565" fill="#F6C500"/>
<path d="M2.71484 3.46898L5.49847 1.43585L8.30939 3.45534L7.36786 0.589844H3.64272L2.71484 3.46898Z" fill="white"/>
<path d="M12.5945 4.06972L11.5166 0.767578L10.4522 4.06972H7L9.79727 6.08921L8.73294 9.36406L11.5166 7.34457L14.3275 9.36406L13.2495 6.08921L16.0468 4.05607L12.5945 4.06972Z" fill="white"/>
<path d="M18.5985 10.0327L17.5342 6.75781L16.4698 10.0327H13.0312L15.8149 12.0658L14.7505 15.3406L17.5342 13.3212L20.3451 15.3406L19.2808 12.0658L22.0644 10.0327H18.5985Z" fill="white"/>
<path d="M24.4793 15.9135L23.415 12.625L22.3507 15.9135H18.8984L21.6957 17.9466L20.6314 21.2215L23.415 19.202L26.2259 21.2215L25.148 17.9466L27.9452 15.8999L24.4793 15.9135Z" fill="white"/>
<path d="M30.3602 21.7807L29.2958 18.5059L28.2315 21.7807H24.7656L27.5765 23.8275L26.5122 27.1023L29.2958 25.0692L32.0795 27.1023L31.0151 23.8275L33.8261 21.7807H30.3602Z" fill="white"/>
<path d="M36.241 27.6616L35.1767 24.3867L34.1124 27.6616H30.6465L33.4574 29.6947L32.3931 32.9832L35.1767 30.9501L37.9603 32.9832L36.896 29.6811L39.6933 27.6616H36.241Z" fill="white"/>
<path d="M42.1219 33.5424L41.0439 30.2676L39.9796 33.5424H36.5273L39.3246 35.5619L38.2466 38.8641L41.0576 36.8309L43.8412 38.8504L42.7769 35.5619L45.5741 33.5424H42.1219Z" fill="white"/>
<path d="M47.9891 39.4232L46.9248 36.1211L45.8604 39.4232H42.4082L45.1918 41.4427L44.1275 44.7312L46.9248 42.6981L49.722 44.7312L48.6577 41.4427L51.4413 39.4232H47.9891Z" fill="white"/>
<path d="M52.8056 42.002L51.7276 45.2905L48.2754 45.3041L50.9771 47.2554H54.6068L57.3222 45.2905H53.8699L52.8056 42.002Z" fill="white"/>
</g>
<defs>
<clipPath id="clip0_3_24525">
<rect width="70" height="46.6666" fill="white" transform="translate(0 0.589844)"/>
</clipPath>
</defs>
</svg>
