<svg width="70" height="47" viewBox="0 0 70 47" fill="none" xmlns="http://www.w3.org/2000/svg">
<g clip-path="url(#clip0_3_24780)">
<path d="M0 0.255859H70V46.9225H0V0.255859Z" fill="#36B6CC"/>
<path d="M34.9993 32.9088C40.154 32.9088 44.3327 28.7302 44.3327 23.5755C44.3327 18.4209 40.154 14.2422 34.9993 14.2422C29.8447 14.2422 25.666 18.4209 25.666 23.5755C25.666 28.7302 29.8447 32.9088 34.9993 32.9088Z" fill="#FFD400"/>
<path d="M35.0002 34.5737L31.1932 40.2638L30.2244 33.4821L24.3297 36.9616L26.4037 30.4392L19.5811 31.0123L24.2751 26.0318L17.8755 23.5757L24.2614 21.1196L19.5675 16.1391L26.3901 16.7122L24.316 10.1897L30.2107 13.6556L31.1796 6.87395L34.9866 12.564L38.7936 6.87395L39.7624 13.6556L45.6571 10.1897L43.5831 16.7122L50.4057 16.1391L45.7254 21.1332L52.1113 23.5757L45.7254 26.0318L50.4193 31.0123L43.5967 30.4392L45.6708 36.9616L39.776 33.4958L38.8072 40.2774C38.8072 40.2638 35.0002 34.5737 35.0002 34.5737ZM35.0002 34.4646C41.0178 34.4646 45.9028 29.5796 45.9028 23.562C45.9028 17.5445 41.0178 12.6732 35.0002 12.6732C28.9827 12.6732 24.0977 17.5582 24.0977 23.5757C24.0977 29.5932 28.9827 34.4646 35.0002 34.4646ZM3.11133 4.11762C3.11133 3.68097 3.43881 3.33984 3.88911 3.33984H5.43102C5.86766 3.33984 6.20879 3.66733 6.20879 4.11762V5.65953C6.22244 6.08253 5.88131 6.43731 5.44466 6.43731H3.88911C3.4661 6.43731 3.11133 6.09618 3.11133 5.67317V4.11762ZM3.11133 10.3535C3.11133 9.91684 3.43881 9.57571 3.88911 9.57571H5.43102C5.86766 9.57571 6.20879 9.90319 6.20879 10.3535V11.8954C6.22244 12.3184 5.88131 12.6732 5.44466 12.6732H3.88911C3.4661 12.6732 3.11133 12.332 3.11133 11.909V10.3535ZM3.11133 16.5757C3.11133 16.1391 3.43881 15.7979 3.88911 15.7979H5.43102C5.86766 15.7979 6.20879 16.1254 6.20879 16.5757V18.1176C6.22244 18.5406 5.88131 18.8954 5.44466 18.8954H3.88911C3.4661 18.8954 3.11133 18.5543 3.11133 18.1313V16.5757ZM3.11133 22.7979C3.11133 22.3613 3.43881 22.0201 3.88911 22.0201H5.43102C5.86766 22.0201 6.20879 22.3476 6.20879 22.7979V24.3398C6.22244 24.7628 5.88131 25.1176 5.44466 25.1176H3.88911C3.4661 25.1176 3.11133 24.7765 3.11133 24.3535V22.7979ZM3.11133 29.0338C3.11133 28.5971 3.43881 28.256 3.88911 28.256H5.43102C5.86766 28.256 6.20879 28.5835 6.20879 29.0338V30.5757C6.22244 30.9987 5.88131 31.3535 5.44466 31.3535H3.88911C3.4661 31.3535 3.11133 31.0123 3.11133 30.5893V29.0338ZM3.11133 35.256C3.11133 34.8193 3.43881 34.4782 3.88911 34.4782H5.43102C5.86766 34.4782 6.20879 34.8057 6.20879 35.256V36.7979C6.22244 37.2209 5.88131 37.5757 5.44466 37.5757H3.88911C3.4661 37.5757 3.11133 37.2345 3.11133 36.8115V35.256ZM3.11133 41.4782C3.11133 41.0416 3.43881 40.7004 3.88911 40.7004H5.43102C5.86766 40.7004 6.20879 41.0279 6.20879 41.4782V43.0201C6.22244 43.4431 5.88131 43.7979 5.44466 43.7979H3.88911C3.4661 43.7979 3.11133 43.4568 3.11133 43.0338V41.4782ZM6.22244 38.3671C6.22244 37.9305 6.54992 37.5893 7.00022 37.5893H8.54213C8.97877 37.5893 9.31991 37.9168 9.31991 38.3671V39.909C9.33355 40.332 8.99242 40.6868 8.55577 40.6868H7.00022C6.57722 40.6868 6.22244 40.3457 6.22244 39.9227V38.3671ZM6.22244 32.1449C6.22244 31.7082 6.54992 31.3671 7.00022 31.3671H8.54213C8.97877 31.3671 9.31991 31.6946 9.31991 32.1449V33.6868C9.33355 34.1098 8.99242 34.4646 8.55577 34.4646H7.00022C6.57722 34.4646 6.22244 34.1234 6.22244 33.7004V32.1449ZM6.22244 25.909C6.22244 25.4724 6.54992 25.1312 7.00022 25.1312H8.54213C8.97877 25.1312 9.31991 25.4587 9.31991 25.909V27.4509C9.33355 27.8739 8.99242 28.2287 8.55577 28.2287H7.00022C6.57722 28.2287 6.22244 27.8876 6.22244 27.4646V25.909ZM6.22244 19.6868C6.22244 19.2502 6.54992 18.909 7.00022 18.909H8.54213C8.97877 18.909 9.31991 19.2365 9.31991 19.6868V21.2287C9.33355 21.6517 8.99242 22.0065 8.55577 22.0065H7.00022C6.57722 22.0065 6.22244 21.6654 6.22244 21.2424V19.6868ZM6.22244 13.4646C6.22244 13.0279 6.54992 12.6868 7.00022 12.6868H8.54213C8.97877 12.6868 9.31991 13.0143 9.31991 13.4646V15.0065C9.33355 15.4295 8.99242 15.7843 8.55577 15.7843H7.00022C6.57722 15.7843 6.22244 15.4431 6.22244 15.0201V13.4646ZM6.22244 7.24237C6.22244 6.80573 6.54992 6.4646 7.00022 6.4646H8.54213C8.97877 6.4646 9.31991 6.79208 9.31991 7.24237V8.78428C9.33355 9.20728 8.99242 9.56206 8.55577 9.56206H7.00022C6.57722 9.56206 6.22244 9.22093 6.22244 8.79793V7.24237Z" fill="#FFD400"/>
</g>
<defs>
<clipPath id="clip0_3_24780">
<rect width="70" height="46.6666" fill="white" transform="translate(0 0.255859)"/>
</clipPath>
</defs>
</svg>
