<svg width="70" height="47" viewBox="0 0 70 47" fill="none" xmlns="http://www.w3.org/2000/svg">
<g clip-path="url(#clip0_3_25140)">
<path d="M0 0.25293H70V46.9195H0V0.25293Z" fill="white"/>
<path d="M0 5.43848H70V10.6237H0V5.43848ZM0 15.8088H70V20.994H0V15.8088ZM0 26.1792H70V31.3644H0V26.1792ZM0 36.5496H70V41.7347H0V36.5496Z" fill="#0038A8"/>
<path d="M0 0.25293H35V26.1788H0V0.25293Z" fill="white"/>
<path d="M17.5073 19.1787L15.4468 22.2625L14.9283 18.592L11.7353 20.475L12.8542 16.9409L9.14275 17.2411L11.6808 14.5393L8.22852 13.2157L11.6944 11.8922L9.14275 9.19041L12.8406 9.50425L11.7217 5.97014L14.9147 7.85318L15.4468 4.18262L17.5073 7.26644L19.5677 4.18262L20.0862 7.85318L23.2792 5.97014L22.1603 9.50425L25.8581 9.20405L23.3201 11.9058L26.786 13.2294L23.3201 14.553L25.8581 17.2547L22.1603 16.9545L23.2792 20.4886L20.0862 18.6056L19.5541 22.2762L17.5073 19.1787ZM17.5073 19.1105C20.7685 19.2333 23.5112 16.7089 23.634 13.4477C23.7568 10.1865 21.2324 7.44382 17.9712 7.32102H17.5073C14.2461 7.43018 11.6944 10.1592 11.8036 13.4068C11.8854 16.5179 14.3962 19.015 17.5073 19.1105ZM17.5073 17.6641C14.942 17.6641 12.8679 15.59 12.8679 13.0247C12.8679 10.4594 14.942 8.38534 17.5073 8.38534C20.0726 8.38534 22.1466 10.4594 22.1466 13.0247C22.1466 15.59 20.0589 17.6641 17.5073 17.6641Z" fill="#FED443"/>
</g>
<defs>
<clipPath id="clip0_3_25140">
<rect width="70" height="46.6666" fill="white" transform="translate(0 0.25293)"/>
</clipPath>
</defs>
</svg>
