<svg width="70" height="48" viewBox="0 0 70 48" fill="none" xmlns="http://www.w3.org/2000/svg">
<g clip-path="url(#clip0_3_24745)">
<path d="M2.36133 0.922852H67.6401V47.5895H2.36133V0.922852Z" fill="#181A93"/>
<path d="M0 0.922852H70V16.4784H0V0.922852Z" fill="#FFA44A"/>
<path d="M0 32.0342H70V47.5897H0V32.0342Z" fill="#1A9F0B"/>
<path d="M0 16.4785H70V32.0341H0V16.4785Z" fill="white"/>
<path d="M35.0007 28.9232C37.578 28.9232 39.6673 26.8338 39.6673 24.2565C39.6673 21.6792 37.578 19.5898 35.0007 19.5898C32.4233 19.5898 30.334 21.6792 30.334 24.2565C30.334 26.8338 32.4233 28.9232 35.0007 28.9232Z" fill="white"/>
<path d="M34.9996 30.4786C31.5746 30.4786 28.7773 27.6813 28.7773 24.2564C28.7773 20.8314 31.5746 18.0342 34.9996 18.0342C38.4245 18.0342 41.2218 20.8314 41.2218 24.2564C41.2218 27.6813 38.4245 30.4786 34.9996 30.4786ZM34.9996 28.9231C37.483 28.9231 39.6662 26.7398 39.6662 24.2564C39.6662 21.773 37.4966 19.5897 34.9996 19.5897C32.5025 19.5897 30.3329 21.773 30.3329 24.2564C30.3329 26.7398 32.5161 28.9231 34.9996 28.9231Z" fill="#181A93"/>
<path d="M34.9998 27.3667C36.718 27.3667 38.1109 25.9739 38.1109 24.2556C38.1109 22.5374 36.718 21.1445 34.9998 21.1445C33.2816 21.1445 31.8887 22.5374 31.8887 24.2556C31.8887 25.9739 33.2816 27.3667 34.9998 27.3667Z" fill="#181A93"/>
</g>
<defs>
<clipPath id="clip0_3_24745">
<rect width="70" height="46.6666" fill="white" transform="translate(0 0.922852)"/>
</clipPath>
</defs>
</svg>
