<svg width="70" height="47" viewBox="0 0 70 47" fill="none" xmlns="http://www.w3.org/2000/svg">
<g clip-path="url(#clip0_3_25025)">
<path d="M0 0.253906H70V46.9205H0V0.253906Z" fill="#055E1C"/>
<path d="M25.0945 28.1517C25.0945 29.8326 26.4249 31.1952 28.0662 31.1952H36.9813C36.9813 32.5957 38.0901 33.7314 39.4579 33.7314H42.4296C43.7973 33.7314 44.9061 32.5958 44.9061 31.1952V28.1517H25.0945ZM45.1533 13.4414V20.5429C45.1533 21.6616 44.2646 22.5718 43.1721 22.5718V25.6153C45.9032 25.6153 48.1249 23.3398 48.1249 20.5429V13.4414H45.1533ZM23.8562 20.543C23.8562 21.6618 22.9675 22.5719 21.875 22.5719V25.6154C24.6061 25.6154 26.8278 23.34 26.8278 20.543V13.4415H23.8561V20.543H23.8562Z" fill="white"/>
<path d="M40.6948 13.4414H43.6666V20.5429H40.6948V13.4414ZM36.2373 17.4999C36.2373 17.7796 36.0151 18.0071 35.7419 18.0071C35.4688 18.0071 35.2466 17.7796 35.2466 17.4999V13.4418H32.2749V17.4999C32.2749 17.7796 32.0527 18.0071 31.7795 18.0071C31.5064 18.0071 31.2842 17.7796 31.2842 17.4999V13.4418H28.3125V17.4999C28.3125 19.4577 29.8678 21.0506 31.7794 21.0506C32.5156 21.0506 33.1986 20.8137 33.7606 20.4112C34.3225 20.8137 35.0056 21.0506 35.7418 21.0506C35.89 21.0506 36.0357 21.04 36.1793 21.0212C35.9687 21.9098 35.1874 22.5723 34.2559 22.5723V25.6158C36.987 25.6158 39.2087 23.3404 39.2087 20.5434V13.4418H36.237L36.2373 17.4999Z" fill="white"/>
<path d="M28.3125 22.5723H32.7697V25.6158H28.3125V22.5723Z" fill="white"/>
</g>
<defs>
<clipPath id="clip0_3_25025">
<rect width="70" height="46.6666" fill="white" transform="translate(0 0.253906)"/>
</clipPath>
</defs>
</svg>
