<svg width="70" height="47" viewBox="0 0 70 47" fill="none" xmlns="http://www.w3.org/2000/svg">
<g clip-path="url(#clip0_3_24665)">
<path d="M0 0.256836H70V46.9225H0V0.256836Z" fill="white"/>
<path d="M0 0.256836H70V15.812H0V0.256836ZM0 31.3673H70V46.9225H0V31.3673Z" fill="#D80027"/>
<path d="M40.1949 23.5888C40.1949 26.4574 37.8694 28.1337 35.0007 28.1337C32.1321 28.1337 29.8066 26.4574 29.8066 23.5888C29.8066 20.7201 32.1322 18.3945 35.0009 18.3945C37.8695 18.3945 40.1949 20.7201 40.1949 23.5888Z" fill="#FFDA44"/>
<path d="M40.1931 23.5889C40.1931 26.4575 37.8675 28.7831 34.9989 28.7831C32.1303 28.7831 29.8047 26.4575 29.8047 23.5889" fill="#0052B4"/>
<path d="M31.7539 22.2906H33.0525V24.8883H31.7539V22.2906ZM36.9476 22.2906H38.2461V24.8883H36.9476V22.2906ZM34.3499 20.3428H35.6485V24.8877H34.3499V20.3428Z" fill="#D80027"/>
</g>
<defs>
<clipPath id="clip0_3_24665">
<rect width="70" height="46.6666" fill="white" transform="translate(0 0.255859)"/>
</clipPath>
</defs>
</svg>
