<svg width="70" height="47" viewBox="0 0 70 47" fill="none" xmlns="http://www.w3.org/2000/svg">
<g clip-path="url(#clip0_3_24600)">
<path d="M0 0.255859H70V46.9225H0V0.255859Z" fill="white"/>
<path d="M0 0.255859H70V15.8114H0V0.255859Z" fill="#D80027"/>
<path d="M0 31.3672H70V46.9227H0V31.3672Z" fill="#0052B4"/>
<path d="M42.2047 15.7022V9.69831L44.5926 7.7334L47.0078 9.69831V15.7022H42.2047ZM27.7953 15.7022V9.69831L25.4347 7.7334L22.9922 9.69831V15.7022H27.7953ZM32.5984 15.7022V9.69831L35 7.7334L37.4015 9.69831V15.7022H32.5984Z" fill="#338AF3"/>
<path d="M42.2043 15.7022H37.4012V9.69831L39.7891 7.7334L42.2043 9.69831V15.7022ZM32.598 15.7022H27.7949V9.69831L30.1828 7.7334L32.598 9.69831V15.7022Z" fill="#0052B4"/>
<path d="M22.9922 15.7021V29.6066C22.9922 32.9224 24.9571 35.9107 27.8226 37.7119C30.729 39.5403 33.5672 39.7177 35 39.7177C36.4327 39.7177 39.2846 39.4857 42.1774 37.6982C45.0429 35.9243 47.0078 32.9088 47.0078 29.6066V15.7021H22.9922Z" fill="white"/>
<path fill-rule="evenodd" clip-rule="evenodd" d="M22.9238 15.6338H47.0759V29.6065C47.0759 32.9363 45.095 35.9721 42.2132 37.7561C39.3055 39.5528 36.4395 39.7858 34.9999 39.7858C33.5612 39.7858 30.7081 39.6077 27.7862 37.7695C24.9049 35.9584 22.9238 32.9502 22.9238 29.6065V15.6338ZM23.0603 15.7702V29.6065C23.0603 32.8943 25.009 35.8627 27.8588 37.654C30.7496 39.4726 33.573 39.6494 34.9999 39.6494C36.4257 39.6494 39.2634 39.4184 42.1413 37.6401C44.9905 35.8763 46.9394 32.8809 46.9394 29.6065V15.7702H23.0603Z" fill="#D80027"/>
<path d="M22.9922 15.7021H27.7953V20.5053H22.9922V15.7021ZM32.5984 15.7021H37.4015V20.5053H32.5984V15.7021ZM42.2047 15.7021H47.0078V20.5053H42.2047V15.7021ZM27.7953 20.5053H32.5984V25.3084H27.7953V20.5053ZM37.4015 20.5053H42.2047V25.3084H37.4015V20.5053ZM22.9922 25.3084H27.7953V30.1115H22.9922V25.3084ZM27.7953 30.1115H32.5984V34.9146H27.7953V30.1115ZM32.5984 25.3084H37.4015V30.1115H32.5984V25.3084ZM42.2047 25.3084H47.0078V30.1115H42.2047V25.3084ZM37.4015 30.1115H42.2047V34.9146H37.4015V30.1115ZM42.2047 37.6846C43.3781 36.9477 44.4152 36.0062 45.2066 34.9146H42.2047V37.6846ZM24.7934 34.9146C25.5848 36.0062 26.6082 36.9477 27.7953 37.6982V34.9146H24.7934ZM32.5984 34.9146V39.513C33.5809 39.6768 34.4132 39.7177 35 39.7177C35.5867 39.7177 36.4191 39.6768 37.4015 39.4994V34.9146H32.5984Z" fill="#D80027"/>
</g>
<defs>
<clipPath id="clip0_3_24600">
<rect width="70" height="46.6666" fill="white" transform="translate(0 0.255859)"/>
</clipPath>
</defs>
</svg>
