<svg width="70" height="47" viewBox="0 0 70 47" fill="none" xmlns="http://www.w3.org/2000/svg">
<g clip-path="url(#clip0_3_24890)">
<path d="M0 0.254883H70V46.9215H0V0.254883Z" fill="#E6BE53"/>
<path d="M2.72852 2.98438H67.2704V44.1929H2.72852V2.98438Z" fill="#E01D24"/>
<path d="M33.9076 15.6603C34.508 16.2607 35.4904 16.2607 36.0908 15.6603L35.4495 16.3017L38.547 13.2042C39.2156 12.5902 40.198 12.4401 41.0304 12.8221L41.3169 12.9586C42.0947 13.3543 42.2312 14.1457 41.6308 14.7461L42.2721 14.1048L39.161 17.2159C38.547 17.8845 38.3969 18.867 38.7789 19.6993L38.9154 19.9859C39.3111 20.7637 39.6113 22.0872 39.6113 22.9332V21.3913C39.6113 22.2373 40.2117 22.633 41.0031 22.2373L41.2897 22.1009C42.0674 21.7052 42.2039 20.9137 41.6035 20.3134L42.2448 20.9547C41.6444 20.3543 41.6444 19.3718 42.2448 18.7715L41.6035 19.4128C42.313 18.6623 42.9134 17.8299 43.391 16.9293L43.5275 16.6428C43.9232 15.865 44.3871 14.5824 44.6054 13.75L45.3969 10.5707C45.6015 9.75197 46.2019 9.64281 46.7068 10.3251L49.4631 13.9956C49.9817 14.6915 50.4047 15.906 50.4047 16.8065V19.8631C50.4047 20.7227 50.1045 22.019 49.7088 22.8241L49.5723 23.1106C49.0947 24.0112 48.4943 24.8436 47.7848 25.5941L46.8569 26.5219C46.1201 27.2315 45.2877 27.8319 44.3735 28.3095L44.0869 28.4459C43.3092 28.8416 41.9719 29.1418 41.1396 29.1418C40.2936 29.1418 40.198 29.442 40.9895 29.8377L41.276 29.9742C42.0538 30.3699 43.1591 31.1613 43.7594 31.7617L43.1181 31.1204C43.7185 31.7208 44.701 31.7208 45.3014 31.1204L44.66 31.7617C45.2604 31.1613 46.2429 31.1613 46.8433 31.7617L46.2565 31.0931C46.8842 31.7617 47.0343 32.7441 46.6522 33.5765L46.5158 33.8631C46.1201 34.6408 45.0967 35.2549 44.278 35.2549C43.2546 35.2139 42.2585 34.982 41.3306 34.559L41.044 34.4225C40.1571 33.9313 39.4339 33.2081 38.9427 32.3211L38.8062 32.0346C38.4105 31.2568 37.6191 31.1204 37.0187 31.7208L37.66 31.0794C37.0596 31.7208 36.9505 32.6896 37.4144 33.4401L38.8199 35.5414C39.2838 36.2373 39.0928 37.1925 38.3969 37.6564L36.2955 39.0619C35.5177 39.5258 34.5489 39.5258 33.7575 39.0619L31.6561 37.6564C30.9602 37.1925 30.7692 36.251 31.2331 35.5414L32.6386 33.4401C33.1025 32.6896 32.9934 31.7208 32.393 31.0794L33.0343 31.7208C32.4339 31.1204 31.6425 31.2295 31.2468 32.0346L31.1103 32.3211C30.7146 33.0989 29.814 34.0132 29.009 34.4225L28.7224 34.559C27.9446 34.9547 26.6074 35.2549 25.775 35.2549C24.8335 35.2139 23.9875 34.6818 23.5372 33.8631L23.4008 33.5765C23.0187 32.7441 23.1824 31.7617 23.7965 31.0931L23.1552 31.7344C23.7555 31.134 24.738 31.134 25.3384 31.7344L24.6971 31.0931C25.2975 31.6935 26.2799 31.6935 26.8803 31.0931L26.239 31.7344C26.9895 31.0248 27.8218 30.4245 28.7224 29.9469L29.009 29.8104C29.7867 29.4147 29.6912 29.1145 28.8589 29.1145C27.8355 29.0736 26.8394 28.8416 25.9115 28.4186L25.6249 28.2822C24.7244 27.8046 23.892 27.2042 23.1415 26.4946L22.2136 25.5668C21.5041 24.8299 20.9037 23.9976 20.4261 23.0833L20.2897 22.7968C19.8667 21.8689 19.621 20.8592 19.5938 19.8358V16.7656C19.5938 15.906 20.0168 14.637 20.5353 13.9547L23.2916 10.2841C23.8101 9.58822 24.3969 9.69739 24.6015 10.5297L25.393 13.7091C25.6659 14.7052 26.0206 15.674 26.4709 16.6019L26.6074 16.8884C27.0031 17.6662 27.7945 18.7715 28.3949 19.3718L27.7536 18.7305C28.354 19.3309 28.354 20.3134 27.7536 20.9137L28.3949 20.2724C27.7945 20.8728 27.9037 21.6642 28.7088 22.0599L28.9953 22.1964C29.7731 22.5921 30.3871 22.1964 30.3871 21.3504V22.8923C30.3871 22.0463 30.6873 20.75 31.083 19.9449L31.2195 19.6584C31.6015 18.826 31.4514 17.8572 30.8374 17.175L27.7399 14.0775L28.3813 14.7188C27.7809 14.1184 27.89 13.327 28.6951 12.9313L28.9817 12.7948C29.814 12.4128 30.7828 12.5629 31.4651 13.1769L34.5626 16.2744L33.9076 15.6603ZM31.4514 10.1067C30.8511 9.50635 31.0148 8.81045 31.8335 8.53754L33.5255 7.96444C34.3442 7.69154 35.6405 7.69154 36.4592 7.96444L38.1513 8.53754C38.97 8.81045 39.1337 9.50635 38.5333 10.1067L37.6054 11.0346C36.8822 11.6759 35.9544 12.058 34.9856 12.1126C34.1396 12.1126 32.9661 11.635 32.3657 11.0346C32.3793 11.0346 31.4514 10.1067 31.4514 10.1067Z" fill="#E6BE53"/>
<path d="M31.916 27.5729C31.916 28.4189 32.148 28.4462 32.4891 27.6411C32.4891 27.6411 33.4579 24.4754 34.9998 24.4754C36.5417 24.4754 37.5379 27.6957 37.5379 27.6957C37.838 28.4735 38.0837 28.4189 38.0837 27.5456V26.0173C38.0837 23.4657 36.7055 21.3916 34.9998 21.3916C33.2942 21.3916 31.916 23.4657 31.916 26.0173V27.5729Z" fill="#215F90"/>
</g>
<defs>
<clipPath id="clip0_3_24890">
<rect width="70" height="46.6666" fill="white" transform="translate(0 0.254883)"/>
</clipPath>
</defs>
</svg>
