<svg width="70" height="48" viewBox="0 0 70 48" fill="none" xmlns="http://www.w3.org/2000/svg">
<g clip-path="url(#clip0_3_25115)">
<path d="M0 0.585938H70V47.2526H0V0.585938Z" fill="#232323"/>
<path d="M0 8.36621H70V16.1463H0V8.36621Z" fill="#FFDA44"/>
<path d="M0 16.1465H70V23.9265H0V16.1465Z" fill="#D32300"/>
<path d="M0 31.7061H70V39.4861H0V31.7061Z" fill="#FFDA44"/>
<path d="M0 39.4727H70V47.2527H0V39.4727Z" fill="#D32300"/>
<path d="M35 34.9601C41.0935 34.9601 46.0332 30.0199 46.0332 23.9259C46.0332 17.8318 41.0935 12.8916 35 12.8916C28.9065 12.8916 23.9668 17.8318 23.9668 23.9259C23.9668 30.0199 28.9065 34.9601 35 34.9601Z" fill="white"/>
<path d="M32.0605 18.019C32.1836 17.8276 29.3809 17.7456 29.3809 17.7456C29.6133 17.4037 31.8965 16.3099 31.8965 16.3099C31.8965 16.3099 31.7734 15.4895 32.2656 14.9699L31.6504 13.6299C31.6504 13.6299 32.6074 13.165 34.166 13.165C35.7246 13.165 36.8867 14.1222 37.0371 14.9562L36.1621 15.4211C36.1484 16.0638 36.3945 17.0072 35.5742 17.7866C34.7676 18.566 34.4394 18.73 34.4121 20.3571C34.4121 20.8904 34.7266 21.4783 35.6152 21.9569C37.9941 23.2285 40.8926 25.8127 41.7129 26.5921C42.5469 27.3715 42.4102 29.2174 42.0684 30.0378C41.7266 30.8582 40.4141 31.993 40.1133 31.8973C39.8125 31.8153 40.2773 30.6394 39.6348 30.3112C39.6348 30.3112 38.418 29.2721 37.3379 30.3933C36.2578 31.5145 37.3105 33.8389 37.8711 34.2218C38.4316 34.6046 38.1035 34.9054 37.6113 34.9054H33.7695C33.25 34.9054 33.0312 34.5909 33.5098 34.2218C34.5488 33.7022 35.2051 32.1298 34.5215 31.4461C33.8516 30.7761 32.0195 31.6512 31.582 32.3075C31.1992 32.6904 30.3789 32.7998 29.8184 32.1161C29.2578 31.4324 29.2578 30.6941 29.668 30.4069C30.625 29.7506 29.668 30.4069 29.6816 30.3933C29.6816 30.3933 31.3086 29.2174 33.7695 29.1627C34.3027 29.1627 34.4258 28.8619 34.0703 28.5064C34.0703 28.5064 29.8457 24.7599 30.2285 22.4628C30.6387 19.9606 32.9629 18.8668 32.0605 18.019C32.0605 18.019 31.8828 17.7729 32.0605 18.019Z" fill="black"/>
</g>
<defs>
<clipPath id="clip0_3_25115">
<rect width="70" height="46.6666" fill="white" transform="translate(0 0.585938)"/>
</clipPath>
</defs>
</svg>
