<svg width="70" height="47" viewBox="0 0 70 47" fill="none" xmlns="http://www.w3.org/2000/svg">
<g clip-path="url(#clip0_3_24905)">
<path d="M0 0.255859H70V46.9215H0V0.255859Z" fill="white"/>
<path d="M0 46.9215V0.255859L38.3385 24.1475H11.9779L37.0762 46.9215H0Z" fill="#0052B4"/>
<path d="M33.4646 22.7528L1.39453 2.76758V45.5269H33.4646L8.36637 22.7528H33.4646Z" fill="#D80027"/>
<path d="M13.3984 32.944L11.4038 32.0057L12.4661 30.0738L10.2999 30.4881L10.0254 28.2999L8.51672 29.9094L7.00789 28.2999L6.73336 30.4881L4.56732 30.0737L5.62963 32.0057L3.63477 32.944L5.62963 33.8822L4.56732 35.814L6.7335 35.3999L7.00789 37.5879L8.51672 35.9785L10.0254 37.5879L10.2999 35.3999L12.466 35.8141L11.4038 33.8823L13.3984 32.944ZM12.0674 14.7917L10.6166 14.1093L11.3892 12.7041L9.81377 13.0056L9.61402 11.4141L8.51672 12.5845L7.41941 11.4141L7.2198 13.0056L5.64412 12.7041L6.41686 14.1093L4.96586 14.7917L8.51672 15.5018L12.0674 14.7917Z" fill="white"/>
<path d="M12.7775 14.792C12.7775 17.1452 10.8699 19.0528 8.5167 19.0528C6.1635 19.0528 4.25586 17.1452 4.25586 14.792" fill="white"/>
</g>
<defs>
<clipPath id="clip0_3_24905">
<rect width="70" height="46.6666" fill="white" transform="translate(0 0.254883)"/>
</clipPath>
</defs>
</svg>
