<svg width="70" height="48" viewBox="0 0 70 48" fill="none" xmlns="http://www.w3.org/2000/svg">
<g clip-path="url(#clip0_3_25060)">
<path d="M0 0.587891H70V47.2536H0V0.587891Z" fill="white"/>
<path d="M15.5892 23.9204L0 8.32422V39.5193L15.5892 23.9204Z" fill="black"/>
<path d="M22.038 23.9209L0 1.86816V8.32484L15.5892 23.921L0 39.52V45.9646L22.038 23.9209Z" fill="#FFB915"/>
<path d="M69.7037 28.4859C69.7117 28.4257 69.8137 28.3659 70 28.3057V19.3555H30.4339L11.6662 0.587891H0V1.86799L22.038 23.9207L0 45.9644V47.2536H11.6662L30.4339 28.4859H69.7037Z" fill="#007847"/>
<path d="M68.795 33.0508H32.3255L18.123 47.2531H70.0007V33.0508H68.795Z" fill="#000C8A"/>
<path d="M68.795 14.7902H70.0007V0.587891H18.123L32.3255 14.7902H68.795Z" fill="#E1392D"/>
</g>
<defs>
<clipPath id="clip0_3_25060">
<rect width="70" height="46.6666" fill="white" transform="translate(0 0.586914)"/>
</clipPath>
</defs>
</svg>
