<svg width="70" height="48" viewBox="0 0 70 48" fill="none" xmlns="http://www.w3.org/2000/svg">
<g clip-path="url(#clip0_3_24945)">
<path d="M0 0.587891H70V47.2545H0V0.587891Z" fill="#D80027"/>
<path d="M18.8301 0.587891H70.2726V16.1434H18.8301V0.587891Z" fill="white"/>
<path d="M18.8301 31.9717H70.2726V47.5272H18.8301V31.9717Z" fill="#4A7C3A"/>
<path fill-rule="evenodd" clip-rule="evenodd" d="M4.95899 5.80821C4.95892 5.80813 4.95888 5.80808 5.4987 5.39085C6.03851 4.97362 6.03851 4.97361 6.03852 4.97363L6.05233 4.99145C6.0617 5.00354 6.07576 5.02163 6.09425 5.04537C6.13123 5.09285 6.18594 5.16289 6.25635 5.2525C6.39718 5.43175 6.60078 5.68922 6.85104 6.00112C7.35187 6.6253 8.03814 7.46565 8.78146 8.33243C9.52611 9.20076 10.3215 10.088 11.0416 10.8093C11.7872 11.5562 12.3772 12.0471 12.7229 12.2111C13.6317 12.6423 14.1685 12.8165 14.4568 12.8854C14.5998 12.9196 14.6738 12.9259 14.6961 12.927C14.7007 12.9273 14.7027 12.9273 14.7022 12.9273C14.7015 12.9273 14.6967 12.9273 14.6881 12.928C14.6804 12.9285 14.6696 12.9296 14.6561 12.9317C14.6493 12.9327 14.6419 12.934 14.6338 12.9355C14.6297 12.9363 14.6255 12.9372 14.6211 12.9381L14.6145 12.9396L14.611 12.9403L14.6093 12.9407C14.6084 12.9409 14.6075 12.9411 14.7638 13.6053C14.9201 14.2694 14.9192 14.2696 14.9183 14.2698L14.9165 14.2702L14.913 14.271L14.9058 14.2726C14.9009 14.2736 14.896 14.2746 14.891 14.2756C14.8811 14.2775 14.8708 14.2793 14.8602 14.2809C14.839 14.2841 14.8164 14.2866 14.7924 14.2885C14.7444 14.2922 14.6901 14.293 14.6281 14.2899C14.505 14.2837 14.3462 14.2619 14.1395 14.2125C13.7285 14.1143 13.0986 13.8997 12.138 13.4439C11.549 13.1644 10.8052 12.5039 10.0759 11.7733C9.32098 11.0171 8.50028 10.1007 7.74565 9.2207C6.98971 8.33919 6.29355 7.48668 5.78676 6.85507C5.53322 6.53908 5.32671 6.27793 5.18339 6.09552C5.11173 6.00431 5.05584 5.93277 5.01776 5.88387C4.99871 5.85942 4.98412 5.84063 4.97422 5.82788L4.95899 5.80821Z" fill="white"/>
<path fill-rule="evenodd" clip-rule="evenodd" d="M4.72183 13.6051L4.78158 14.2847L4.25977 13.1031L7.43523 10.1801H7.05516V8.81559H8.91761L8.96549 8.77152V5.39065H10.33V7.5155L13.1837 4.88867L14.1741 5.82236L13.6458 5.39065C14.1741 5.82236 14.1742 5.8223 14.1741 5.82236L14.1162 5.89306C14.0785 5.93898 14.0232 6.00634 13.9525 6.09232C13.8109 6.26428 13.6074 6.51083 13.3591 6.8096C12.9094 7.35066 12.3124 8.0637 11.6706 8.81559H12.2267V10.1801H10.4912C10.0887 10.6389 9.6917 11.0833 9.32357 11.4829C8.67472 12.1871 8.06712 12.8064 7.67545 13.092C6.94781 13.6226 6.23854 13.9188 5.70806 14.0829C5.44241 14.1651 5.21986 14.2147 5.05965 14.2441C4.97947 14.2588 4.91466 14.2686 4.86759 14.2748C4.84405 14.278 4.82491 14.2802 4.81049 14.2818C4.80327 14.2826 4.79723 14.2832 4.7924 14.2837L4.78607 14.2843L4.78359 14.2845L4.78204 14.2847C4.7818 14.2847 4.78158 14.2847 4.72183 13.6051Z" fill="white"/>
</g>
<defs>
<clipPath id="clip0_3_24945">
<rect width="70" height="46.6666" fill="white" transform="translate(0 0.587891)"/>
</clipPath>
</defs>
</svg>
