<svg width="70" height="48" viewBox="0 0 70 48" fill="none" xmlns="http://www.w3.org/2000/svg">
<g clip-path="url(#clip0_3_24620)">
<path d="M0 0.922852H70V47.5895H0V0.922852Z" fill="white"/>
<path d="M0 30.3477H28.916V47.5896H0V30.3477Z" fill="#D80027"/>
<path d="M0 0.922852H28.916V18.1784H0V0.922852Z" fill="#0052B4"/>
<path d="M41.084 0.922852H70V18.1784H41.084V0.922852Z" fill="#D80027"/>
<path d="M41.084 30.3477H70V47.5896H41.084V30.3477Z" fill="#0052B4"/>
<path d="M35 18.6973H28.1777V25.4518C28.1777 25.4518 30.8437 26.2722 35 26.2722V18.6973Z" fill="#0052B4"/>
<path fill-rule="evenodd" clip-rule="evenodd" d="M27.8359 18.3564H35.3405V26.6137H34.9993C32.899 26.6137 31.1738 26.4064 29.9715 26.1985C29.3703 26.0946 28.8995 25.9904 28.5776 25.9118C28.4167 25.8725 28.293 25.8395 28.2087 25.8162C28.1666 25.8045 28.1343 25.7953 28.1123 25.7888C28.1012 25.7856 28.0927 25.7831 28.0868 25.7813L28.0798 25.7792L28.0778 25.7786L28.0769 25.7783C28.0768 25.7783 28.0767 25.7782 28.1771 25.4522L28.0767 25.7782L27.8359 25.7041V18.3564ZM28.5182 25.1929C28.5804 25.2093 28.6543 25.2281 28.7395 25.2489C29.0474 25.3241 29.5029 25.4251 30.0877 25.5262C31.1921 25.7172 32.7567 25.9087 34.6582 25.9295V19.0388H28.5182V25.1929Z" fill="white"/>
<path d="M28.1777 25.4521V26.2725C28.1777 30.0327 31.2266 33.0955 35 33.0955V26.2725C30.8437 26.2725 28.1777 25.4521 28.1777 25.4521Z" fill="#D80027"/>
<path fill-rule="evenodd" clip-rule="evenodd" d="M28.5182 25.8971V26.2725C28.5182 29.7307 31.2328 32.5679 34.6582 32.7455V26.6119C32.7119 26.591 31.108 26.3951 29.9715 26.1985C29.3703 26.0946 28.8995 25.9904 28.5776 25.9118C28.5572 25.9068 28.5374 25.9019 28.5182 25.8971ZM28.2774 25.1261L28.2782 25.1263L28.2829 25.1277C28.2873 25.1291 28.2943 25.1311 28.3038 25.1339C28.3228 25.1395 28.3519 25.1478 28.3908 25.1586C28.4686 25.1802 28.5856 25.2113 28.7395 25.2489C29.0474 25.3241 29.5029 25.425 30.0877 25.5262C31.2575 25.7285 32.9435 25.9314 34.9993 25.9314H35.3405V33.4366H34.9993C31.037 33.4366 27.8359 30.2207 27.8359 26.2725V24.9902L28.2774 25.1261Z" fill="white"/>
<path d="M35 33.0955C38.7598 33.0955 41.8223 30.0463 41.8223 26.2725V25.4521C41.8223 25.4521 39.1563 26.2725 35 26.2725V33.0955Z" fill="#0052B4"/>
<path fill-rule="evenodd" clip-rule="evenodd" d="M42.1627 24.9902V26.2725C42.1627 30.2352 38.9471 33.4366 34.9993 33.4366V33.0955H34.6582V25.9314H34.9993C37.0552 25.9314 38.7412 25.7285 39.9109 25.5262C40.4957 25.425 40.9513 25.3241 41.2592 25.2489C41.4131 25.2113 41.5301 25.1802 41.6079 25.1586C41.6468 25.1478 41.6759 25.1395 41.6949 25.1339C41.7044 25.1311 41.7113 25.1291 41.7158 25.1277L41.7205 25.1263L41.7213 25.1261L41.7214 25.126L42.1627 24.9902ZM35.3405 32.7455C38.7545 32.568 41.4805 29.7427 41.4805 26.2725V25.8971C41.4613 25.9019 41.4414 25.9068 41.421 25.9118C41.0992 25.9904 40.6284 26.0946 40.0272 26.1985C38.8906 26.3951 37.2868 26.591 35.3405 26.6119V32.7455Z" fill="white"/>
<path d="M35 18.6973V26.2722C39.1563 26.2722 41.8223 25.4518 41.8223 25.4518V18.6973H35Z" fill="#D80027"/>
<path fill-rule="evenodd" clip-rule="evenodd" d="M34.6582 18.3564H42.1627V25.7041L41.9219 25.7782L41.8216 25.4522C41.9219 25.7782 41.9218 25.7783 41.9218 25.7783L41.9209 25.7786L41.9189 25.7792L41.9119 25.7813C41.906 25.7831 41.8975 25.7856 41.8864 25.7888C41.8643 25.7953 41.8321 25.8046 41.7899 25.8162C41.7057 25.8395 41.582 25.8725 41.421 25.9118C41.0992 25.9904 40.6284 26.0946 40.0272 26.1985C38.8249 26.4064 37.0997 26.6137 34.9993 26.6137H34.6582V18.3564ZM41.4805 25.1929V19.0388H35.3405V25.9295C37.242 25.9087 38.8065 25.7172 39.9109 25.5262C40.4957 25.4251 40.9513 25.3241 41.2592 25.2489C41.3444 25.2281 41.4183 25.2093 41.4805 25.1929Z" fill="white"/>
</g>
<defs>
<clipPath id="clip0_3_24620">
<rect width="70" height="46.6666" fill="white" transform="translate(0 0.922852)"/>
</clipPath>
</defs>
</svg>
