<svg width="70" height="48" viewBox="0 0 70 48" fill="none" xmlns="http://www.w3.org/2000/svg">
<g clip-path="url(#clip0_3_24495)">
<path d="M0 0.923828H70V47.5904H0V0.923828Z" fill="#EF3340"/>
<path d="M0 0.923828H70V16.4794H0V0.923828Z" fill="#00B5E2"/>
<path d="M0 32.0352H70V47.5907H0V32.0352Z" fill="#509E2F"/>
<path d="M36.2419 29.9342C33.1035 29.9342 30.5654 27.3962 30.5654 24.2578C30.5654 21.1194 33.1035 18.5814 36.2419 18.5814C37.2243 18.5814 38.1385 18.827 38.9436 19.2637C37.6883 18.0356 35.9553 17.2715 34.0586 17.2715C30.197 17.2715 27.0723 20.3962 27.0723 24.2578C27.0723 28.1194 30.197 31.2442 34.0586 31.2442C35.9553 31.2442 37.6883 30.48 38.9436 29.252C38.1385 29.6886 37.2243 29.9342 36.2419 29.9342Z" fill="white"/>
<path d="M40.6076 20.3281L41.358 22.4431L43.3912 21.4743L42.4224 23.5075L44.5374 24.2579L42.4224 25.0084L43.3912 27.0416L41.358 26.0728L40.6076 28.1878L39.8571 26.0728L37.8239 27.0416L38.7927 25.0084L36.6777 24.2579L38.7927 23.5075L37.8239 21.4743L39.8571 22.4431L40.6076 20.3281Z" fill="white"/>
</g>
<defs>
<clipPath id="clip0_3_24495">
<rect width="70" height="46.6666" fill="white" transform="translate(0 0.923828)"/>
</clipPath>
</defs>
</svg>
