<svg width="70" height="48" viewBox="0 0 70 48" fill="none" xmlns="http://www.w3.org/2000/svg">
<g clip-path="url(#clip0_3_24790)">
<path d="M0 0.921875H70V47.5885H0V0.921875Z" fill="#CE1126"/>
<path d="M35.4043 34.7403C40.2325 34.7403 44.1466 30.8263 44.1466 25.9981C44.1466 21.1699 40.2325 17.2559 35.4043 17.2559C30.5761 17.2559 26.6621 21.1699 26.6621 25.9981C26.6621 30.8263 30.5761 34.7403 35.4043 34.7403Z" fill="#FCD116"/>
<path d="M39.5271 12.3398L35.8404 16.3843L40.2893 17.3954L39.5271 12.3398ZM31.516 12.371L30.7693 17.5198L35.2026 16.2754L31.516 12.371ZM46.1849 16.5243L40.7871 17.8465L43.9137 21.5332L46.1849 16.5243ZM24.6715 16.2443L27.0826 21.3309L30.2249 17.7998L24.6715 16.2443ZM49.4049 23.2909L44.0538 21.7509L44.9249 26.3398L49.4049 23.2909ZM21.0938 22.8865L26.056 25.9665L26.8649 21.6576L21.0938 22.8865Z" fill="#FCD116"/>
<path d="M0 28.1445H70V47.589H0V28.1445Z" fill="#003F87"/>
<path d="M0 42.455C2.33333 42.455 4.66667 44.4772 7 44.4772C9.33333 44.4772 11.6667 42.455 14 42.455C16.3333 42.455 18.6667 44.4772 21 44.4772C23.3333 44.4772 25.6667 42.455 28 42.455C30.3333 42.455 32.6667 44.4772 35 44.4772C37.3333 44.4772 39.6667 42.455 42 42.455C44.3333 42.455 46.6667 44.4772 49 44.4772C51.3333 44.4772 53.6667 42.455 56 42.455C58.3333 42.455 60.6667 44.4772 63 44.4772C65.3333 44.4772 67.6667 42.455 70 42.455V39.1883C67.6667 39.1883 65.3333 41.2105 63 41.2105C60.6667 41.2105 58.3333 39.1883 56 39.1883C53.6667 39.1883 51.3333 41.2105 49 41.2105C46.6667 41.2105 44.3333 39.1883 42 39.1883C39.6667 39.1883 37.3333 41.2105 35 41.2105C32.6667 41.2105 30.3333 39.1883 28 39.1883C25.6667 39.1883 23.3333 41.2105 21 41.2105C18.6667 41.2105 16.3333 39.1883 14 39.1883C11.6667 39.1883 9.33333 41.2105 7 41.2105C4.66667 41.2105 2.33333 39.1883 0 39.1883V42.455ZM0 35.7661C2.33333 35.7661 4.66667 37.7883 7 37.7883C9.33333 37.7883 11.6667 35.7661 14 35.7661C16.3333 35.7661 18.6667 37.7883 21 37.7883C23.3333 37.7883 25.6667 35.7661 28 35.7661C30.3333 35.7661 32.6667 37.7883 35 37.7883C37.3333 37.7883 39.6667 35.7661 42 35.7661C44.3333 35.7661 46.6667 37.7883 49 37.7883C51.3333 37.7883 53.6667 35.7661 56 35.7661C58.3333 35.7661 60.6667 37.7883 63 37.7883C65.3333 37.7883 67.6667 35.7661 70 35.7661V32.4994C67.6667 32.4994 65.3333 34.5216 63 34.5216C60.6667 34.5216 58.3333 32.4994 56 32.4994C53.6667 32.4994 51.3333 34.5216 49 34.5216C46.6667 34.5216 44.3333 32.4994 42 32.4994C39.6667 32.4994 37.3333 34.5216 35 34.5216C32.6667 34.5216 30.3333 32.4994 28 32.4994C25.6667 32.4994 23.3333 34.5216 21 34.5216C18.6667 34.5216 16.3333 32.4994 14 32.4994C11.6667 32.4994 9.33333 34.5216 7 34.5216C4.66667 34.5216 2.33333 32.4994 0 32.4994V35.7661ZM0 29.0772C2.33333 29.0772 4.66667 31.0994 7 31.0994C9.33333 31.0994 11.6667 29.0772 14 29.0772C16.3333 29.0772 18.6667 31.0994 21 31.0994C23.3333 31.0994 25.6667 29.0772 28 29.0772C30.3333 29.0772 32.6667 31.0994 35 31.0994C37.3333 31.0994 39.6667 29.0772 42 29.0772C44.3333 29.0772 46.6667 31.0994 49 31.0994C51.3333 31.0994 53.6667 29.0772 56 29.0772C58.3333 29.0772 60.6667 31.0994 63 31.0994C65.3333 31.0994 67.6667 29.0772 70 29.0772V25.8105C67.6667 25.8105 65.3333 27.8328 63 27.8328C60.6667 27.8328 58.3333 25.8105 56 25.8105C53.6667 25.8105 51.3333 27.8328 49 27.8328C46.6667 27.8328 44.3333 25.8105 42 25.8105C39.6667 25.8105 37.3333 27.8328 35 27.8328C32.6667 27.8328 30.3333 25.8105 28 25.8105C25.6667 25.8105 23.3333 27.8328 21 27.8328C18.6667 27.8328 16.3333 25.8105 14 25.8105C11.6667 25.8105 9.33333 27.8328 7 27.8328C4.66667 27.8328 2.33333 25.8105 0 25.8105V29.0772Z" fill="white"/>
<path fill-rule="evenodd" clip-rule="evenodd" d="M28.4972 8.43585L28.3261 7.61141L31.8105 7.03585C31.8105 7.03585 27.1283 5.93141 25.5883 5.37141C23.3638 4.57808 23.0527 3.48919 23.0527 3.48919C23.0527 3.48919 30.0061 5.2003 33.1327 5.2003C33.8016 5.2003 35.1238 6.86474 35.1238 6.86474C35.1238 6.86474 37.4261 4.54696 38.5305 4.46919C43.5238 4.11141 48.8905 3.47363 48.8905 3.47363C48.8905 3.47363 47.335 4.51585 46.4016 4.79585C43.8816 5.55807 38.5305 6.61585 38.5305 6.61585L37.7838 7.78252H43.0883L40.8483 8.45141L41.9994 9.52474C41.9994 9.52474 40.7861 8.88696 39.1838 9.19807C38.0794 9.40029 36.7883 10.1314 35.6216 10.4425C32.7127 11.1892 30.9705 8.45141 30.9705 8.45141L28.4972 8.43585Z" fill="#FCD116"/>
</g>
<defs>
<clipPath id="clip0_3_24790">
<rect width="70" height="46.6666" fill="white" transform="translate(0 0.921875)"/>
</clipPath>
</defs>
</svg>
