<svg width="70" height="47" viewBox="0 0 70 47" fill="none" xmlns="http://www.w3.org/2000/svg">
<g clip-path="url(#clip0_3_24715)">
<path d="M0 0.255859H70V46.9225H0V0.255859Z" fill="white"/>
<path d="M0 0.255859H23.3333V46.9225H0V0.255859ZM46.6667 0.255859H70V46.9225H46.6667V0.255859Z" fill="#338AF3"/>
<path d="M34.9327 24.9942C36.8543 24.9942 38.4122 23.4364 38.4122 21.5147C38.4122 19.593 36.8543 18.0352 34.9327 18.0352C33.011 18.0352 31.4531 19.593 31.4531 21.5147C31.4531 23.4364 33.011 24.9942 34.9327 24.9942Z" fill="#DCC26D"/>
<path d="M26.5 21.5289C26.5 24.5445 28.1101 27.3281 30.7027 28.8291C31.5078 29.293 32.5448 29.0201 33.0088 28.2151C33.4727 27.41 33.1998 26.373 32.3947 25.909C30.8255 25.0084 29.8704 23.3301 29.8704 21.5289C29.8704 20.601 29.1199 19.8369 28.1784 19.8369C27.2368 19.8369 26.5 20.5874 26.5 21.5289ZM39.4766 28.6381C41.9055 27.0825 43.3791 24.4081 43.3655 21.5289C43.3655 20.601 42.615 19.8369 41.6735 19.8369C40.7456 19.8369 39.9815 20.5874 39.9815 21.5289C39.9815 23.2619 39.0945 24.872 37.6481 25.7999C36.8567 26.2911 36.5975 27.3281 37.0887 28.1196C37.5799 28.911 38.617 29.1702 39.4084 28.679C39.4357 28.6654 39.4493 28.6517 39.4766 28.6381Z" fill="#628A40"/>
</g>
<defs>
<clipPath id="clip0_3_24715">
<rect width="70" height="46.6666" fill="white" transform="translate(0 0.255859)"/>
</clipPath>
</defs>
</svg>
