<svg width="70" height="48" viewBox="0 0 70 48" fill="none" xmlns="http://www.w3.org/2000/svg">
<g clip-path="url(#clip0_3_24935)">
<path d="M0 0.587891H70V47.2545H0V0.587891Z" fill="#0071BC"/>
<path d="M35 44.455C46.598 44.455 56 35.053 56 23.4551C56 11.8571 46.598 2.45508 35 2.45508C23.402 2.45508 14 11.8571 14 23.4551C14 35.053 23.402 44.455 35 44.455Z" fill="white"/>
<path fill-rule="evenodd" clip-rule="evenodd" d="M35.0007 2.58445C23.4743 2.58445 14.1304 11.9284 14.1304 23.4548C14.1304 34.9812 23.4743 44.3251 35.0007 44.3251C46.5271 44.3251 55.8711 34.9812 55.8711 23.4548C55.8711 11.9284 46.5271 2.58445 35.0007 2.58445ZM13.8711 23.4548C13.8711 11.7852 23.3311 2.3252 35.0007 2.3252C46.6703 2.3252 56.1304 11.7852 56.1304 23.4548C56.1304 35.1244 46.6703 44.5844 35.0007 44.5844C23.3311 44.5844 13.8711 35.1244 13.8711 23.4548Z" fill="black"/>
<path d="M35.0016 38.8547C43.5068 38.8547 50.4016 31.9598 50.4016 23.4547C50.4016 14.9495 43.5068 8.05469 35.0016 8.05469C26.4964 8.05469 19.6016 14.9495 19.6016 23.4547C19.6016 31.9598 26.4964 38.8547 35.0016 38.8547Z" fill="#0071BC"/>
<path fill-rule="evenodd" clip-rule="evenodd" d="M35.0003 8.18504C26.5667 8.18504 19.73 15.0218 19.73 23.4554C19.73 31.889 26.5667 38.7257 35.0003 38.7257C43.4339 38.7257 50.2707 31.889 50.2707 23.4554C50.2707 15.0218 43.4339 8.18504 35.0003 8.18504ZM19.4707 23.4554C19.4707 14.8786 26.4236 7.92578 35.0003 7.92578C43.5771 7.92578 50.53 14.8786 50.53 23.4554C50.53 32.0322 43.5771 38.985 35.0003 38.985C26.4236 38.985 19.4707 32.0322 19.4707 23.4554Z" fill="black"/>
<path d="M41.5057 42.5877C41.571 43.6143 40.7777 44.4543 39.751 44.4543H30.203C29.1764 44.4543 28.383 43.6143 28.4297 42.5877L29.9884 12.2544C30.0444 11.2277 30.9217 10.3877 31.9484 10.3877H37.679C38.7057 10.3877 39.5924 11.2277 39.6577 12.2544L41.5057 42.5877Z" fill="#8C8A8C"/>
<path fill-rule="evenodd" clip-rule="evenodd" d="M30.1185 12.2609C30.1185 12.261 30.1185 12.2611 30.1185 12.2612L28.5599 42.5933C28.5599 42.5934 28.5599 42.5935 28.5599 42.5937C28.5168 43.5473 29.2521 44.3244 30.2037 44.3244H39.7517C40.704 44.3244 41.4376 43.5472 41.377 42.5956L41.377 42.5953L39.529 12.2623C39.529 12.2623 39.529 12.2622 39.529 12.2621C39.4679 11.303 38.6372 10.5171 37.6797 10.5171H31.9491C30.9922 10.5171 30.171 11.3022 30.1185 12.2609ZM29.8596 12.247C29.9193 11.1525 30.8527 10.2578 31.9491 10.2578H37.6797C38.7756 10.2578 39.7182 11.1517 39.7878 12.2459L39.7878 12.2462L41.6358 42.5792C41.6358 42.5792 41.6358 42.5793 41.6358 42.5794C41.7058 43.681 40.8528 44.5837 39.7517 44.5837H30.2037C29.1022 44.5837 28.2509 43.6811 28.3009 42.5815L28.301 42.5808H28.301L29.8596 12.2475L29.8596 12.247Z" fill="black"/>
<path d="M34.8143 11.2275L37.6143 19.9075H46.6676L39.3876 25.1342L42.0943 33.7208L34.8143 28.4942L27.5343 33.8142L30.3343 25.1342L22.9609 19.8142H32.0143L34.8143 11.2275Z" fill="white"/>
<path fill-rule="evenodd" clip-rule="evenodd" d="M34.8142 11.0908C34.8734 11.0909 34.9257 11.1291 34.9439 11.1854L37.7134 19.7708H46.6673C46.7266 19.7708 46.7791 19.8091 46.7972 19.8655C46.8154 19.9219 46.7951 19.9835 46.7469 20.0181L39.5472 25.1871L42.2242 33.6796C42.2418 33.7356 42.2216 33.7966 42.174 33.8311C42.1265 33.8656 42.0622 33.8657 42.0144 33.8314L34.8147 28.6624L27.6145 33.9241C27.5668 33.959 27.502 33.9591 27.4541 33.9245C27.4062 33.8899 27.386 33.8283 27.4042 33.772L30.1737 25.1865L22.8808 19.9246C22.8328 19.8899 22.8126 19.8283 22.8308 19.772C22.849 19.7156 22.9015 19.6775 22.9607 19.6775H31.915L34.6843 11.185C34.7026 11.1287 34.7551 11.0907 34.8142 11.0908ZM34.8133 11.6696L32.1437 19.8562C32.1254 19.9124 32.0731 19.9504 32.014 19.9504H23.383L30.4139 25.0233C30.4618 25.0579 30.482 25.1195 30.4639 25.1758L27.7929 33.4557L34.7335 28.3838C34.7811 28.349 34.8457 28.3487 34.8936 28.3831L41.8407 33.3707L39.2572 25.1749C39.2395 25.1187 39.2599 25.0575 39.3078 25.0231L46.2433 20.0437H37.614C37.5548 20.0437 37.5023 20.0055 37.4841 19.9492L34.8133 11.6696Z" fill="black"/>
</g>
<defs>
<clipPath id="clip0_3_24935">
<rect width="70" height="46.6666" fill="white" transform="translate(0 0.587891)"/>
</clipPath>
</defs>
</svg>
