<svg width="70" height="48" viewBox="0 0 70 48" fill="none" xmlns="http://www.w3.org/2000/svg">
<g clip-path="url(#clip0_3_24870)">
<path d="M46.6667 0.587891H0V47.159H70V0.587891H46.6667Z" fill="#DC2339"/>
<path d="M0 0.587891H23.3333V47.2545H0V0.587891Z" fill="#11865D"/>
<path d="M23.334 0.587891H46.6673V47.2545H23.334V0.587891Z" fill="white"/>
<path d="M26.7168 23.9489C26.7168 26.8963 28.286 29.639 30.8513 31.1127C31.6427 31.5766 32.6525 31.3037 33.1164 30.5123C33.5803 29.7208 33.3074 28.7111 32.516 28.2472C30.9741 27.3602 30.0326 25.7228 30.0326 23.9489C30.0326 23.0347 29.2957 22.2979 28.3815 22.2979C27.4673 22.2979 26.7168 23.0347 26.7168 23.9489ZM39.4614 30.9216C41.8494 29.407 43.2821 26.7735 43.2821 23.9489C43.2821 23.0347 42.5453 22.2979 41.631 22.2979C40.7168 22.2979 39.98 23.0347 39.98 23.9489C39.98 25.6409 39.1203 27.2238 37.6876 28.138C36.9098 28.6156 36.6642 29.6253 37.1281 30.4168C37.592 31.2082 38.6154 31.4401 39.4069 30.9762C39.4069 30.9489 39.4341 30.9353 39.4614 30.9216Z" fill="#8C9157"/>
<path d="M34.9994 27.2648C36.8306 27.2648 38.3152 25.041 38.3152 22.2979C38.3152 19.5548 36.8306 17.3311 34.9994 17.3311C33.1681 17.3311 31.6836 19.5548 31.6836 22.2979C31.6836 25.041 33.1681 27.2648 34.9994 27.2648Z" fill="#C59262"/>
</g>
<defs>
<clipPath id="clip0_3_24870">
<rect width="70" height="46.6666" fill="white" transform="translate(0 0.587891)"/>
</clipPath>
</defs>
</svg>
