<svg width="70" height="48" viewBox="0 0 70 48" fill="none" xmlns="http://www.w3.org/2000/svg">
<g clip-path="url(#clip0_3_25150)">
<path d="M0 0.918945H70V47.5846H0V0.918945Z" fill="#FFDA44"/>
<path d="M35 0.919922H70V47.5871H35V0.919922Z" fill="white"/>
<path d="M43.9359 21.2235L48.3209 27.0245C47.63 28.0705 47.6337 29.4801 48.4326 30.5371C49.4462 31.8779 51.3548 32.1432 52.6957 31.1297C54.0365 30.1161 54.3019 28.2075 53.2883 26.8666C52.4894 25.8096 51.1341 25.4217 49.9394 25.8008L43.1051 16.7598L41.4866 17.9833L39.0586 19.8186L41.5057 23.0557L43.9359 21.2235ZM50.2489 27.8926C50.3552 27.8123 50.4762 27.7537 50.6052 27.7201C50.7341 27.6866 50.8684 27.6787 51.0004 27.6971C51.1324 27.7154 51.2594 27.7596 51.3743 27.827C51.4892 27.8945 51.5897 27.9839 51.6701 28.0902C51.7504 28.1965 51.809 28.3176 51.8426 28.4465C51.8762 28.5754 51.884 28.7097 51.8656 28.8417C51.8473 28.9737 51.8031 29.1007 51.7357 29.2156C51.6682 29.3305 51.5788 29.431 51.4725 29.5114C51.2579 29.6737 50.9875 29.744 50.721 29.7069C50.4545 29.6699 50.2136 29.5285 50.0513 29.3138C49.8891 29.0992 49.8187 28.8288 49.8558 28.5623C49.8928 28.2958 50.0342 28.0549 50.2489 27.8926Z" fill="#ACABB1"/>
<path d="M51.457 23.0557L53.9041 19.8186L51.4761 17.9833L49.8576 16.7598L43.0233 25.8008C41.8284 25.4214 40.4734 25.8095 39.6744 26.8666C38.6608 28.2075 38.9261 30.1161 40.2669 31.1297C41.6079 32.1434 43.5165 31.878 44.5301 30.5371C45.3292 29.4801 45.3328 28.0705 44.6418 27.0245L49.0268 21.2235L51.457 23.0557ZM42.9115 29.3134C42.7492 29.5281 42.5083 29.6695 42.2418 29.7065C41.9753 29.7436 41.7049 29.6732 41.4903 29.511C41.2756 29.3487 41.1342 29.1078 41.0972 28.8413C41.0601 28.5748 41.1305 28.3044 41.2927 28.0898C41.3731 27.9835 41.4736 27.8941 41.5885 27.8266C41.7034 27.7592 41.8304 27.715 41.9624 27.6967C42.0944 27.6783 42.2287 27.6862 42.3576 27.7197C42.4866 27.7533 42.6076 27.8119 42.7139 27.8922C42.8202 27.9726 42.9096 28.0731 42.9771 28.188C43.0445 28.3029 43.0887 28.4299 43.107 28.5619C43.1254 28.6939 43.1176 28.8282 43.084 28.9571C43.0505 29.0861 42.9918 29.2071 42.9115 29.3134Z" fill="#FFDA44"/>
</g>
<defs>
<clipPath id="clip0_3_25150">
<rect width="70" height="46.6666" fill="white" transform="translate(0 0.919922)"/>
</clipPath>
</defs>
</svg>
