<svg width="70" height="48" viewBox="0 0 70 48" fill="none" xmlns="http://www.w3.org/2000/svg">
<g clip-path="url(#clip0_3_24675)">
<path d="M0 0.9375H70V47.6041H0V0.9375Z" fill="white"/>
<path d="M30.4889 19.5895H0V28.9228H30.4889V47.5895H39.8222V28.9228H70.3111V19.5895H39.8222V0.922852H30.4889V19.5895Z" fill="#EB000E"/>
<path d="M53.8226 9.32317L53.2003 5.58984H56.3115L55.6892 9.32317L59.4226 8.70095V11.8121L55.6892 11.1898L56.3115 14.9232H53.2003L53.8226 11.1898L50.0892 11.8121V8.70095L53.8226 9.32317ZM14.3115 9.32317L13.6892 5.58984H16.8003L16.1781 9.32317L19.9115 8.70095V11.8121L16.1781 11.1898L16.8003 14.9232H13.6892L14.3115 11.1898L10.5781 11.8121V8.70095L14.3115 9.32317ZM14.3115 37.3231L13.6892 33.5898H16.8003L16.1781 37.3231L19.9115 36.7009V39.812L16.1781 39.1898L16.8003 42.9231H13.6892L14.3115 39.1898L10.5781 39.812V36.7009L14.3115 37.3231ZM53.8226 37.3231L53.2003 33.5898H56.3115L55.6892 37.3231L59.4226 36.7009V39.812L55.6892 39.1898L56.3115 42.9231H53.2003L53.8226 39.1898L50.0892 39.812V36.7009L53.8226 37.3231Z" fill="#EB000E"/>
</g>
<defs>
<clipPath id="clip0_3_24675">
<rect width="70" height="46.6666" fill="white" transform="translate(0 0.922852)"/>
</clipPath>
</defs>
</svg>
