<svg width="70" height="48" viewBox="0 0 70 48" fill="none" xmlns="http://www.w3.org/2000/svg">
<g clip-path="url(#clip0_3_25050)">
<path d="M0 0.587891H70V47.2535H0V0.587891Z" fill="white"/>
<path d="M0 15.8047H70V32.0355H0V15.8047Z" fill="#0052B4"/>
<path d="M0 32.0361H70V47.2535H0V32.0361Z" fill="#D80027"/>
<path d="M17.7012 13.7754V25.4151C17.7012 32.0362 26.351 34.0649 26.351 34.0649C26.351 34.0649 35.0005 32.036 35.0005 25.4151V13.7754H17.7012Z" fill="white"/>
<path d="M19.9785 14.1172V25.3201C19.9785 26.0682 20.1446 26.7747 20.4738 27.4372H32.2276C32.5568 26.7749 32.7229 26.0683 32.7229 25.3201V14.1172H19.9785Z" fill="#D80027"/>
<path d="M30.2566 21.9277H27.3274V19.975H29.2803V18.0222H27.3274V16.0693H25.3746V18.0222H23.422V19.975H25.3746V21.9277H22.4453V23.8806H25.3746V25.8334H27.3274V23.8806H30.2566V21.9277Z" fill="white"/>
<path d="M23.1379 30.1628C24.3962 30.9534 25.6891 31.4128 26.3511 31.6169C27.013 31.4127 28.3059 30.9536 29.5642 30.1628C30.8332 29.3653 31.723 28.453 32.228 27.4368C31.652 27.0283 30.963 26.8093 30.2568 26.8102C29.9894 26.8102 29.7296 26.8419 29.48 26.9C28.9508 25.6974 27.7494 24.8574 26.3513 24.8574C24.9531 24.8574 23.7519 25.6974 23.2227 26.9C22.968 26.8405 22.7073 26.8104 22.4458 26.8102C21.7396 26.8094 21.0507 27.0283 20.4746 27.4368C20.9792 28.453 21.8689 29.3653 23.1379 30.1628Z" fill="#0052B4"/>
</g>
<defs>
<clipPath id="clip0_3_25050">
<rect width="70" height="46.6666" fill="white" transform="translate(0 0.586914)"/>
</clipPath>
</defs>
</svg>
