<svg width="70" height="47" viewBox="0 0 70 47" fill="none" xmlns="http://www.w3.org/2000/svg">
<g clip-path="url(#clip0_3_24845)">
<path d="M0 0.255859H70V46.9225H0V0.255859Z" fill="white"/>
<path d="M0 0.255859H70V3.58529H0V0.255859ZM0 6.92837H70V10.2578H0V6.92837ZM0 13.5872H70V16.9167H0V13.5872ZM0 20.2597H70V23.5892H0V20.2597ZM0 26.9186H70V30.248H0V26.9186ZM0 33.5911H70V36.9205H0V33.5911ZM0 40.25H70V43.5794H0V40.25Z" fill="#CC0000"/>
<path d="M0 0.255859H35V26.9186H0V0.255859Z" fill="#000066"/>
<path d="M20.918 6.00025C16.7289 4.4447 12.0759 6.57335 10.5203 10.7624C8.96479 14.9515 11.0934 19.6045 15.2825 21.1601C17.0973 21.8423 19.1032 21.8423 20.9316 21.1601C16.7426 24.5032 10.6431 23.8345 7.28642 19.6455C3.9297 15.4564 4.61196 9.35698 8.80104 6.00025C12.3488 3.1757 17.3839 3.1757 20.918 6.00025ZM24.5613 16.2342L21.7504 19.4135L22.4872 15.2381L18.2572 15.0197L21.9823 12.9866L19.5125 9.53436L23.4151 11.1718L24.5613 7.09187L25.7075 11.1718L29.61 9.53436L27.1539 13.0002L30.879 15.0334L26.649 15.2517L27.3858 19.4271L24.5613 16.2342Z" fill="#FFCC00"/>
</g>
<defs>
<clipPath id="clip0_3_24845">
<rect width="70" height="46.6666" fill="white" transform="translate(0 0.255859)"/>
</clipPath>
</defs>
</svg>
