<svg width="70" height="47" viewBox="0 0 70 47" fill="none" xmlns="http://www.w3.org/2000/svg">
<g clip-path="url(#clip0_3_24830)">
<path d="M0 0.255859H70V46.923H0V0.255859Z" fill="#00745A"/>
<path d="M39.058 22.6153C38.4851 22.6153 37.9415 22.7296 37.4364 22.9112C37.713 22.2947 37.8983 21.6087 37.8983 20.8761C37.8983 17.9775 34.9998 15.8037 34.9998 15.8037C34.9998 15.8037 32.1012 17.9777 32.1012 20.8761C32.1012 21.6085 32.2866 22.2946 32.5632 22.9112C32.0583 22.7296 31.5144 22.6153 30.9415 22.6153C28.043 22.6153 25.8691 25.5139 25.8691 25.5139C25.8691 25.5139 28.0431 28.4125 30.9415 28.4125C32.6408 28.4125 34.0903 27.4163 34.9996 26.592C35.9088 27.4165 37.3582 28.4125 39.0577 28.4125C41.9563 28.4125 44.1301 25.5139 44.1301 25.5139C44.1301 25.5139 41.9564 22.6153 39.058 22.6153Z" fill="white"/>
<path d="M34.9993 9.38574L35.5982 11.2282H37.5356L35.9683 12.3673L36.5665 14.2097L34.9993 13.0709L33.4321 14.2097L34.0304 12.3673L32.4631 11.2282H34.4005L34.9993 9.38574ZM27.6318 12.6085L28.7837 13.6455L30.126 12.8707L29.4957 14.2864L30.6473 15.3238L29.1059 15.1618L28.4755 16.5776L28.1531 15.0616L26.6116 14.8996L27.9539 14.1246L27.6318 12.6085ZM22.2383 18.0019L23.7545 18.3243L24.5294 16.982L24.6916 18.5233L26.2076 18.8457L24.7916 19.476L24.9538 21.0174L23.9165 19.8658L22.5005 20.4961L23.2756 19.1538L22.2383 18.0019ZM42.367 12.6085L41.2151 13.6455L39.8728 12.8707L40.5032 14.2864L39.3514 15.3238L40.8929 15.1618L41.5231 16.5776L41.8457 15.0616L43.3872 14.8996L42.0449 14.1246L42.367 12.6085ZM47.7604 18.0019L46.2443 18.3243L45.4693 16.982L45.3071 18.5233L43.7912 18.8457L45.2072 19.476L45.0452 21.0174L46.0823 19.8658L47.4983 20.4961L46.7232 19.1538L47.7604 18.0019Z" fill="#FFDA44"/>
<path d="M34.9992 36.5284C37.3016 36.5284 39.4239 35.7602 41.1264 34.4676H28.8723C30.5746 35.7602 32.6969 36.5284 34.9992 36.5284ZM25.6992 30.4414C26.0199 31.1736 26.426 31.8654 26.9092 32.5022H43.0892C43.5723 31.8654 43.9785 31.1736 44.2991 30.4414H25.6992Z" fill="white"/>
</g>
<defs>
<clipPath id="clip0_3_24830">
<rect width="70" height="46.6666" fill="white" transform="translate(0 0.255859)"/>
</clipPath>
</defs>
</svg>
