<svg width="70" height="47" viewBox="0 0 70 47" fill="none" xmlns="http://www.w3.org/2000/svg">
<g clip-path="url(#clip0_3_24895)">
<path d="M0 0.255859V46.9215H70V0.255859H0Z" fill="#D80027"/>
<path d="M48.125 19.5532H38.0985L35 10.0176L31.9015 19.5534H21.875L29.9867 25.447L26.8882 34.983L35 29.089L43.1118 34.9826L40.0133 25.4466L48.125 19.5532ZM32.257 24.709L33.3047 21.4845H36.6953L37.743 24.709V24.7091L35 26.7019L32.257 24.709ZM36.0678 19.5532H33.9324L35 16.2669L36.0678 19.5532ZM39.3858 23.5155L38.7259 21.4845H42.1813L39.3858 23.5155ZM31.2741 21.4845L30.6142 23.5155L27.8187 21.4845H31.2741ZM30.5617 29.9266L31.6295 26.6404L33.357 27.8956L30.5617 29.9266ZM36.6428 27.8955L38.3704 26.6403L39.4382 29.9264L36.6428 27.8955Z" fill="#20661B"/>
</g>
<defs>
<clipPath id="clip0_3_24895">
<rect width="70" height="46.6666" fill="white" transform="translate(0 0.254883)"/>
</clipPath>
</defs>
</svg>
