<svg width="70" height="47" viewBox="0 0 70 47" fill="none" xmlns="http://www.w3.org/2000/svg">
<g clip-path="url(#clip0_3_24540)">
<path d="M0 0.255859H70V46.9225H0V0.255859Z" fill="#FFDA44"/>
<path d="M0 26.7437L70 44.1331V29.5492L0 13.5283V26.7437Z" fill="black"/>
<path d="M70 32.2835V20.4339L0 3.0459V14.8954" fill="white"/>
<path d="M41.8898 18.5769C42.4361 19.5852 42.7213 20.7141 42.7197 21.8609C42.7197 24.8072 40.8727 27.3215 38.2736 28.3127V20.1765C39.0529 20.0138 39.6408 19.3056 39.6408 18.4552C40.5842 18.4552 41.3498 17.669 41.3498 16.6983H41.2924C42.2357 16.6983 43.0574 15.9122 43.0574 14.9415H38.2736V10.725L36.2242 6.93652L34.1734 10.725V14.9415H29.3896C29.3896 15.9122 30.2113 16.6983 31.1547 16.6983H31.0973C31.0973 17.669 31.8629 18.4552 32.8063 18.4552C32.8063 19.3056 33.3928 20.0138 34.1721 20.1765V28.567C31.152 27.8301 28.9111 25.108 28.9111 21.8609C28.9111 20.6714 29.2119 19.553 29.741 18.5769C28.2426 20.1095 27.3184 22.204 27.3184 24.516C27.3184 29.2082 31.1219 33.0131 35.8154 33.0131C40.509 33.0131 44.3125 29.2082 44.3125 24.516C44.3125 22.204 43.3869 20.1081 41.8898 18.5769Z" fill="#D80027"/>
<path fill-rule="evenodd" clip-rule="evenodd" d="M36.2239 6.50684L38.4779 10.6736V14.7372H43.2617V14.9419C43.2617 15.9406 42.4879 16.76 41.5454 16.8864C41.4594 17.8123 40.744 18.556 39.8358 18.6502C39.7588 19.4502 39.212 20.1117 38.4779 20.3355V28.0087C40.8532 26.9782 42.5146 24.6138 42.5146 21.8613V21.861C42.5162 20.7484 42.2394 19.653 41.7095 18.6747L41.8894 18.5772L42.0358 18.4342C43.5686 20.002 44.5168 22.1487 44.5168 24.5164C44.5168 29.3216 40.6216 33.2182 35.815 33.2182C31.0084 33.2182 27.1133 29.3216 27.1133 24.5164C27.1133 22.1487 28.06 20.0034 29.5943 18.4341L30.6192 17.3859L29.9206 18.6748C29.4073 19.6218 29.1154 20.7067 29.1154 21.8613C29.1154 24.9204 31.1652 27.4997 33.967 28.3014V20.3355C33.2329 20.1116 32.6873 19.4501 32.6105 18.6502C31.7022 18.556 30.9868 17.8123 30.9009 16.8864C29.9584 16.76 29.1846 15.9406 29.1846 14.9419V14.7372H33.9684V10.6736L36.2239 6.50684ZM31.1543 16.494V16.6987H31.3015C31.3015 17.5617 31.9808 18.2509 32.8059 18.2509H33.0105V18.4556C33.0105 19.211 33.531 19.834 34.2135 19.9765L34.3763 20.0105V28.828L34.1232 28.7662C31.0135 28.0075 28.7061 25.2049 28.7061 21.8613C28.7061 21.131 28.8162 20.4265 29.0208 19.7635C28.0767 21.1096 27.5226 22.7477 27.5226 24.5164C27.5226 29.0956 31.2345 32.8088 35.815 32.8088C40.3955 32.8088 44.1074 29.0956 44.1074 24.5164C44.1074 22.7479 43.5526 21.1091 42.609 19.7634C42.818 20.4405 42.925 21.1477 42.924 21.8615C42.9239 24.8955 41.0217 27.4839 38.3462 28.5043L38.0686 28.6102V20.0105L38.2314 19.9765C38.9142 19.834 39.4357 19.2108 39.4357 18.4556V18.2509H39.6404C40.4655 18.2509 41.1447 17.5617 41.1447 16.6987H41.292V16.494C42.0579 16.494 42.7337 15.9049 42.8383 15.1465H38.0686V10.7772L36.2238 7.36697L34.3777 10.7773V15.1465H29.608C29.7126 15.9049 30.3883 16.494 31.1543 16.494Z" fill="#231F20"/>
<path d="M27.1336 31.265C27.1336 31.265 29.9623 35.0535 36.2254 35.0535C42.4885 35.0535 45.3172 31.265 45.3172 31.265L47.1588 35.1437C47.1588 35.1437 44.2836 38.9322 36.2254 38.9322C28.1672 38.9322 25.292 35.1437 25.292 35.1437L27.1336 31.265ZM17.6699 18.4639H20.5246L23.933 22.1909V32.2329H20.34V22.8854L17.6699 18.4639ZM54.6879 18.4639H51.8332L48.4248 22.1909V32.2329H52.0164V22.8854L54.6879 18.4639Z" fill="#D80027"/>
<path fill-rule="evenodd" clip-rule="evenodd" d="M17.3066 18.2588H20.6142L24.1371 22.111V32.4372H20.1348V22.942L17.3066 18.2588ZM18.0321 18.6681L20.5441 22.828V32.0279H23.7278V22.2699L20.4339 18.6681H18.0321ZM51.7424 18.2588H55.0501L52.2205 22.942V32.4372H48.2196V22.111L51.7424 18.2588ZM51.9228 18.6681L48.6289 22.2699V32.0279H51.8111V22.828L54.3245 18.6681H51.9228ZM45.3558 30.8699L47.3965 35.1679L47.3213 35.267L47.1582 35.1433C47.3213 35.267 47.3212 35.2672 47.3211 35.2673L47.3208 35.2676L47.3201 35.2686L47.3178 35.2715C47.316 35.2739 47.3134 35.2772 47.3101 35.2814C47.3035 35.2897 47.294 35.3015 47.2815 35.3166C47.2565 35.3467 47.2196 35.3897 47.1702 35.4439C47.0715 35.5523 46.9229 35.7051 46.7198 35.8875C46.3136 36.2524 45.6897 36.7353 44.8118 37.217C43.0548 38.1811 40.2875 39.1365 36.2248 39.1365C32.1621 39.1365 29.3948 38.1811 27.6378 37.217C26.76 36.7353 26.136 36.2524 25.7298 35.8875C25.5267 35.7051 25.3781 35.5523 25.2794 35.4439C25.23 35.3897 25.1931 35.3467 25.1682 35.3166C25.1557 35.3015 25.1462 35.2897 25.1396 35.2814C25.1376 35.2789 25.1359 35.2767 25.1344 35.2749C25.1334 35.2736 25.1326 35.2725 25.1318 35.2715L25.1296 35.2686L25.1288 35.2676L25.1286 35.2673C25.1285 35.2672 25.1284 35.267 25.2914 35.1433L25.1284 35.267L25.0532 35.1679L26.9481 31.1768L27.133 31.2646C27.297 31.1421 27.297 31.142 27.2969 31.142L27.297 31.1421L27.2981 31.1435C27.2986 31.1442 27.2994 31.1452 27.3003 31.1464C27.3011 31.1475 27.3021 31.1488 27.3032 31.1502C27.3062 31.154 27.3102 31.1592 27.3153 31.1656C27.3184 31.1696 27.322 31.1741 27.326 31.1791C27.3467 31.2049 27.3786 31.2437 27.4216 31.2935C27.5078 31.3931 27.6388 31.5369 27.816 31.7102C28.1704 32.0569 28.7087 32.5212 29.4401 32.9861C30.9016 33.9151 33.137 34.8484 36.2248 34.8484C39.3127 34.8484 41.548 33.9151 43.0096 32.9861C43.741 32.5212 44.2793 32.0569 44.6336 31.7102C44.8108 31.5369 44.9419 31.3931 45.028 31.2935C45.0711 31.2437 45.1029 31.2049 45.1236 31.1791C45.134 31.1661 45.1416 31.1565 45.1464 31.1502C45.1488 31.1471 45.1505 31.1448 45.1516 31.1435L45.1526 31.1421L45.1527 31.142L45.3558 30.8699ZM45.2683 31.64C45.1801 31.7384 45.0642 31.8617 44.9199 32.0028C44.5482 32.3665 43.9878 32.8493 43.2292 33.3316C41.7106 34.2968 39.4001 35.2577 36.2248 35.2577C33.0496 35.2577 30.739 34.2968 29.2205 33.3316C28.4618 32.8493 27.9015 32.3665 27.5297 32.0028C27.3855 31.8617 27.2695 31.7384 27.1813 31.64L25.5325 35.1128C25.5469 35.1293 25.5634 35.1478 25.582 35.1683C25.672 35.2671 25.811 35.4102 26.0033 35.583C26.388 35.9285 26.9865 36.3927 27.8348 36.8581C29.5299 37.7883 32.2293 38.7271 36.2248 38.7271C40.2203 38.7271 42.9197 37.7883 44.6149 36.8581C45.4631 36.3927 46.0616 35.9285 46.4463 35.583C46.6387 35.4102 46.7776 35.2671 46.8676 35.1683C46.8862 35.1478 46.9027 35.1293 46.9172 35.1128L45.2683 31.64Z" fill="#231F20"/>
</g>
<defs>
<clipPath id="clip0_3_24540">
<rect width="70" height="46.6666" fill="white" transform="translate(0 0.255859)"/>
</clipPath>
</defs>
</svg>
