<svg width="70" height="48" viewBox="0 0 70 48" fill="none" xmlns="http://www.w3.org/2000/svg">
<g clip-path="url(#clip0_3_24975)">
<path d="M0 0.921875H70V47.5875H0V0.921875Z" fill="white"/>
<path d="M70 0.921875V24.2547H35L0 0.921875H70Z" fill="#0052B4"/>
<path d="M70 24.2549V47.5877H0L35 24.2549H70Z" fill="#D80027"/>
<path d="M22.1368 24.2539L18.406 22.4991L20.3928 18.8859L16.3416 19.6609L15.8282 15.5685L13.0063 18.5783L10.1846 15.5685L9.67121 19.6609L5.6201 18.8858L7.60676 22.499L3.87598 24.2539L7.60676 26.0087L5.6201 29.6219L9.67148 28.847L10.1846 32.9394L13.0063 29.9295L15.8282 32.9394L16.3416 28.847L20.3927 29.6221L18.4059 26.009L22.1368 24.2539ZM2.97992 5.33301L4.22146 7.06879L6.2557 6.4243L4.98859 8.14148L6.23014 9.87699L4.20547 9.20269L2.93836 10.9197L2.95436 8.78584L0.929688 8.11127L2.96406 7.46705L2.97992 5.33301ZM2.97992 37.5881L4.22146 39.3239L6.2557 38.6794L4.98859 40.3966L6.23014 42.1322L4.20547 41.4578L2.93836 43.1747L2.95436 41.0409L0.929688 40.3664L2.96406 39.7221L2.97992 37.5881ZM28.7659 21.4606L27.5244 23.1963L25.4901 22.5519L26.7572 24.269L25.5157 26.0047L27.5404 25.3303L28.8075 27.0472L28.7915 24.9135L30.8161 24.2389L28.7818 23.5945L28.7659 21.4606Z" fill="#FFDA44"/>
</g>
<defs>
<clipPath id="clip0_3_24975">
<rect width="70" height="46.6666" fill="white" transform="translate(0 0.920898)"/>
</clipPath>
</defs>
</svg>
