<svg width="70" height="47" viewBox="0 0 70 47" fill="none" xmlns="http://www.w3.org/2000/svg">
<g clip-path="url(#clip0_3_24535)">
<path d="M0 0.255859H70V46.9225H0V0.255859Z" fill="#009B3A"/>
<path d="M34.9998 2.88965L62.9589 23.5485L34.9998 44.1937L6.9043 23.5485L34.9998 2.88965Z" fill="#FEDF00"/>
<path d="M35.0001 34.5597C41.059 34.5597 45.9708 29.6479 45.9708 23.5889C45.9708 17.5299 41.059 12.6182 35.0001 12.6182C28.9411 12.6182 24.0293 17.5299 24.0293 23.5889C24.0293 29.6479 28.9411 34.5597 35.0001 34.5597Z" fill="white"/>
<path d="M29.46 22.8656C27.5633 22.8656 25.7212 23.1522 23.9883 23.6843C24.0702 29.6746 28.9415 34.505 34.9454 34.505C38.6569 34.505 41.9454 32.6492 43.924 29.8247C40.5263 25.5947 35.3002 22.8656 29.46 22.8656ZM45.6978 25.6356C45.8206 24.9533 45.9025 24.2574 45.9025 23.5342C45.9025 17.4758 40.9902 12.5635 34.9318 12.5635C30.4152 12.5635 26.5399 15.3062 24.8479 19.195C26.3353 18.8949 27.8635 18.7311 29.4327 18.7311C35.8187 18.7448 41.577 21.3919 45.6978 25.6356Z" fill="#002776"/>
</g>
<defs>
<clipPath id="clip0_3_24535">
<rect width="70" height="46.6666" fill="white" transform="translate(0 0.255859)"/>
</clipPath>
</defs>
</svg>
