<svg width="70" height="48" viewBox="0 0 70 48" fill="none" xmlns="http://www.w3.org/2000/svg">
<g clip-path="url(#clip0_3_24625)">
<path d="M0 0.922852H70V47.5895H0V0.922852Z" fill="#FFDA44"/>
<path d="M0 24.2627H70V35.9259H0V24.2627Z" fill="#0052B4"/>
<path d="M0 35.9258H70V47.589H0V35.9258Z" fill="#D80027"/>
<path d="M35 32.3844C39.4852 32.3844 43.1211 28.7481 43.1211 24.2625C43.1211 19.7769 39.4852 16.1406 35 16.1406C30.5148 16.1406 26.8789 19.7769 26.8789 24.2625C26.8789 28.7481 30.5148 32.3844 35 32.3844Z" fill="#FFDA44"/>
<path d="M50.4766 11.8481C50.4766 11.8481 46.7578 9.96119 45.8418 9.66038C44.9258 9.35957 39.1289 7.85552 39.1289 8.70325C39.1289 10.1116 37.2832 10.344 37.0098 10.344C36.7363 10.344 36.7363 9.61936 34.9863 9.61936C33.2363 9.61936 33.1133 10.2757 32.8262 10.2757C32.5254 10.2757 30.8438 10.1389 30.8438 8.70325C30.8438 7.99225 24.9785 9.25018 24.1309 9.66038C23.2969 10.0842 19.4961 11.8481 19.4961 11.8481C19.4961 11.8481 25.7578 12.2173 26.8652 12.6958C27.9727 13.1744 32.8535 14.9519 32.8535 14.9519L32.4707 16.7704H37.6387L37.1191 14.9519C37.1191 14.9519 41.918 13.2154 43.1074 12.6958C44.2969 12.1762 50.4766 11.8481 50.4766 11.8481Z" fill="#4C1F00"/>
<path d="M29.7637 24.3996C29.7637 27.2846 32.1152 29.6364 35 29.6364C37.8848 29.6364 40.2363 27.2846 40.2363 24.3996V22.8271H29.7773V24.3996H29.7637Z" fill="#57BA17"/>
<path d="M35 16.0312C32.1152 16.0312 29.7637 18.383 29.7637 21.2681V22.8405H40.2227V21.2681C40.2363 18.383 37.8848 16.0312 35 16.0312Z" fill="#338AF3"/>
</g>
<defs>
<clipPath id="clip0_3_24625">
<rect width="70" height="46.6666" fill="white" transform="translate(0 0.922852)"/>
</clipPath>
</defs>
</svg>
