<svg width="70" height="47" viewBox="0 0 70 47" fill="none" xmlns="http://www.w3.org/2000/svg">
<g clip-path="url(#clip0_3_24710)">
<path d="M0 0.255859H69.8635V46.827H0V0.255859Z" fill="#D80027"/>
<path d="M1.51367 1.77051H68.3343V45.3124H1.51367V1.77051Z" fill="#0052B4"/>
<path d="M34.9328 39.1859C34.9328 39.1859 45.3577 32.1859 45.3577 23.5485C45.3577 14.9111 34.9328 7.89746 34.9328 7.89746C34.9328 7.89746 24.5078 14.8975 24.5078 23.5349C24.5078 32.1723 34.9328 39.1859 34.9328 39.1859Z" fill="#7DBEF1"/>
<path d="M24.5332 24.9131H45.3558L41.3578 33.7688H28.3675L24.5332 24.9131Z" fill="#1C8AE6"/>
<path d="M26.2402 28.3516C26.2402 28.3516 31.7665 33.564 33.1993 33.564C34.8913 33.564 34.9186 31.0533 36.6788 30.0845C39.4352 28.5699 43.6379 28.3516 43.6379 28.3516L40.5268 34.1917L34.9322 39.1859L28.5463 33.7687L26.2402 28.3516Z" fill="#FFF042"/>
<path d="M34.9317 21.7465L31.8615 23.8751L32.9395 20.3001L29.9648 18.0486L33.7036 17.9804L34.9317 14.4463L36.1598 17.9804L39.8986 18.0486L36.9239 20.3137L38.0019 23.8888L34.9317 21.7465Z" fill="#259C7B"/>
<path d="M34.0722 19.987C33.9494 21.2424 33.8675 22.4977 33.8402 23.7531C33.7993 25.3769 33.8811 26.5777 34.1131 27.3009C34.4133 28.2014 35.0956 29.0611 36.0507 29.8798C36.7739 30.5075 37.4971 30.9851 37.9883 31.258C38.4113 31.4899 38.9435 31.3398 39.1755 30.9305C39.4074 30.5075 39.2573 29.9753 38.848 29.7433C38.2612 29.4022 37.7018 29.0065 37.1833 28.5562C36.4464 27.9285 35.9416 27.3009 35.7642 26.7414C35.6141 26.2775 35.5458 25.1995 35.5731 23.7804C35.6004 22.566 35.6823 21.3515 35.8051 20.1508C35.8597 19.6732 35.5049 19.2502 35.0273 19.1956C34.5361 19.1547 34.1131 19.5094 34.0722 19.987Z" fill="#8E5715"/>
<path d="M29.7188 23.5479L33.1983 28.7603H29.7188V23.5479Z" fill="white"/>
<path fill-rule="evenodd" clip-rule="evenodd" d="M35.3882 7.21732L34.9312 7.89661L34.4748 7.21691L34.9316 6.91016L35.3882 7.21732ZM34.9312 39.1851C34.4742 39.8644 34.4739 39.8642 34.4737 39.864L34.4707 39.8621L34.4635 39.8572C34.4575 39.8531 34.449 39.8473 34.4381 39.8398C34.4231 39.8295 34.4036 39.8161 34.3798 39.7995C34.3689 39.7919 34.3571 39.7837 34.3444 39.7748C34.2636 39.7182 34.147 39.6354 33.9997 39.5275C33.705 39.3118 33.287 38.9959 32.7866 38.5902C31.7872 37.7798 30.4529 36.606 29.1162 35.1529C26.4695 32.2759 23.6875 28.1679 23.6875 23.534C23.6875 18.8999 26.4697 14.7953 29.1165 11.9216C30.4533 10.4702 31.7877 9.29811 32.7871 8.48899C33.2875 8.08392 33.7055 7.7685 34.0002 7.5532C34.1476 7.44552 34.2642 7.36279 34.345 7.30633C34.3854 7.27809 34.4168 7.25642 34.4387 7.24146C34.4496 7.23398 34.4581 7.22818 34.4641 7.22408L34.4713 7.21921L34.4743 7.21724C34.4745 7.21706 34.4748 7.21691 34.9312 7.89661C35.3882 7.21732 35.3884 7.21748 35.3887 7.21766L35.3894 7.21815L35.3916 7.21963L35.3988 7.22451C35.4048 7.22861 35.4134 7.23442 35.4243 7.24191C35.4461 7.25689 35.4775 7.27861 35.5179 7.30689C35.5987 7.36346 35.7153 7.44633 35.8627 7.5542C36.1573 7.76987 36.5754 8.08582 37.0757 8.49153C38.0751 9.30193 39.4094 10.4757 40.7462 11.9288C43.3928 14.8058 46.1748 18.9138 46.1748 23.5477C46.1748 28.1817 43.3926 32.2864 40.7458 35.1601C39.409 36.6115 38.0747 37.7836 37.0752 38.5927C36.5748 38.9978 36.1568 39.3132 35.8621 39.5285C35.7147 39.6362 35.5981 39.7189 35.5173 39.7754C35.4769 39.8036 35.4455 39.8253 35.4237 39.8402C35.4127 39.8477 35.4042 39.8535 35.3982 39.8576L35.391 39.8625L35.3888 39.8639L35.3881 39.8644C35.3878 39.8646 35.3876 39.8648 34.9312 39.1851ZM34.9312 39.1851L34.4742 39.8644L34.9307 40.1715L35.3876 39.8648L34.9312 39.1851ZM34.9316 38.1804C35.2051 37.9797 35.5881 37.6899 36.0449 37.32C37.0001 36.5467 38.2721 35.429 39.5414 34.0508C42.1071 31.2651 44.5374 27.551 44.5374 23.5477C44.5374 19.5441 42.107 15.8266 39.5411 13.0374C38.2717 11.6575 36.9997 10.538 36.0444 9.76337C35.5874 9.39277 35.2043 9.10232 34.9307 8.9013C34.6572 9.10194 34.2743 9.39179 33.8174 9.76165C32.8622 10.5349 31.5903 11.6527 30.3209 13.0309C27.7552 15.8166 25.3249 19.5307 25.3249 23.534C25.3249 27.5375 27.7554 31.2551 30.3212 34.0443C31.5907 35.4242 32.8627 36.5437 33.8179 37.3183C34.275 37.6889 34.658 37.9794 34.9316 38.1804Z" fill="#D80027"/>
</g>
<defs>
<clipPath id="clip0_3_24710">
<rect width="70" height="46.6666" fill="white" transform="translate(0 0.255859)"/>
</clipPath>
</defs>
</svg>
