<svg width="70" height="48" viewBox="0 0 70 48" fill="none" xmlns="http://www.w3.org/2000/svg">
<g clip-path="url(#clip0_3_24815)">
<path d="M0 0.588867H70V47.2555H0V0.588867Z" fill="#D80027"/>
<path d="M0 0.588867H70V23.9222H0V0.588867Z" fill="#0052B4"/>
<path d="M20.3715 13.9745C20.3715 12.0642 18.8296 10.5223 16.9192 10.5223C16.0323 10.5223 15.2272 10.8497 14.6132 11.3956V9.37607H15.7594V7.07003H14.6132V5.92383H12.3208V7.07003H11.1746V9.37607H12.3208V11.4092C11.7068 10.8634 10.9017 10.5359 10.0147 10.5359C8.10441 10.5359 6.5625 12.0778 6.5625 13.9881C6.5625 15.0115 7.01279 15.9258 7.7087 16.5534V18.5866H19.2116V16.5534C19.9348 15.9121 20.3715 14.9842 20.3715 13.9745Z" fill="#FFDA44"/>
</g>
<defs>
<clipPath id="clip0_3_24815">
<rect width="70" height="46.6666" fill="white" transform="translate(0 0.588867)"/>
</clipPath>
</defs>
</svg>
