<svg width="70" height="48" viewBox="0 0 70 48" fill="none" xmlns="http://www.w3.org/2000/svg">
<g clip-path="url(#clip0_3_24800)">
<path d="M0 0.921875H70.1367V47.5885H0V0.921875Z" fill="#D80027"/>
<path d="M35 47.5066C47.8892 47.5066 58.3379 37.0783 58.3379 24.2142C58.3379 11.3502 47.8892 0.921875 35 0.921875C22.1108 0.921875 11.6621 11.3502 11.6621 24.2142C11.6621 37.0783 22.1108 47.5066 35 47.5066Z" fill="#D80027"/>
<path d="M52.2812 24.214L45.2266 27.5298L48.9863 34.3524L41.3164 32.8924L40.3457 40.6156L35 34.9255L29.6543 40.6156L28.6836 32.8924L21.0137 34.3524L24.7734 27.5298L17.7188 24.214L24.7734 20.8982L21.0137 14.062L28.6836 15.5357L29.6543 7.79883L35 13.4889L40.3457 7.79883L41.3164 15.5357L48.9863 14.062L45.2266 20.8982L52.2812 24.214Z" fill="#FFDA44"/>
<path d="M35.1914 33.9843C40.5978 33.9843 44.9805 29.6101 44.9805 24.2143C44.9805 18.8185 40.5978 14.4443 35.1914 14.4443C29.7851 14.4443 25.4023 18.8185 25.4023 24.2143C25.4023 29.6101 29.7851 33.9843 35.1914 33.9843Z" fill="#D80027"/>
<path d="M29.2852 24.2144C28.998 24.2144 28.7246 24.228 28.4375 24.2553C28.4512 25.8927 29.0391 27.3801 30.0234 28.5535C30.543 27.1481 31.3223 25.8791 32.3066 24.7738C31.3633 24.4054 30.3516 24.2144 29.2852 24.2144ZM32.9219 30.5594C33.6328 30.8186 34.3984 30.9551 35.1914 30.9551C35.9844 30.9551 36.75 30.8186 37.4609 30.5594C37.0781 29.0448 36.2715 27.6939 35.1914 26.6296C34.1113 27.6939 33.3047 29.0448 32.9219 30.5594ZM41.043 20.844C39.8809 18.8245 37.6934 17.4736 35.1914 17.4736C32.6895 17.4736 30.5156 18.8245 29.3398 20.844C31.4727 20.8576 33.4687 21.4307 35.1914 22.4268C36.9141 21.4307 38.9102 20.844 41.043 20.844ZM38.0762 24.7738C39.0605 25.8654 39.8398 27.1481 40.3594 28.5535C41.3437 27.3937 41.9316 25.8927 41.9453 24.2553C41.6719 24.228 41.3848 24.2144 41.0977 24.2144C40.0449 24.2144 39.0195 24.4054 38.0762 24.7738Z" fill="#FFDA44"/>
</g>
<defs>
<clipPath id="clip0_3_24800">
<rect width="70" height="46.6666" fill="white" transform="translate(0 0.921875)"/>
</clipPath>
</defs>
</svg>
