<svg width="70" height="48" viewBox="0 0 70 48" fill="none" xmlns="http://www.w3.org/2000/svg">
<g clip-path="url(#clip0_3_24645)">
<path d="M0 0.589844H70V47.2565H0V0.589844Z" fill="#2E52B2"/>
<path d="M35 0.589844V3.67999L28.6973 7.87766H35V16.6285H28.6973L35 20.8262V23.93H31.9102L21.875 17.2301V23.93H13.125V17.2301L3.08984 23.93H0V20.8262L6.30273 16.6285H0V7.87766H6.30273L0 3.67999V0.589844H3.08984L13.125 7.27604V0.589844H21.875V7.27604L31.9102 0.589844H35Z" fill="white"/>
<path d="M19.6875 0.589844H15.3125V10.0654H0V14.4408H15.3125V23.93H19.6875V14.4408H35V10.0654H19.6875V0.589844Z" fill="#D80027"/>
<path d="M0 0.589844V2.6545L7.84766 7.87766H10.9375L0 0.589844ZM35 0.589844V2.6545L27.1523 7.87766H24.0625L35 0.589844Z" fill="#D80027"/>
<path d="M0 0.589844V2.6545L7.84766 7.87766H10.9375L0 0.589844ZM35 0.589844V2.6545L27.1523 7.87766H24.0625L35 0.589844ZM0 23.93V21.8653L7.84766 16.6285H10.9375L0 23.93ZM35 23.93V21.8653L27.1523 16.6285H24.0625L35 23.93Z" fill="#D80027"/>
<path d="M41.9863 17.9681V30.5474C41.9863 38.9701 52.9922 41.5543 52.9922 41.5543C52.9922 41.5543 63.9844 38.9564 63.9844 30.5337V17.9544L52.9785 14.8096L41.9863 17.9681Z" fill="#F3F3F3"/>
<path d="M63.9844 18.7475V14.0303H41.9863V18.7475H51.4199V28.182H41.9863V31.3269H51.4199V41.0622C52.3633 41.404 52.9922 41.5407 52.9922 41.5407C52.9922 41.5407 53.6211 41.3903 54.5645 41.0622V31.3269H63.998V28.182H54.5645V18.7475H63.9844Z" fill="#D80027"/>
</g>
<defs>
<clipPath id="clip0_3_24645">
<rect width="70" height="46.6666" fill="white" transform="translate(0 0.589844)"/>
</clipPath>
</defs>
</svg>
