<svg width="70" height="48" viewBox="0 0 70 48" fill="none" xmlns="http://www.w3.org/2000/svg">
<g clip-path="url(#clip0_3_25165)">
<path d="M0 0.918945H70V47.5861H0V0.918945Z" fill="#496E2D"/>
<path d="M67.084 15.9785H60.5215C60.5215 14.7705 59.542 13.791 58.334 13.791C57.1259 13.791 56.1465 14.7705 56.1465 15.9785H49.584C49.584 17.1866 50.6363 18.166 51.8444 18.166H51.7715C51.7715 19.3741 52.7507 20.3535 53.959 20.3535C53.959 21.5616 54.9382 22.541 56.1465 22.541H60.5215C61.7295 22.541 62.709 21.5616 62.709 20.3535C63.917 20.3535 64.8965 19.3741 64.8965 18.166H64.8236C66.0318 18.166 67.084 17.1866 67.084 15.9785Z" fill="#FF9811"/>
<path d="M46.668 24.252H54.4456V47.5848H46.668V24.252Z" fill="#D80027"/>
<path d="M62.2227 24.252H70.0003V47.5848H62.2227V24.252Z" fill="#FF9811"/>
<path d="M54.4453 24.252H62.223V47.5848H54.4453V24.252Z" fill="black"/>
</g>
<defs>
<clipPath id="clip0_3_25165">
<rect width="70" height="46.6666" fill="white" transform="translate(0 0.919922)"/>
</clipPath>
</defs>
</svg>
