<svg width="70" height="48" viewBox="0 0 70 48" fill="none" xmlns="http://www.w3.org/2000/svg">
<g clip-path="url(#clip0_3_24510)">
<path d="M0 0.589844H70V47.2565H0V0.589844Z" fill="#007C30"/>
<path d="M0 31.9738H70V0.589844H0" fill="#CE1720"/>
<path d="M13.6452 31.9738V0.589844H0V47.2565H70H13.6452V31.9738Z" fill="white"/>
<path d="M3.821 22.3682L1.17383 18.0836L3.821 13.8809L6.45453 18.0836L3.821 22.3682ZM9.90677 22.3682L7.27324 18.0836L9.90677 13.8809L12.5539 18.0836L9.90677 22.3682ZM3.821 33.5027L1.17383 29.2181L3.821 25.0154L6.45453 29.2181L3.821 33.5027ZM9.90677 33.5027L7.27324 29.2181L9.90677 25.0154L12.5539 29.2181L9.90677 33.5027Z" fill="#CE1720"/>
<path fill-rule="evenodd" clip-rule="evenodd" d="M3.82164 2.7207L6.56558 7.11101L3.82164 11.5699L1.06055 7.111L3.82164 2.7207ZM9.90488 2.7207L12.666 7.111L9.90488 11.5699L7.16094 7.11101L9.90488 2.7207ZM2.18644 7.11492L3.81911 9.75153L5.44164 7.11491L3.81911 4.51887L2.18644 7.11492ZM9.9074 4.51887L8.28488 7.11491L9.90741 9.75153L11.5401 7.11492L9.9074 4.51887ZM3.82164 36.0287L6.56528 40.4185L3.82164 44.894L1.06085 40.4185L3.82164 36.0287ZM9.90488 36.0287L12.6657 40.4185L9.90488 44.894L7.16124 40.4185L9.90488 36.0287ZM2.18614 40.4234L3.81911 43.0706L5.44194 40.4234L3.81911 37.8268L2.18614 40.4234ZM9.9074 37.8268L8.28458 40.4234L9.90741 43.0706L11.5404 40.4234L9.9074 37.8268Z" fill="#CE1720"/>
</g>
<defs>
<clipPath id="clip0_3_24510">
<rect width="70" height="46.6666" fill="white" transform="translate(0 0.589844)"/>
</clipPath>
</defs>
</svg>
