<svg width="70" height="48" viewBox="0 0 70 48" fill="none" xmlns="http://www.w3.org/2000/svg">
<g clip-path="url(#clip0_3_24690)">
<path d="M0 0.588867H70V47.2555H0V0.588867Z" fill="white"/>
<path d="M0 31.9727H70V47.2553H0V31.9727Z" fill="#D80027"/>
<path d="M49.5454 18.5735V14.1115H51.0327V11.1368H48.0444V12.6241H45.0698V11.1368H42.0951V14.1115H43.5824V18.5735H40.6078V8.16216H42.0951V5.1875H39.1204V6.67483H37.6331V5.1875H34.6584V6.67483H33.1711V5.1875H30.1965V8.16216H31.6838V18.5735H28.7091V14.1115H30.1965V11.1368H27.2218V12.6241H24.2471V11.1368H21.2725V14.1115H22.7598V18.5735H19.7852V30.4721H52.52V18.5735H49.5454Z" fill="#D80027"/>
<path fill-rule="evenodd" clip-rule="evenodd" d="M30.1281 5.11914H33.2392V6.60647H34.5901V5.11914H37.7012V6.60647H39.0521V5.11914H42.1632V8.23025H40.6759V18.5051H43.5141V14.1796H42.0267V11.0685H45.1378V12.5558H47.9761V11.0685H51.1008V14.1796H49.6135V18.5051H52.5881V30.5402H19.7168V18.5051H22.6915V14.1796H21.2041V11.0685H24.3152V12.5558H27.1534V11.0685H30.2646V14.1796H28.7772V18.5051H31.6154V8.23025H30.1281V5.11914ZM30.2646 5.25559V8.0938H31.7519V18.6415H28.6408V14.0431H30.1281V11.2049H27.2899V12.6922H24.1788V11.2049H21.3406V14.0431H22.8279V18.6415H19.8532V30.4037H52.4517V18.6415H49.477V14.0431H50.9644V11.2049H48.1125V12.6922H45.0014V11.2049H42.1632V14.0431H43.6505V18.6415H40.5394V8.0938H42.0267V5.25559H39.1885V6.74292H37.5647V5.25559H34.7265V6.74292H33.1028V5.25559H30.2646Z" fill="black"/>
<path d="M36.1468 32.7236L32.8446 35.2071L35.4508 37.1583V41.4293H32.2852V42.6573H35.4236V43.7353H32.2852V45.0043H36.8427V37.1583L39.4489 35.2071L36.1468 32.7236ZM36.1468 36.1759L34.7686 35.2071L36.1468 34.2383L37.5249 35.2071L36.1468 36.1759Z" fill="#FFDA44"/>
<path fill-rule="evenodd" clip-rule="evenodd" d="M36.1876 32.6689L39.5624 35.207L36.9108 37.1923V45.0724H32.2168V43.6669H35.3552V42.7254H32.2168V41.3609H35.3825V37.1923L32.7308 35.207L36.1056 32.6689L36.1466 32.7235L36.1876 32.6689ZM36.1466 32.8088L32.9581 35.2068L35.5189 37.124V41.4973H32.3532V42.589H35.4917V43.8034H32.3532V44.9359H36.7743V37.124L39.3351 35.2068L36.1466 32.8088ZM36.1466 34.1547L37.6434 35.2069L36.1466 36.2591L34.6498 35.2069L36.1466 34.1547ZM34.8871 35.2069L36.1466 36.0923L37.4062 35.2069L36.1466 34.3215L34.8871 35.2069Z" fill="black"/>
<path d="M32.6945 29.2024V25.3954C32.6945 25.3954 32.7081 22.3525 36.1058 22.3525C39.4898 22.3525 39.6126 25.3545 39.6126 25.3545V29.2024H32.6945ZM23.2656 29.2024V25.8866C23.2656 25.8866 23.2793 23.335 25.9401 23.335C28.6009 23.335 28.6964 25.8457 28.6964 25.8457V29.1888H23.2656V29.2024Z" fill="black"/>
<path d="M23.0742 29.2025V25.8867C23.0742 25.8867 23.0879 23.335 25.7487 23.335C28.4095 23.335 28.505 25.8457 28.505 25.8457V29.1888H23.0742V29.2025ZM43.7877 29.2025V25.8867C43.7877 25.8867 43.8013 23.335 46.4621 23.335C49.123 23.335 49.2185 25.8457 49.2185 25.8457V29.1888H43.7877V29.2025ZM44.9339 18.6001V16.4578C44.9339 16.4578 44.9475 14.8068 46.4758 14.8068C48.0177 14.8068 48.0723 16.4305 48.0723 16.4305V18.6001H44.9339ZM34.1814 18.6001V15.3662C34.1814 15.3662 34.1951 12.8691 36.1327 12.8691C38.0703 12.8691 38.1385 15.3253 38.1385 15.3253V18.6001H34.1814ZM24.2204 18.6001V16.4578C24.2204 16.4578 24.2341 14.8068 25.7623 14.8068C27.2906 14.8068 27.3588 16.4305 27.3588 16.4305V18.6001H24.2204Z" fill="black"/>
</g>
<defs>
<clipPath id="clip0_3_24690">
<rect width="70" height="46.6666" fill="white" transform="translate(0 0.588867)"/>
</clipPath>
</defs>
</svg>
