<svg width="70" height="48" viewBox="0 0 70 48" fill="none" xmlns="http://www.w3.org/2000/svg">
<g clip-path="url(#clip0_3_25110)">
<path d="M0 0.585938H70V47.2526H0V0.585938Z" fill="#E30A17"/>
<path d="M35.4363 16.7692C33.6488 15.473 31.4792 14.777 29.255 14.7907C23.6878 14.7907 19.1849 18.9934 19.1849 24.1922C19.1849 29.3911 23.7014 33.5938 29.255 33.5938C31.5884 33.5938 33.7443 32.857 35.4363 31.6152C31.3428 36.8823 23.7424 37.8375 18.4753 33.7302C13.2083 29.623 12.2531 22.0363 16.3603 16.7692C20.4675 11.5022 28.0543 10.547 33.3213 14.6542C34.1127 15.2683 34.8223 15.9915 35.4363 16.7692ZM40.8808 25.7478L38.411 28.7361L38.5747 24.8609L34.9724 23.4418L38.6975 22.4047L38.9431 18.5431L41.0718 21.777L44.8242 20.8082L42.4363 23.8102L44.524 27.0714L40.8808 25.7478Z" fill="white"/>
</g>
<defs>
<clipPath id="clip0_3_25110">
<rect width="70" height="46.6666" fill="white" transform="translate(0 0.585938)"/>
</clipPath>
</defs>
</svg>
