<svg width="70" height="48" viewBox="0 0 70 48" fill="none" xmlns="http://www.w3.org/2000/svg">
<g clip-path="url(#clip0_3_24920)">
<path d="M0 0.922852H70V47.5885H0V0.922852Z" fill="white"/>
<path d="M0 0.921875H70V16.477H0V0.921875ZM0 32.0324H70V47.5875H0V32.0324Z" fill="#338AF3"/>
<path d="M34.9994 18.5742C31.8619 18.5742 29.3184 21.1176 29.3184 24.2553C29.3184 27.393 31.8617 29.9364 34.9994 29.9364C38.137 29.9364 40.6805 27.393 40.6805 24.2553C40.6805 21.1176 38.137 18.5742 34.9994 18.5742ZM34.9994 27.5017C33.2065 27.5017 31.753 26.0482 31.753 24.2553C31.753 22.4624 33.2065 21.0089 34.9994 21.0089C36.7924 21.0089 38.2458 22.4624 38.2458 24.2553C38.2458 26.0482 36.7924 27.5017 34.9994 27.5017Z" fill="#FFDA44"/>
<path d="M37.8119 25.0664L35.0005 24.2549L32.1892 25.0664L31.252 26.6897H38.7491L37.8119 25.0664Z" fill="#0052B4"/>
<path d="M34.9993 20.1973L33.125 23.4435L34.9993 24.2551L36.8736 23.4435L34.9993 20.1973Z" fill="#338AF3"/>
<path d="M32.1895 25.0665H37.8121L36.8751 23.4434H33.1265L32.1895 25.0665Z" fill="#6DA544"/>
</g>
<defs>
<clipPath id="clip0_3_24920">
<rect width="70" height="46.6666" fill="white" transform="translate(0 0.921875)"/>
</clipPath>
</defs>
</svg>
