<svg width="70" height="47" viewBox="0 0 70 47" fill="none" xmlns="http://www.w3.org/2000/svg">
<g clip-path="url(#clip0_3_24480)">
<path d="M0 0.255859H70V46.9225H0V0.255859Z" fill="#10338C"/>
<path d="M30.3189 23.5483C30.3598 23.5074 30.3871 23.4664 30.428 23.4255C30.4007 23.4664 30.3598 23.5074 30.3189 23.5483ZM25.6522 29.2657L27.1532 32.3904L30.5235 31.6126L29.0226 34.7237L31.738 36.8797L28.354 37.6438L28.3676 41.1097L25.6522 38.9401L22.9504 41.1097L22.9641 37.6438L19.5801 36.8797L22.2955 34.7237L20.7809 31.6126L24.1649 32.3904L25.6522 29.2657ZM52.6561 33.1545L53.3657 34.6419L54.9758 34.2734L54.2526 35.7608L55.5489 36.7842L53.9388 37.1389V38.8037L52.6561 37.7666L51.3598 38.8037L51.3735 37.1389L49.7633 36.7842L51.0596 35.7608L50.3364 34.2734L51.9466 34.6419L52.6561 33.1545ZM46.0245 17.3261L46.7341 18.8134L48.3442 18.445L47.621 19.9323L48.9173 20.9557L47.3072 21.3241V22.9752L46.0245 21.9382L44.7282 22.9752L44.7419 21.3241L43.1181 20.9557L44.4144 19.9323L43.6912 18.445L45.3013 18.8134L46.0245 17.3261ZM52.6561 8.29297L53.3657 9.7803L54.9758 9.41188L54.2526 10.8992L55.5489 11.9226L53.9388 12.291V13.9421L52.6561 12.905L51.3598 13.9421L51.3735 12.291L49.7633 11.9226L51.0596 10.8992L50.3364 9.41188L51.9466 9.7803L52.6561 8.29297ZM58.4553 15.0746L59.1649 16.562L60.775 16.1935L60.0518 17.6809L61.3481 18.7043L59.738 19.059V20.7238L58.4553 19.6867L57.159 20.7238V19.059L55.5489 18.7043L56.8452 17.6809L56.122 16.1935L57.7321 16.562L58.4553 15.0746ZM54.3072 22.9752L54.8666 24.7082H56.6814L55.2078 25.7725L55.7809 27.5054L54.3072 26.4275L52.8335 27.5054L53.3929 25.7725L51.9329 24.7082H53.7477L54.3072 22.9752Z" fill="white"/>
<path d="M34.7677 0.255859V4.43129L28.6137 7.85624H34.7677V15.9479H26.7034L34.7677 20.4235V23.5482H31.1244L21.0952 17.9673V23.5482H13.5085V16.9167L1.58253 23.5482H-0.164062V19.3728L6.00358 15.9479H-0.164062V7.85624H7.90026L-0.164062 3.36697V0.255859H3.47921L13.5085 5.8231V0.255859H21.0952V6.88743L33.0348 0.255859H34.7677Z" fill="white"/>
<path d="M19.4851 0.255859H15.1186V9.71199H-0.164062V14.0785H15.1186V23.5482H19.4851V14.0785H34.7677V9.71199H19.4851V0.255859Z" fill="#D80027"/>
<path d="M21.0957 15.9473L34.7682 23.5476V21.3917L24.9709 15.9473H21.0957Z" fill="#0052B4"/>
<path d="M21.0957 15.9473L34.7682 23.5476V21.3917L24.9709 15.9473H21.0957Z" fill="white"/>
<path d="M21.0952 15.9473L34.7677 23.5476V21.3917L24.9704 15.9473H21.0952ZM9.64685 15.9473L-0.164062 21.3917V23.5476L13.5085 15.9473H9.64685Z" fill="#D80027"/>
<path d="M13.5085 7.85624L-0.164062 0.255859V2.39816L9.64685 7.85624H13.5085Z" fill="#0052B4"/>
<path d="M13.5085 7.85624L-0.164062 0.255859V2.39816L9.64685 7.85624H13.5085Z" fill="white"/>
<path d="M13.5085 7.85624L-0.164062 0.255859V2.39816L9.64685 7.85624H13.5085ZM24.9704 7.85624L34.7677 2.39816V0.255859L21.0952 7.85624H24.9704Z" fill="#D80027"/>
</g>
<defs>
<clipPath id="clip0_3_24480">
<rect width="70" height="46.6666" fill="white" transform="translate(0 0.255859)"/>
</clipPath>
</defs>
</svg>
