<svg width="70" height="47" viewBox="0 0 70 47" fill="none" xmlns="http://www.w3.org/2000/svg">
<g clip-path="url(#clip0_3_24605)">
<path d="M0 0.255859H70V46.9225H0V0.255859Z" fill="white"/>
<path d="M19.3359 21.3652C19.3359 21.3652 19.3632 30.5211 29.5289 30.2755L30.1429 32.1722H31.3573C31.3573 32.1722 30.3476 26.564 39.5581 26.5094C39.5581 26.5094 39.5581 22.7434 43.3242 22.7434H48.9869C48.9869 22.7434 39.9811 15.6751 57.024 6.64201L57.2696 4.85449C57.2696 4.85449 39.5445 14.5426 30.1292 12.6596C30.1292 12.6596 31.5893 18.4588 28.6556 18.4588C27.1819 18.4588 27.332 17.3535 24.2482 17.3535C21.6965 17.3535 21.8875 20.0416 20.6595 20.0143C19.445 19.987 18.0942 18.336 17.985 18.6225C17.8895 18.9091 19.3359 21.3652 19.3359 21.3652Z" fill="#DB7D00"/>
<path d="M32.3652 42.297C33.3068 41.6147 34.1391 41.3964 35.4218 41.1644C36.7044 40.9325 38.0689 40.564 38.7785 40.373C39.488 40.182 36.3633 41.2736 35.5719 41.5056C34.7804 41.7239 32.3652 42.297 32.3652 42.297ZM37.5368 40.2911C37.2775 38.6673 37.9188 36.9753 39.3789 36.2931C39.72 37.4666 38.6693 39.4588 37.5368 40.2911ZM40.0202 39.4451C39.2288 38.1079 40.566 36.3613 41.5348 35.5153C41.9851 36.334 41.1937 38.7492 40.0202 39.4451ZM42.3262 38.4081C41.4802 37.2619 42.4763 35.2424 43.527 34.451C43.95 35.5699 43.5407 37.6167 42.3262 38.4081ZM44.6323 36.9617C43.8682 35.8701 44.4003 34.1781 45.4919 33.0865C46.2834 33.987 45.6147 35.952 44.6323 36.9617ZM46.4744 35.5017C45.8331 34.4783 46.6245 32.0358 47.6479 31.3535C48.0982 32.2541 47.757 34.8194 46.4744 35.5017ZM47.9481 35.1196C47.757 33.6459 50.3223 32.0221 51.3867 32.0631C51.2639 33.2775 50.1722 34.6011 47.9481 35.1196ZM46.5153 36.7843C47.7161 35.5426 50.0631 35.5426 50.8954 35.8019C50.6635 36.5251 47.9071 38.1079 46.5153 36.7843Z" fill="#006651"/>
<path d="M44.8511 38.026C46.5431 37.5757 47.6484 37.1937 48.6581 38.258C47.9486 39.1586 45.1922 38.8993 44.8511 38.026ZM42.4359 39.1176C44.0597 38.2443 46.0246 39.527 46.3248 40.2911C44.51 41.0416 42.4086 39.3087 42.4359 39.1176ZM40.2117 40.373C41.6854 39.8135 43.3774 40.564 44.0597 41.3964C43.2682 41.7648 41.1942 42.1742 40.2117 40.373ZM38.1786 41.0143C39.8706 40.8233 41.508 42.1059 41.8628 42.8428C39.6932 43.0475 38.8608 42.4061 38.1786 41.0143ZM37.6328 42.297C36.6912 41.6147 35.8589 41.3964 34.5762 41.1644C33.2936 40.9325 31.9291 40.564 31.2195 40.373C30.4963 40.182 33.6347 41.2736 34.4261 41.5056C35.2176 41.7239 37.6328 42.297 37.6328 42.297ZM32.4612 40.2911C32.7205 38.6673 32.0792 36.9753 30.6191 36.2931C30.278 37.4666 31.3287 39.4588 32.4612 40.2911ZM29.9778 39.4451C30.7692 38.1079 29.432 36.3613 28.4632 35.5153C28.0129 36.334 28.8043 38.7492 29.9778 39.4451ZM27.6718 38.4081C28.5178 37.2619 27.5217 35.2424 26.471 34.451C26.048 35.5699 26.4573 37.6167 27.6718 38.4081ZM25.3657 36.9617C26.1298 35.8701 25.5977 34.1781 24.5061 33.0865C23.7146 33.987 24.3833 35.952 25.3657 36.9617ZM23.5236 35.5017C24.1649 34.4783 23.3735 32.0358 22.3501 31.3535C21.8998 32.2541 22.241 34.8194 23.5236 35.5017ZM22.0499 35.1196C22.241 33.6459 19.6757 32.0221 18.6113 32.0631C18.7341 33.2775 19.8258 34.6011 22.0499 35.1196ZM23.4827 36.7843C22.2819 35.5426 19.9349 35.5426 19.1026 35.8019C19.3345 36.5251 22.0909 38.1079 23.4827 36.7843Z" fill="#006651"/>
<path d="M25.1469 38.0256C23.4549 37.5753 22.3496 37.1933 21.3398 38.2576C22.0494 39.1582 24.8057 38.8989 25.1469 38.0256ZM27.5621 39.1173C25.9383 38.244 23.9734 39.5266 23.6732 40.2907C25.488 41.0412 27.5894 39.3083 27.5621 39.1173ZM29.7862 40.3726C28.3126 39.8132 26.6205 40.5636 25.9383 41.396C26.7297 41.7644 28.8038 42.1738 29.7862 40.3726ZM31.8194 41.0139C30.1274 40.8229 28.4899 42.1056 28.1352 42.8424C30.3048 43.0471 31.1371 42.4058 31.8194 41.0139Z" fill="#006651"/>
</g>
<defs>
<clipPath id="clip0_3_24605">
<rect width="70" height="46.6666" fill="white" transform="translate(0 0.255859)"/>
</clipPath>
</defs>
</svg>
