<svg width="70" height="47" viewBox="0 0 70 47" fill="none" xmlns="http://www.w3.org/2000/svg">
<g clip-path="url(#clip0_3_24470)">
<path d="M0 0.255859H69.8635V46.9225H0V0.255859Z" fill="white"/>
<path d="M0 0.255859H69.8635V15.8114H0V0.255859ZM0 31.3669H69.8635V46.9225H0V31.3669Z" fill="#338AF3"/>
<path d="M34.9991 29.047C38.0135 29.047 40.4572 26.6034 40.4572 23.5889C40.4572 20.5745 38.0135 18.1309 34.9991 18.1309C31.9847 18.1309 29.541 20.5745 29.541 23.5889C29.541 26.6034 31.9847 29.047 34.9991 29.047Z" fill="#FFDA44"/>
<path fill-rule="evenodd" clip-rule="evenodd" d="M35.0004 18.4713C32.1744 18.4713 29.8834 20.7623 29.8834 23.5883C29.8834 26.4143 32.1744 28.7052 35.0004 28.7052C37.8264 28.7052 40.1174 26.4143 40.1174 23.5883C40.1174 20.7623 37.8264 18.4713 35.0004 18.4713ZM29.2012 23.5883C29.2012 20.3855 31.7976 17.7891 35.0004 17.7891C38.2032 17.7891 40.7996 20.3855 40.7996 23.5883C40.7996 26.7911 38.2032 29.3875 35.0004 29.3875C31.7976 29.3875 29.2012 26.7911 29.2012 23.5883Z" fill="#D6AB00"/>
</g>
<defs>
<clipPath id="clip0_3_24470">
<rect width="70" height="46.6666" fill="white" transform="translate(0 0.255859)"/>
</clipPath>
</defs>
</svg>
