<svg width="70" height="47" viewBox="0 0 70 47" fill="none" xmlns="http://www.w3.org/2000/svg">
<g clip-path="url(#clip0_3_24950)">
<path d="M53.7995 11.8994L56.1938 14.48L59.3879 13.0005L57.6733 16.0749L60.0677 18.6556L56.6138 17.9751L54.8995 21.0496L54.4793 17.5545L51.0254 16.8739L54.2195 15.3946L53.7995 11.8994Z" fill="white"/>
<path d="M0 0.254883H70V46.9205H0V0.254883Z" fill="white"/>
<path d="M17.5 0.253906H70V46.9211H17.5V0.253906Z" fill="#01411C"/>
<path d="M49.4788 29.4382C45.2354 32.5042 39.3099 31.5499 36.2438 27.3065C33.1777 23.063 34.1321 17.1374 38.3757 14.0715C39.6987 13.1156 41.1853 12.5505 42.6978 12.3539C39.788 11.9188 36.7127 12.5745 34.1395 14.4336C28.9168 18.2073 27.7421 25.5001 31.5157 30.7229C35.2893 35.9454 42.5823 37.1203 47.8051 33.3464C50.3781 31.4873 51.9662 28.7734 52.4666 25.8741C51.805 27.2481 50.8019 28.4821 49.4788 29.4382ZM49.2971 12.2247L51.6875 14.8008L54.876 13.324L53.1644 16.3929L55.5547 18.9692L52.1068 18.29L50.3952 21.3593L49.9759 17.8701L46.5278 17.1908L49.7165 15.7139L49.2971 12.2247Z" fill="white"/>
</g>
<defs>
<clipPath id="clip0_3_24950">
<rect width="70" height="46.6666" fill="white" transform="translate(0 0.253906)"/>
</clipPath>
</defs>
</svg>
