<svg width="70" height="48" viewBox="0 0 70 48" fill="none" xmlns="http://www.w3.org/2000/svg">
<g clip-path="url(#clip0_3_24465)">
<path d="M0 0.589844H70V47.2565H0V0.589844Z" fill="#FFDA44"/>
<path d="M0 0.589844H23.3333V47.2565H0V0.589844Z" fill="#0052B4"/>
<path d="M46.6669 0.589844H70.0003V47.2565H46.6669V0.589844ZM27.1406 16.0908H34.932V24.9329H27.1406V16.0908Z" fill="#D80027"/>
<path d="M36.5156 16.0898V24.9183V16.0898ZM38.7807 16.0898V24.9183V16.0898ZM41.0458 16.0898V24.9183V16.0898Z" fill="black"/>
<path fill-rule="evenodd" clip-rule="evenodd" d="M36.9923 16.0898V24.9183H36.0371V16.0898H36.9923ZM39.2574 16.0898V24.9183H38.3022V16.0898H39.2574ZM40.5673 24.9183V16.0898H41.5225V24.9183H40.5673Z" fill="#D80027"/>
<path d="M33.7588 24.9336V33.762V24.9336ZM31.944 24.9336V33.762V24.9336ZM30.1292 24.9472V32.302V24.9472ZM28.2598 24.9472V31.3741V24.9472Z" fill="black"/>
<path fill-rule="evenodd" clip-rule="evenodd" d="M32.2844 24.9336V33.762H31.6022V24.9336H32.2844ZM34.0993 24.9336V33.762H33.417V24.9336H34.0993ZM27.918 31.3741V24.9472H28.6002V31.3741H27.918ZM30.4696 24.9472V32.302H29.7874V24.9472H30.4696Z" fill="#D80027"/>
<path d="M27.2773 20.5109L31.0434 16.0898L34.9323 20.4972L31.098 24.9183L27.2773 20.5109Z" fill="#FFDA44"/>
<path d="M24.8613 13.6758V26.2567C24.8613 30.937 28.5865 33.6524 31.4929 35.0578C31.3837 35.2489 34.9179 36.1904 34.9179 36.1904C34.9179 36.1904 38.452 35.2489 38.3428 35.0578C41.2629 33.6524 44.9744 30.9506 44.9744 26.2567V13.6758H24.8613ZM42.5865 26.2567C42.5865 28.5627 41.222 30.2684 38.1108 32.2469C36.9374 32.9974 35.7229 33.475 34.9315 33.7479C34.1401 33.475 32.9257 32.9974 31.7522 32.2469C28.6411 30.2684 27.2765 28.4263 27.2765 26.2567V16.091H42.5865V26.2567Z" fill="#BC8B00"/>
<path d="M36.0781 26.3652H40.1035V27.5387H36.0781V26.3652ZM36.0781 28.7668H40.1035V29.9403H36.0781V28.7668Z" fill="#D80027"/>
</g>
<defs>
<clipPath id="clip0_3_24465">
<rect width="70" height="46.6666" fill="white" transform="translate(0 0.589844)"/>
</clipPath>
</defs>
</svg>
