<svg width="70" height="47" viewBox="0 0 70 47" fill="none" xmlns="http://www.w3.org/2000/svg">
<g clip-path="url(#clip0_3_24770)">
<path d="M0 0.255859H70V46.9225H0V0.255859Z" fill="white"/>
<path d="M46.4756 16.9574H38.8207L35 10.3258L31.1793 16.9574H23.5244L27.345 23.589L23.5244 30.2206H31.1793L35 36.8521L38.8207 30.2206H46.4756L42.655 23.589L46.4756 16.9574ZM40.0078 23.589L37.6608 28.1192H32.3528L29.9922 23.589L32.3392 19.0588H37.6472L40.0078 23.589ZM35 13.7917L36.6238 16.9711H33.3626L35 13.7917ZM27.0448 19.0588H30.306L28.8324 21.9243L27.0448 19.0588ZM27.0448 28.1192L28.8187 25.1036L30.4425 28.1192H27.0448ZM35 33.2362L33.3762 30.2206H36.6374L35 33.2362ZM43.1053 28.1192H39.694L41.3177 25.1036L43.1053 28.1192ZM39.5439 19.0588H43.1053L41.3314 22.0744L39.5439 19.0588ZM0 3.16211H69.8635V8.98861H0V3.16211ZM0 38.0938H69.8635V43.9204H0V38.0938Z" fill="#2E52B2"/>
</g>
<defs>
<clipPath id="clip0_3_24770">
<rect width="70" height="46.6666" fill="white" transform="translate(0 0.255859)"/>
</clipPath>
</defs>
</svg>
