<svg width="70" height="48" viewBox="0 0 70 48" fill="none" xmlns="http://www.w3.org/2000/svg">
<g clip-path="url(#clip0_3_24865)">
<path d="M0 0.921875H70V47.5885H0V0.921875Z" fill="#0052B4"/>
<path d="M69.8635 21.1714V27.2435H37.9747V47.493H31.8889V27.2435H0V21.1714H31.8889V0.921875H37.9747V21.1714H69.8635Z" fill="white"/>
<path d="M13.7819 5.84825C14.355 5.82096 14.9144 5.8346 15.4875 5.87554C16.238 5.93012 16.7702 6.09386 16.7292 5.94377C16.661 5.69815 16.7156 5.64357 16.6201 5.69815C16.4427 5.8346 16.7156 5.67086 15.6103 6.29854C14.0002 7.21277 13.3043 7.90868 13.659 9.16404C13.9729 10.2693 14.778 10.5695 16.7019 10.8697L16.9612 10.9106C17.7253 11.0334 18.0665 11.1017 18.2984 11.2108C18.353 11.2381 18.2575 11.0744 18.2848 10.9788C18.2575 11.0607 17.7526 11.2654 16.47 11.511L15.8286 11.6338C13.3589 12.1387 12.1308 12.7937 11.9397 14.4993C11.7351 16.3687 13.6727 17.6786 16.1152 17.9925C18.5986 18.32 20.7682 17.5013 20.9865 15.4818C21.123 14.1991 20.236 13.435 18.8169 13.1484C17.8618 12.9574 16.5928 12.9574 15.0781 13.1075C13.3861 13.2849 11.7078 13.5714 10.0431 13.9671C9.55183 14.0627 9.23799 14.5402 9.33351 15.0315C9.42903 15.5227 9.90661 15.8365 10.3978 15.741C10.4251 15.741 10.4388 15.7274 10.4661 15.7274C12.0489 15.359 13.6454 15.0861 15.2555 14.9223C16.6064 14.7859 17.7117 14.7859 18.4485 14.936C19.0489 15.0588 19.1717 15.1679 19.1581 15.2907C19.0898 15.9866 17.9436 16.4096 16.3335 16.205C14.7507 16.0003 13.6727 15.2771 13.7273 14.704C13.7955 14.1172 14.4505 13.7761 16.1698 13.4213L16.7974 13.2985C18.9125 12.8892 19.6766 12.5753 20.0041 11.4974C20.2633 10.6104 19.8267 9.91452 19.0216 9.55975C18.585 9.36871 18.162 9.2732 17.2204 9.13675L16.9748 9.09581C15.8832 8.91842 15.4193 8.74103 15.4056 8.68645C15.392 8.63187 15.6512 8.37261 16.5109 7.88139L17.1113 7.54026C17.316 7.43109 17.507 7.29464 17.698 7.17184C18.3257 6.7079 18.6805 6.20303 18.4895 5.49347C18.2302 4.49737 17.2614 4.19718 15.6376 4.07437C14.9963 4.03344 14.3686 4.01979 13.7273 4.03344L13.4544 4.04708C12.9495 4.07437 12.5674 4.51102 12.5947 5.00225C12.622 5.50712 13.0587 5.88919 13.5499 5.8619L13.7819 5.84825ZM52.5343 5.84825C53.1074 5.82096 53.6668 5.8346 54.2399 5.87554C54.9904 5.93012 55.5226 6.09386 55.4817 5.94377C55.4134 5.69815 55.468 5.64357 55.3725 5.69815C55.1951 5.8346 55.468 5.67086 54.3628 6.29854C52.7526 7.21277 52.0567 7.90868 52.4115 9.16404C52.7253 10.2693 53.5304 10.5695 55.4544 10.8697L55.7136 10.9106C56.4778 11.0334 56.8189 11.1017 57.0509 11.2108C57.1054 11.2381 57.0099 11.0744 57.0372 10.9788C57.0099 11.0607 56.5051 11.2654 55.2224 11.511L54.5811 11.6338C52.1113 12.1387 50.8832 12.7937 50.6922 14.4993C50.4875 16.3687 52.4251 17.6786 54.8676 17.9925C57.3511 18.32 59.5206 17.5013 59.739 15.4818C59.8754 14.1991 58.9885 13.435 57.5694 13.1484C56.6142 12.9574 55.3452 12.9574 53.8306 13.1075C52.1386 13.2849 50.4602 13.5714 48.7955 13.9671C48.3043 14.0627 47.9904 14.5402 48.0859 15.0315C48.1815 15.5227 48.659 15.8365 49.1503 15.741C49.1776 15.741 49.1912 15.7274 49.2185 15.7274C50.8014 15.359 52.3978 15.0861 54.008 14.9223C55.3589 14.7859 56.4641 14.7859 57.201 14.936C57.8014 15.0588 57.9242 15.1679 57.9105 15.2907C57.8423 15.9866 56.6961 16.4096 55.086 16.205C53.5031 16.0003 52.4251 15.2771 52.4797 14.704C52.5479 14.1172 53.2029 13.7761 54.9222 13.4213L55.5499 13.2985C57.6649 12.8892 58.429 12.5753 58.7565 11.4974C59.0158 10.6104 58.5791 9.91452 57.7741 9.55975C57.3374 9.36871 56.9144 9.2732 55.9729 9.13675L55.7273 9.09581C54.6357 8.91842 54.1717 8.74103 54.1581 8.68645C54.1444 8.63187 54.4037 8.37261 55.2633 7.88139L55.8637 7.54026C56.0684 7.43109 56.2594 7.29464 56.4505 7.17184C57.0782 6.7079 57.4329 6.20303 57.2419 5.49347C56.9826 4.49737 56.0138 4.19718 54.39 4.07437C53.7487 4.03344 53.121 4.01979 52.4797 4.03344L52.2068 4.04708C51.7019 4.07437 51.3199 4.51102 51.3472 5.00225C51.3744 5.50712 51.8111 5.88919 52.3023 5.8619L52.5343 5.84825ZM51.7975 33.0022C52.3706 32.9749 52.93 32.9886 53.5031 33.0295C54.2536 33.0841 54.7858 33.2478 54.7448 33.0977C54.6766 32.8521 54.7312 32.7975 54.6357 32.8521C54.4583 32.9886 54.7312 32.8248 53.6259 33.4525C52.0158 34.3667 51.3199 35.0626 51.6746 36.318C51.9885 37.4233 52.7936 37.7235 54.7175 38.0237L54.9768 38.0646C55.7409 38.1874 56.0821 38.2556 56.314 38.3648C56.3686 38.3921 56.2731 38.2283 56.3004 38.1328C56.2731 38.2147 55.7682 38.4194 54.4856 38.665L53.8442 38.7878C51.3745 39.2927 50.1464 39.9476 49.9553 41.6533C49.7507 43.5227 51.6883 44.8326 54.1308 45.1465C56.6142 45.4739 58.7838 44.6552 59.0021 42.6357C59.1386 41.3531 58.2516 40.589 56.8325 40.3024C55.8774 40.1114 54.6084 40.1114 53.0938 40.2615C51.4017 40.4389 49.7234 40.7254 48.0587 41.1211C47.5674 41.2166 47.2536 41.6942 47.3491 42.1854C47.4446 42.6767 47.9222 42.9905 48.4134 42.895C48.4407 42.895 48.4544 42.8813 48.4817 42.8813C50.0645 42.5129 51.661 42.24 53.2711 42.0763C54.622 41.9398 55.7273 41.9398 56.4641 42.0899C57.0645 42.2127 57.1873 42.3219 57.1737 42.4447C57.1054 43.1406 55.9592 43.5636 54.3491 43.3589C52.7663 43.1543 51.6883 42.4311 51.7429 41.858C51.8111 41.2712 52.4661 40.9301 54.1854 40.5753L54.813 40.4525C56.9281 40.0431 57.6922 39.7293 58.0197 38.6513C58.2789 37.7644 57.8423 37.0685 57.0372 36.7137C56.6006 36.5227 56.1776 36.4272 55.236 36.2907L54.9904 36.2498C53.8988 36.0724 53.4349 35.895 53.4212 35.8404C53.4076 35.7858 53.6668 35.5266 54.5265 35.0354L55.1269 34.6942C55.3316 34.5851 55.5226 34.4486 55.7136 34.3258C56.3413 33.8619 56.6961 33.357 56.5051 32.6474C56.2458 31.6513 55.277 31.3511 53.6532 31.2283C53.0119 31.1874 52.3842 31.1738 51.7429 31.1874L51.47 31.201C50.9651 31.2283 50.583 31.665 50.6103 32.1562C50.6376 32.6474 51.0743 33.0432 51.5655 33.0159L51.7975 33.0022ZM13.7819 33.0022C14.355 32.9749 14.9144 32.9886 15.4875 33.0295C16.238 33.0841 16.7702 33.2478 16.7292 33.0977C16.661 32.8521 16.7156 32.7975 16.6201 32.8521C16.4427 32.9886 16.7156 32.8248 15.6103 33.4525C14.0002 34.3667 13.3043 35.0626 13.659 36.318C13.9729 37.4233 14.778 37.7235 16.7019 38.0237L16.9612 38.0646C17.7253 38.1874 18.0665 38.2556 18.2984 38.3648C18.353 38.3921 18.2575 38.2283 18.2848 38.1328C18.2575 38.2147 17.7526 38.4194 16.47 38.665L15.8286 38.7878C13.3589 39.2927 12.1308 39.9476 11.9397 41.6533C11.7351 43.5227 13.6727 44.8326 16.1152 45.1465C18.5986 45.4739 20.7682 44.6552 20.9865 42.6357C21.123 41.3531 20.236 40.589 18.8169 40.3024C17.8618 40.1114 16.5928 40.1114 15.0781 40.2615C13.3861 40.4389 11.7078 40.7254 10.0431 41.1211C9.55183 41.2166 9.23799 41.6942 9.33351 42.1854C9.42903 42.6767 9.90661 42.9905 10.3978 42.895C10.4251 42.895 10.4388 42.8813 10.4661 42.8813C12.0489 42.5129 13.6454 42.24 15.2555 42.0763C16.6064 41.9398 17.7117 41.9398 18.4485 42.0899C19.0489 42.2127 19.1717 42.3219 19.1581 42.4447C19.0898 43.1406 17.9436 43.5636 16.3335 43.3589C14.7507 43.1543 13.6727 42.4311 13.7273 41.858C13.7955 41.2712 14.4505 40.9301 16.1698 40.5753L16.7974 40.4525C18.9125 40.0431 19.6766 39.7293 20.0041 38.6513C20.2633 37.7644 19.8267 37.0685 19.0216 36.7137C18.585 36.5227 18.162 36.4272 17.2204 36.2907L16.9748 36.2498C15.8832 36.0724 15.4193 35.895 15.4056 35.8404C15.392 35.7858 15.6512 35.5266 16.5109 35.0354L17.1113 34.6942C17.316 34.5851 17.507 34.4486 17.698 34.3258C18.3257 33.8619 18.6805 33.357 18.4895 32.6474C18.2302 31.6513 17.2614 31.3511 15.6376 31.2283C14.9963 31.1874 14.3686 31.1738 13.7273 31.1874L13.4544 31.201C12.9495 31.2283 12.5674 31.665 12.5947 32.1562C12.622 32.6611 13.0587 33.0432 13.5499 33.0159L13.7819 33.0022Z" fill="white"/>
</g>
<defs>
<clipPath id="clip0_3_24865">
<rect width="70" height="46.6666" fill="white" transform="translate(0 0.921875)"/>
</clipPath>
</defs>
</svg>
