<svg width="70" height="47" viewBox="0 0 70 47" fill="none" xmlns="http://www.w3.org/2000/svg">
<g clip-path="url(#clip0_3_25015)">
<path d="M0 0.253906H70V46.9211H0V0.253906Z" fill="#D80027"/>
<path d="M0 0.253906H35V23.5867H0V0.253906Z" fill="#0052B4"/>
<path d="M22.6236 13.441L23.0015 14.6037H24.2237L23.2349 15.322L23.6127 16.4845L22.6236 15.7661L21.6347 16.4845L22.0125 15.322L21.0236 14.6037H22.2459L22.6236 13.441ZM16.4844 4.31055L17.1141 6.24826H19.1513L17.5031 7.44551L18.1327 9.38295L16.4844 8.18557L14.8364 9.38295L15.466 7.44551L13.8177 6.24826H15.855L16.4844 4.31055ZM22.5714 6.33959L23.2011 8.27717H25.2382L23.5901 9.47441L24.2196 11.4121L22.5714 10.2145L20.9234 11.4121L21.5529 9.47441L19.9047 8.27717H21.9418L22.5714 6.33959ZM17.76 14.4556L18.3897 16.3932H20.4268L18.7787 17.5906L19.4081 19.528L17.76 18.3305L16.112 19.528L16.7414 17.5906L15.0933 16.3932H17.1304L17.76 14.4556ZM12.4266 9.38295L13.0562 11.3207H15.0933L13.4452 12.5179L14.0746 14.4556L12.4266 13.258L10.7785 14.4556L11.4079 12.5179L9.75977 11.3207H11.7969L12.4266 9.38295Z" fill="white"/>
</g>
<defs>
<clipPath id="clip0_3_25015">
<rect width="70" height="46.6666" fill="white" transform="translate(0 0.253906)"/>
</clipPath>
</defs>
</svg>
