<svg width="70" height="48" viewBox="0 0 70 48" fill="none" xmlns="http://www.w3.org/2000/svg">
<g clip-path="url(#clip0_3_24850)">
<path d="M0 0.921875H70V47.5885H0V0.921875Z" fill="#D01920"/>
<path d="M19.7832 13.0957H50.218V35.415H19.7832V13.0957Z" fill="#017C3B"/>
<path d="M38.7576 30.8488C35.1159 30.8488 32.1634 27.8965 32.1634 24.2546C32.1634 20.6127 35.1157 17.6603 38.7576 17.6603C39.8932 17.6603 40.9615 17.9475 41.8944 18.4529C40.4311 17.0219 38.4298 16.1387 36.2214 16.1387C31.7392 16.1387 28.1055 19.7722 28.1055 24.2546C28.1055 28.7369 31.7392 32.3705 36.2214 32.3705C38.4299 32.3705 40.4311 31.4871 41.8944 30.0562C40.9617 30.5618 39.8934 30.8488 38.7576 30.8488Z" fill="white"/>
</g>
<defs>
<clipPath id="clip0_3_24850">
<rect width="70" height="46.6666" fill="white" transform="translate(0 0.921875)"/>
</clipPath>
</defs>
</svg>
