<svg width="70" height="47" viewBox="0 0 70 47" fill="none" xmlns="http://www.w3.org/2000/svg">
<g clip-path="url(#clip0_3_25020)">
<path d="M0 0.254883H70V46.9205H0V0.254883Z" fill="#338AF3"/>
<path d="M70 0.253906V23.0436L0 23.6111V0.253906H70Z" fill="white"/>
<path d="M44.2611 16.3545L34.9992 25.6164L25.7374 16.3545C24.4982 18.1913 23.8373 20.3571 23.8399 22.5729V25.6164C23.8399 30.5032 26.9976 34.6662 31.3796 36.1728C30.7949 37.3192 30.8934 38.7497 31.7504 39.8193L35.0669 37.1616L38.3834 39.8193C39.2505 38.7371 39.342 37.2853 38.734 36.1322C43.0562 34.5926 46.1589 30.4604 46.1589 25.6164V22.5729C46.1613 20.3571 45.5003 18.1914 44.2611 16.3545Z" fill="#6DA544"/>
<path d="M35.0007 33.7325C30.5256 33.7325 26.8848 30.0916 26.8848 25.6166V22.5731C26.8848 18.0979 30.5256 14.457 35.0007 14.457C39.4757 14.457 43.1166 18.0979 43.1166 22.5729V25.6164C43.1166 30.0916 39.4757 33.7325 35.0007 33.7325Z" fill="#FFDA44"/>
<path d="M40.0725 25.6169V22.5734C40.0725 19.7764 37.7971 17.501 35.0001 17.501C32.2031 17.501 29.9277 19.7764 29.9277 22.5734V25.6169L35.0001 26.6315L40.0725 25.6169Z" fill="#338AF3"/>
<path d="M29.9277 25.6162C29.9277 28.4132 32.2031 30.6886 35.0001 30.6886C37.7971 30.6886 40.0725 28.4132 40.0725 25.6162H29.9277Z" fill="#6DA544"/>
<path d="M41.086 14.4571C41.086 12.7761 39.7234 11.4136 38.0425 11.4136C37.2936 11.4126 36.5709 11.6888 36.0136 12.189V10.399H37.0281V8.37006H36.0136V7.35547H33.9846V8.37006H32.9701V10.399H33.9846V12.189C33.4273 11.6888 32.7045 11.4126 31.9556 11.4136C30.2746 11.4136 28.9121 12.7761 28.9121 14.4571C28.9121 15.3582 29.3041 16.1677 29.9267 16.7251V18.5151H40.0716V16.7251C40.694 16.1677 41.086 15.3583 41.086 14.4571Z" fill="#FFDA44"/>
</g>
<defs>
<clipPath id="clip0_3_25020">
<rect width="70" height="46.6666" fill="white" transform="translate(0 0.253906)"/>
</clipPath>
</defs>
</svg>
