<svg width="70" height="48" viewBox="0 0 70 48" fill="none" xmlns="http://www.w3.org/2000/svg">
<g clip-path="url(#clip0_3_24630)">
<path d="M0 0.589844H70V47.2565H0V0.589844Z" fill="white"/>
<path d="M0 0.589844H70V16.1499H0V0.589844Z" fill="#D80027"/>
<path d="M0 31.71H70V47.2701H0V31.71Z" fill="black"/>
<path d="M30.1191 28.5382C30.1191 28.5382 30.1191 20.553 30.7344 19.6916C31.1582 19.1037 33.0312 20.4026 33.8379 20.3069C33.8379 20.3069 34.4121 19.2814 34.4531 18.6661C34.4941 18.0372 34.3027 17.627 33.7832 17.8184C33.7832 17.8184 33.6191 17.5313 33.8516 17.3672C34.0703 17.2031 34.6172 17.3809 34.6172 17.3809C34.6172 17.3809 34.5488 17.2441 34.8359 17.2578C35.2324 17.2851 35.8203 17.4492 35.8477 18.0235C35.875 18.4474 35.8887 19.0763 35.9023 19.2131C35.998 20.1428 36.2715 20.4026 36.2715 20.4026C36.2715 20.4026 38.7871 19.1447 39.2793 19.6916C39.7305 20.2112 39.8945 28.5382 39.8945 28.5382L37.4199 26.2411L39.0742 30.2747C39.0742 30.2747 37.1055 30.6028 35.123 30.6028C33.1406 30.6028 30.8711 30.0286 30.8711 30.0286L32.7578 26.1727L30.1191 28.5382Z" fill="#C09300"/>
</g>
<defs>
<clipPath id="clip0_3_24630">
<rect width="70" height="46.6666" fill="white" transform="translate(0 0.589844)"/>
</clipPath>
</defs>
</svg>
