<svg width="70" height="47" viewBox="0 0 70 47" fill="none" xmlns="http://www.w3.org/2000/svg">
<g clip-path="url(#clip0_3_25145)">
<path d="M0 0.253906H70V46.9196H0V0.253906Z" fill="#D80027"/>
<path d="M0 32.7168H70V46.9191H0V32.7168Z" fill="#6DA544"/>
<path d="M0 0.253906H70V14.5431H0V0.253906Z" fill="#338AF3"/>
<path d="M0 17.417H70V29.6746H0V17.417Z" fill="white"/>
<path d="M0 0.253906H70V14.5431H0V0.253906Z" fill="#338AF3"/>
<path d="M25.7963 7.39721C25.7963 5.2119 27.3322 3.38602 29.3832 2.93826C29.0619 2.86786 28.734 2.83224 28.405 2.83203C25.8837 2.83203 23.8398 4.87584 23.8398 7.39721C23.8398 9.91858 25.8837 11.9624 28.405 11.9624C28.7411 11.9624 29.0681 11.9251 29.3832 11.8562C27.3322 11.4084 25.7963 9.58252 25.7963 7.39721ZM32.0813 9.47219L32.3904 10.4233H33.3905L32.5814 11.0114L32.8905 11.9624L32.0813 11.3745L31.2721 11.9624L31.5813 11.0114L30.7722 10.4233H31.7723L32.0813 9.47219ZM35.2734 9.47219L35.5823 10.4233H36.5824L35.7733 11.0114L36.0825 11.9624L35.2734 11.3745L34.4643 11.9624L34.7732 11.0114L33.9643 10.4233H34.9642L35.2734 9.47219ZM38.4653 9.47219L38.7743 10.4233H39.7744L38.9654 11.0114L39.2744 11.9624L38.4653 11.3745L37.6562 11.9624L37.9652 11.0114L37.1561 10.4233H38.1562L38.4653 9.47219ZM41.6573 9.47219L41.9666 10.4233H42.9667L42.1574 11.0114L42.4665 11.9624L41.6573 11.3745L40.8482 11.9624L41.1575 11.0114L40.3482 10.4233H41.3482L41.6573 9.47219ZM44.8494 9.47219L45.1584 10.4233H46.1585L45.3494 11.0114L45.6585 11.9624L44.8494 11.3745L44.0403 11.9624L44.3493 11.0114L43.5403 10.4233H44.5403L44.8494 9.47219ZM35.2734 6.15211L35.5823 7.10313H36.5824L35.7733 7.69102L36.0825 8.64217L35.2734 8.05441L34.4643 8.64217L34.7732 7.69102L33.9643 7.10313H34.9642L35.2734 6.15211ZM38.4653 6.15211L38.7743 7.10313H39.7744L38.9654 7.69102L39.2744 8.64217L38.4653 8.05441L37.6562 8.64217L37.9652 7.69102L37.1561 7.10313H38.1562L38.4653 6.15211ZM41.6573 6.15211L41.9666 7.10313H42.9667L42.1574 7.69102L42.4665 8.64217L41.6573 8.05441L40.8482 8.64217L41.1575 7.69102L40.3482 7.10313H41.3482L41.6573 6.15211ZM44.8494 6.15211L45.1584 7.10313H46.1585L45.3494 7.69102L45.6585 8.64217L44.8494 8.05441L44.0403 8.64217L44.3493 7.69102L43.5403 7.10313H44.5403L44.8494 6.15211ZM38.4653 2.83203L38.7743 3.78305H39.7744L38.9654 4.37094L39.2744 5.32209L38.4653 4.7342L37.6562 5.32209L37.9652 4.37094L37.1561 3.78305H38.1562L38.4653 2.83203ZM41.6573 2.83203L41.9666 3.78305H42.9667L42.1574 4.37094L42.4665 5.32209L41.6573 4.7342L40.8482 5.32209L41.1575 4.37094L40.3482 3.78305H41.3482L41.6573 2.83203ZM44.8494 2.83203L45.1584 3.78305H46.1585L45.3494 4.37094L45.6585 5.32209L44.8494 4.7342L44.0403 5.32209L44.3493 4.37094L43.5403 3.78305H44.5403L44.8494 2.83203Z" fill="white"/>
</g>
<defs>
<clipPath id="clip0_3_25145">
<rect width="70" height="46.6666" fill="white" transform="translate(0 0.25293)"/>
</clipPath>
</defs>
</svg>
