<svg width="70" height="47" viewBox="0 0 70 47" fill="none" xmlns="http://www.w3.org/2000/svg">
<g clip-path="url(#clip0_3_24960)">
<path d="M0 0.254883H70V46.9205H0V0.254883Z" fill="white"/>
<path d="M35 23.5869V46.9197H0V23.5869H35Z" fill="#0052B4"/>
<path d="M70 0.254883V23.5877H35V0.254883H70Z" fill="#D80027"/>
<path d="M17.5002 5.4082L19.1167 10.3833H24.348L20.1159 13.4582L21.7323 18.4333L17.5002 15.3585L13.268 18.4333L14.8845 13.4582L10.6523 10.3833H15.8836L17.5002 5.4082Z" fill="#0052B4"/>
<path d="M52.5002 28.7412L54.1167 33.7163H59.348L55.1159 36.7912L56.7323 41.7663L52.5002 38.6915L48.2681 41.7663L49.8845 36.7912L45.6523 33.7163H50.8836L52.5002 28.7412Z" fill="#D80027"/>
</g>
<defs>
<clipPath id="clip0_3_24960">
<rect width="70" height="46.6666" fill="white" transform="translate(0 0.253906)"/>
</clipPath>
</defs>
</svg>
