<svg width="70" height="48" viewBox="0 0 70 48" fill="none" xmlns="http://www.w3.org/2000/svg">
<g clip-path="url(#clip0_3_24765)">
<path d="M0 0.588867H70V47.2555H0V0.588867Z" fill="#E52D42"/>
<path d="M53.6667 9.89492H47.4172L42.8051 20.8384L38.1111 17.7136C38.1111 17.7136 34.7408 9.64931 33.4172 8.40759C32.0936 7.08401 30.8655 8.32572 26.7447 9.47192C22.7057 10.6181 22.5419 12.0236 20.9864 12.0236C20.3314 12.0236 18.271 9.63566 17.2067 8.98069C15.5556 7.91637 14.9006 8.40759 15.31 9.96315C15.4737 10.6181 16.7973 11.4505 17.616 12.6785C18.6804 14.2477 19.349 16.2127 19.349 16.2127C19.349 16.2127 20.8363 14.8072 21.655 14.5616C22.8831 14.2341 24.2885 14.8072 25.9396 14.5616C28 14.2341 30.2242 13.0743 30.2242 13.0743L30.7973 18.9963C30.7973 18.9963 23.388 25.9144 24.0429 28.6298C24.6979 31.3452 31.6979 34.7156 33.349 37.1853C35 39.5733 32.3665 40.4738 32.3665 41.6337C32.3665 42.7935 32.1209 44.3491 33.349 43.8579C34.577 43.3666 34.7544 41.3881 35.9006 39.5733C36.7193 38.3452 37.3061 37.6766 37.4698 37.1853C37.7154 35.9573 34.2632 32.8189 32.3665 30.5128C31.4659 29.4485 29.6511 27.9612 29.6511 27.9612L35 23.9222C35 23.9222 44.2242 27.7019 46.271 26.4739C48.3314 25.2458 48.9045 13.0606 48.9045 13.0606L55.3178 11.4914L53.6667 9.89492Z" fill="white"/>
<path d="M38.1108 36.3943C37.2921 36.3943 36.5416 35.7394 36.5416 34.8251C36.5416 33.9109 37.1966 33.2559 38.1108 33.2559C38.9295 33.2559 39.68 33.9109 39.68 34.8251C39.68 35.7394 38.9295 36.3943 38.1108 36.3943ZM44.3603 11.4509C43.5416 11.4509 42.7911 10.7959 42.7911 9.8817C42.7911 8.96747 43.4461 8.3125 44.3603 8.3125C45.179 8.3125 45.9295 8.96747 45.9295 9.8817C45.9295 10.7959 45.179 11.4509 44.3603 11.4509ZM44.3603 23.8817C43.5416 23.8817 42.7911 23.2267 42.7911 22.3125C42.7911 21.4938 43.4461 20.7433 44.3603 20.7433C45.179 20.7433 45.9295 21.3983 45.9295 22.3125C45.8477 23.2267 45.179 23.8817 44.3603 23.8817ZM25.68 30.1312C24.8613 30.1312 24.1108 29.4762 24.1108 28.562C24.1108 27.7433 24.7658 26.9928 25.68 26.9928C26.5806 26.9928 27.2492 27.6478 27.2492 28.562C27.2492 29.4762 26.4987 30.1312 25.68 30.1312ZM31.8477 11.4509C31.0289 11.4509 30.2785 10.7959 30.2785 9.8817C30.2785 8.96747 30.9334 8.3125 31.8477 8.3125C32.6664 8.3125 33.4169 8.96747 33.4169 9.8817C33.4169 10.7959 32.7619 11.4509 31.8477 11.4509ZM34.9724 23.8817C34.1537 23.8817 33.4032 22.4762 33.4032 20.7569C33.4032 19.0376 34.0582 17.6322 34.9724 17.6322C35.7911 17.6322 36.5416 19.0376 36.5416 20.7569C36.5416 22.4762 35.8866 23.8817 34.9724 23.8817ZM19.4169 17.714C18.5981 17.714 17.8477 17.0591 17.8477 16.1449C17.8477 15.2443 18.5026 14.5757 19.4169 14.5757C20.3174 14.5757 20.9861 15.2306 20.9861 16.1449C20.9861 17.0454 20.3311 17.714 19.4169 17.714Z" fill="#F8DD4E"/>
</g>
<defs>
<clipPath id="clip0_3_24765">
<rect width="70" height="46.6666" fill="white" transform="translate(0 0.588867)"/>
</clipPath>
</defs>
</svg>
