<svg width="70" height="48" viewBox="0 0 70 48" fill="none" xmlns="http://www.w3.org/2000/svg">
<g clip-path="url(#clip0_3_24755)">
<path d="M0 0.588867H69.8635V47.2555H0V0.588867Z" fill="white"/>
<path d="M0 0.588867H70V16.1444H0V0.588867Z" fill="#6DA544"/>
<path d="M0 31.6867H70V47.2423H0V31.6867ZM38.0429 18.983C38.0565 19.2559 39.23 22.5581 38.6433 24.3593C37.7427 27.1292 36.4873 27.3339 35.9415 27.7023V18.8739L35 18.3008L34.0585 18.8739V27.7023C33.5127 27.3339 32.3665 27.3748 31.3567 24.3593C30.77 22.6263 32.1345 19.2696 32.1481 19.0103C32.1481 19.0103 30.8519 20.1156 29.9922 22.2852C29.1871 24.3047 30.2515 29.0532 34.0175 29.7628C34.3314 29.8173 34.6589 30.5269 35 30.5269C35.2865 30.5269 35.5595 29.8173 35.8187 29.7764C39.694 29.1487 40.5945 24.0864 39.8986 22.1897C39.1618 20.1975 38.0429 18.983 38.0429 18.983Z" fill="#D80027"/>
<g opacity="0.5">
<path opacity="0.5" d="M6.08577 14.084H9.12866V17.4134H6.08577V14.084ZM0 14.084H3.04288V17.4134H0V14.084ZM12.1715 14.084H15.2144V17.4134H12.1715V14.084ZM18.2573 14.084H21.3002V17.4134H18.2573V14.084ZM24.3431 14.084H27.386V17.4134H24.3431V14.084ZM30.4289 14.084H33.4717V17.4134H30.4289V14.084ZM36.5283 14.084H39.5712V17.4134H36.5283V14.084ZM42.614 14.084H45.6569V17.4134H42.614V14.084ZM48.6998 14.084H51.7427V17.4134H48.6998V14.084ZM54.7856 14.084H57.8285V17.4134H54.7856V14.084ZM60.8713 14.084H63.9142V17.4134H60.8713V14.084ZM66.9571 14.084H70V17.4134H66.9571V14.084ZM6.08577 30.1853H9.12866V33.6649H6.08577V30.1853ZM0 30.1853H3.04288V33.6649H0V30.1853ZM12.1715 30.1853H15.2144V33.6649H12.1715V30.1853ZM18.2573 30.1853H21.3002V33.6649H18.2573V30.1853ZM24.3431 30.1853H27.386V33.6649H24.3431V30.1853ZM30.4289 30.1853H33.4717V33.6649H30.4289V30.1853ZM36.5283 30.1853H39.5712V33.6649H36.5283V30.1853ZM42.614 30.1853H45.6569V33.6649H42.614V30.1853ZM48.6998 30.1853H51.7427V33.6649H48.6998V30.1853ZM54.7856 30.1853H57.8285V33.6649H54.7856V30.1853ZM60.8713 30.1853H63.9142V33.6649H60.8713V30.1853ZM66.9571 30.1853H70V33.6649H66.9571V30.1853Z" fill="white"/>
</g>
</g>
<defs>
<clipPath id="clip0_3_24755">
<rect width="70" height="46.6666" fill="white" transform="translate(0 0.588867)"/>
</clipPath>
</defs>
</svg>
