<svg width="70" height="48" viewBox="0 0 70 48" fill="none" xmlns="http://www.w3.org/2000/svg">
<g clip-path="url(#clip0_3_24810)">
<path d="M0 0.588867H69.8635V4.83253H0V0.588867ZM0 9.07619H69.8635V13.3198H0V9.07619ZM0 17.5772H69.8635V21.8208H0V17.5772ZM0 26.0781H69.8635V30.3218H0V26.0781ZM0 34.6064H69.8635V38.85H0V34.6064ZM0 43.0118H69.8635V47.2555H0V43.0118Z" fill="#BF0A30"/>
<path d="M0 0.588867H21.232V21.8208H0V0.588867Z" fill="#002868"/>
<path d="M10.6168 4.70996L12.0769 9.19923H16.7981L12.9775 11.9829L14.4375 16.4721L10.6168 13.7022L6.79617 16.4721L8.25621 11.9829L4.43555 9.19923H9.15679L10.6168 4.70996Z" fill="white"/>
</g>
<defs>
<clipPath id="clip0_3_24810">
<rect width="70" height="46.6666" fill="white" transform="translate(0 0.588867)"/>
</clipPath>
</defs>
</svg>
