<svg width="70" height="48" viewBox="0 0 70 48" fill="none" xmlns="http://www.w3.org/2000/svg">
<g clip-path="url(#clip0_3_24990)">
<path d="M0 0.587891H70V47.2545H0V0.587891Z" fill="#01237A"/>
<path d="M52.3977 10.327L53.1185 12.5449H55.4504L53.5638 13.9156L54.2844 16.1335L52.3977 14.7625L50.5112 16.1335L51.2317 13.9156L49.3452 12.5449H51.6771L52.3977 10.327ZM42.8175 14.2952L44.8954 15.3538L46.5443 13.705L46.1795 16.0082L48.2573 17.0669L45.9541 17.4317L45.5892 19.735L44.5304 17.6572L42.2273 18.022L43.8765 16.3731L42.8175 14.2952ZM38.8493 23.8754L41.0672 23.1547L41.0673 20.8229L42.4379 22.7094L44.6558 21.9886L43.285 23.8754L44.6558 25.7619L42.4379 25.0415L41.0673 26.9279V24.596L38.8493 23.8754ZM42.8175 33.4555L43.8762 31.3775L42.2273 29.7286L44.5308 30.0935L45.5892 28.0157L45.9541 30.3189L48.2573 30.6835L46.1795 31.7422L46.5443 34.0458L44.8954 32.3965L42.8175 33.4555ZM52.3977 37.4235L51.6771 35.2058H49.3449L51.2317 33.8351L50.5112 31.6172L52.3977 32.9878L54.2844 31.6172L53.5638 33.8351L55.4504 35.2058H53.1185L52.3977 37.4235ZM61.9778 33.4555L59.8998 32.3969L58.251 34.0458L58.6158 31.7422L56.538 30.6839L58.8412 30.3189L59.2062 28.0157L60.2645 30.0935L62.568 29.7286L60.9188 31.3776L61.9778 33.4555ZM65.946 23.8754L63.7281 24.596V26.9279L62.3574 25.0413L60.1395 25.7619L61.5103 23.8754L60.1395 21.9886L62.3574 22.7094L63.7281 20.8229V23.1547L65.946 23.8754ZM61.9778 14.2955L60.9194 16.3731L62.568 18.022L60.2645 17.6572L59.2062 19.735L58.8412 17.4317L56.538 17.0667L58.6158 16.0082L58.251 13.7052L59.8999 15.3538L61.9778 14.2955ZM0 14.4151V16.5984H6.28622L0 20.7891V21.8178L7.82922 16.5982H10.9162L0 23.8758H15.2826V14.415H0V14.4151ZM13.0994 23.8755H3.08764L13.0994 17.2012V23.8755ZM24.0156 7.86543L34.9318 0.587891H19.6491V10.0487H34.9318V7.86543H28.6456L34.9318 3.67444V2.64573L27.1026 7.86515H24.0156V7.86543ZM21.8324 0.588163H31.8441L21.8324 7.26245V0.588163ZM19.6491 23.8758H34.9318L24.0156 16.5982H27.1026L34.9318 21.8179V20.7892L28.6456 16.5984H34.9318V14.4151H19.6491V23.8758ZM21.8324 17.2012L31.8441 23.8755H21.8324V17.2012ZM15.2826 0.587891H0L10.9162 7.86543H7.82922L0 2.64586V3.67457L6.28622 7.86529H0V10.0485H15.2826V0.587891ZM13.0994 7.26245L3.08764 0.588163H13.0994V7.26245Z" fill="white"/>
<path d="M19.6491 0.587891H15.2827V10.0487H0V14.4151H15.2827V23.8758H19.6491V14.4151H34.9318V10.0487H19.6491V0.587891Z" fill="#D80027"/>
<path d="M10.9162 7.86543L0 0.587891V2.64586L7.82922 7.86543H10.9162ZM24.0156 7.86543H27.1026L34.9318 2.64586V0.587891L24.0156 7.86543ZM7.82922 16.5984L0 21.8179V23.8758L10.9162 16.5984H7.82922ZM24.0156 16.5984L34.9318 23.8758V21.8179L27.1026 16.5984H24.0156Z" fill="#D80027"/>
</g>
<defs>
<clipPath id="clip0_3_24990">
<rect width="70" height="46.6666" fill="white" transform="translate(0 0.587891)"/>
</clipPath>
</defs>
</svg>
