<svg width="70" height="47" viewBox="0 0 70 47" fill="none" xmlns="http://www.w3.org/2000/svg">
<g clip-path="url(#clip0_3_25070)">
<path d="M0 0.253906H70V46.9205H0V0.253906Z" fill="#FFDA44"/>
<path d="M30.375 3.29688H66.8214V43.7959H30.375V3.29688Z" fill="#A2001D"/>
<path d="M3.04297 3.29688H30.3743V43.7959H3.04297V3.29688Z" fill="#D80027"/>
<path d="M27.332 0.253906H30.3749V46.9205H27.332V0.253906Z" fill="#FFDA44"/>
<path d="M3.04297 3.29688H15.1872V43.7959H3.04297V3.29688Z" fill="#6DA544"/>
<path d="M15.1875 3.29688H27.3317V43.7959H15.1875V3.29688Z" fill="#FF9811"/>
<path d="M50.2417 21.6493C50.0507 21.3764 50.2417 16.4777 50.2417 16.4777C50.3645 15.468 50.2553 15.3315 50.3781 14.9222C50.5009 14.5265 51.115 13.3393 51.115 13.3393C51.115 13.3393 50.2963 13.0255 49.7095 13.2575C49.1228 13.4894 46.3392 12.2341 45.4522 13.7214C44.8518 14.6766 42.2319 15.9319 42.0955 15.6317C41.959 15.3315 41.2904 14.9495 41.154 15.236C41.0175 15.5226 41.0585 17.1327 41.154 17.4193C41.2631 17.774 42.4912 17.6922 42.8323 17.8423C43.3372 18.0879 44.497 18.9612 44.4561 19.3023C44.4152 19.6434 41.3859 18.4836 41.154 18.6883C40.9629 18.852 40.8947 20.4894 41.0994 20.735C41.345 21.0216 44.2924 21.4992 44.5107 21.7584C44.729 22.0177 42.7232 22.7682 42.8323 25.1697C42.9278 27.1756 43.9239 27.544 43.9239 27.544C43.9239 27.544 43.5965 28.0352 42.8596 27.967C42.0136 27.8851 39.1208 25.5518 39.1208 25.5518C39.1208 25.5518 38.6432 10.6785 39.6121 8.98651C40.2807 7.82667 36.5146 10.3647 36.5146 15.9183V20.8578C36.5146 21.7584 36.3236 23.9144 36.8694 25.4972C36.8694 25.4972 36.8148 31.8968 37.074 32.2652C37.3333 32.6337 38.807 32.5654 39.0935 32.2652C39.3801 31.965 39.0935 28.1717 39.0935 28.1717C40.1442 28.199 41.5906 30.5596 43.5282 30.4095C46.3392 30.1912 47.4444 29.0586 48.2085 29.7272C49.3138 30.696 48.959 32.8929 48.2631 34.0255C47.9629 34.5031 46.3119 34.6668 46.1208 35.0625C45.9298 35.4582 46.1891 35.7993 46.1891 35.7993H50.2417C50.2417 35.7993 50.4327 33.0021 50.6101 32.2379C50.7875 31.4602 50.5282 30.7779 51.4152 30.8188C54.6218 30.9689 56.846 28.7311 57.6238 29.7272C58.0604 30.2867 58.3879 33.8071 58.074 34.2711C57.7739 34.735 56.191 34.6532 56 35.1853C55.8089 35.7311 56.1091 35.7857 56.1091 35.7857H60.1618C60.1618 35.7857 60.1072 32.8929 60.5029 32.006C60.8986 31.119 61.1715 30.5869 61.7719 29.659C62.3723 28.7311 63.3138 27.5167 63.3138 24.7194C63.3138 22.7818 62.2085 21.6083 62.2085 21.6083H56.9006C54.9766 21.6356 50.4327 21.9222 50.2417 21.6493ZM31.6842 4.66098C33.1442 3.21459 34.4405 4.29256 34.7134 4.94753C34.9727 5.6025 35 6.06644 35.0955 6.80328C35.2183 7.7448 35.7641 8.71361 35.7641 8.71361C35.7641 8.71361 34.7953 8.19509 33.7583 8.14051C33.1169 8.09958 32.5302 8.05864 31.9025 7.79938C31.1247 7.48554 30.306 6.03915 31.6842 4.66098ZM65.5789 4.64734C67.039 6.09373 65.961 7.40367 65.306 7.67657C64.651 7.94948 64.1871 7.96312 63.4503 8.05864C62.5087 8.18145 61.5399 8.7409 61.5399 8.7409C61.5399 8.7409 62.0448 7.77209 62.113 6.73505C62.154 6.09373 62.1949 5.49334 62.4405 4.87931C62.7407 4.10153 64.1871 3.26917 65.5789 4.64734ZM65.5926 42.4309C64.1325 43.8773 62.8362 42.7857 62.5633 42.1307C62.3041 41.4758 62.2768 41.0118 62.1949 40.275C62.0857 39.3335 61.5263 38.351 61.5263 38.351C61.5263 38.351 62.4815 38.8695 63.5321 38.9377C64.1735 38.9787 64.7602 39.0196 65.3879 39.2789C66.1657 39.6064 66.9844 41.0664 65.5926 42.4309ZM31.7251 42.4173C30.2787 40.9572 31.3567 39.6609 32.0117 39.388C32.6666 39.1288 33.1306 39.1015 33.8674 39.006C34.8089 38.8832 35.7778 38.3374 35.7778 38.3374C35.7778 38.3374 35.2592 39.3062 35.2047 40.3432C35.1637 40.9845 35.1228 41.5713 34.8635 42.199C34.5497 42.9767 33.1033 43.8091 31.7251 42.4173Z" fill="#FFDA44"/>
<path fill-rule="evenodd" clip-rule="evenodd" d="M53.0848 15.3122C52.7919 15.5638 52.5746 15.97 52.5746 16.6549C52.5746 17.243 52.9329 17.7728 53.6485 18.1031C54.3699 18.4362 55.4325 18.547 56.7113 18.2485C58.0951 17.9242 59.521 18.0271 60.6027 18.3713C61.1424 18.543 61.6195 18.7821 61.9648 19.0795C62.3067 19.374 62.5674 19.7716 62.5346 20.2441C62.4679 21.243 62.1528 21.878 61.8189 22.2707C61.654 22.4647 61.49 22.5929 61.361 22.6747C61.2967 22.7155 61.2412 22.7446 61.1987 22.7646C61.1775 22.7746 61.1595 22.7823 61.1452 22.7881C61.1381 22.791 61.1319 22.7934 61.1267 22.7954C61.1241 22.7963 61.1217 22.7972 61.1196 22.798L61.1167 22.799L61.1153 22.7995L61.1147 22.7997C61.1144 22.7998 61.1141 22.7999 60.98 22.4131C60.846 22.0264 60.8457 22.0265 60.8454 22.0266L60.8448 22.0268L60.8438 22.0271L60.8419 22.0278L60.8392 22.0288C60.8379 22.0293 60.8375 22.0294 60.8379 22.0293C60.8387 22.029 60.8428 22.0273 60.8498 22.024C60.8638 22.0174 60.8892 22.0044 60.9227 21.9832C60.9894 21.9409 61.089 21.8653 61.1952 21.7403C61.4037 21.4951 61.6616 21.0319 61.7178 20.189L61.7179 20.1878C61.7258 20.0739 61.6692 19.9054 61.4305 19.6998C61.1951 19.497 60.8279 19.3021 60.3545 19.1514C59.4098 18.8509 58.1341 18.7559 56.898 19.0456L56.8977 19.0457C55.4884 19.3748 54.2315 19.2741 53.3053 18.8464C52.3731 18.4161 51.7559 17.6359 51.7559 16.6549C51.7559 15.7774 52.0451 15.126 52.5513 14.6912C53.0432 14.2686 53.688 14.0954 54.3211 14.053C55.5782 13.9687 56.9808 14.3869 57.6656 14.7516L57.6673 14.7525L57.6673 14.7525C57.9469 14.9031 58.297 15.1395 58.6599 15.3845C58.7296 15.4316 58.7997 15.479 58.87 15.5261C59.3196 15.828 59.7914 16.1347 60.2411 16.3608C60.7025 16.5927 61.0805 16.7079 61.3546 16.6922C61.4809 16.685 61.5745 16.6505 61.6492 16.5939C61.7253 16.5363 61.8093 16.4347 61.8804 16.2492L62.645 16.542C62.5318 16.8375 62.3668 17.0775 62.1434 17.2467C61.9185 17.417 61.6618 17.4946 61.4015 17.5096C60.9026 17.5382 60.3621 17.3379 59.8734 17.0922C59.3731 16.8407 58.8633 16.5078 58.4136 16.2059C58.3372 16.1545 58.2629 16.1044 58.1909 16.0558C57.8267 15.8101 57.5199 15.6031 57.28 15.4738C56.7091 15.17 55.4583 14.7972 54.3758 14.8698C53.8388 14.9058 53.392 15.0482 53.0848 15.3122Z" fill="#FFDA44"/>
</g>
<defs>
<clipPath id="clip0_3_25070">
<rect width="70" height="46.6666" fill="white" transform="translate(0 0.253906)"/>
</clipPath>
</defs>
</svg>
