<svg width="70" height="48" viewBox="0 0 70 48" fill="none" xmlns="http://www.w3.org/2000/svg">
<g clip-path="url(#clip0_3_25055)">
<path d="M0 0.587891H70V47.2535H0V0.587891Z" fill="white"/>
<path d="M0 16.1426H70V31.6978H0V16.1426Z" fill="#0052B4"/>
<path d="M0 31.6982H70V47.2534H0V31.6982Z" fill="#D80027"/>
<path d="M31.9379 15.8043V17.8328C31.9379 22.4923 25.851 23.9197 25.851 23.9197C25.851 23.9197 19.764 22.4924 19.764 17.8328V15.8043L19.7441 9.76293L31.918 9.72656L31.9379 15.8043Z" fill="white"/>
<path d="M31.9379 15.8043V17.8328C31.9379 22.4923 25.851 23.9197 25.851 23.9197C25.851 23.9197 19.764 22.4924 19.764 17.8328V15.8043L19.7441 9.76293L31.918 9.72656L31.9379 15.8043Z" fill="#0052B4"/>
<path d="M31.9377 15.8041V17.8326C31.9377 22.4921 25.8507 23.9195 25.8507 23.9195C25.8507 23.9195 19.7637 22.4922 19.7637 17.8326V15.8041L21.7937 17.8326L25.8507 14.7891L29.9092 17.8326L31.9377 15.8041Z" fill="white"/>
</g>
<defs>
<clipPath id="clip0_3_25055">
<rect width="70" height="46.6666" fill="white" transform="translate(0 0.586914)"/>
</clipPath>
</defs>
</svg>
