<svg width="70" height="47" viewBox="0 0 70 47" fill="none" xmlns="http://www.w3.org/2000/svg">
<g clip-path="url(#clip0_3_25130)">
<path d="M0 0.25293H70V46.9201H0V0.25293Z" fill="white"/>
<path d="M39.375 0.25293H30.625V19.2112H0V27.9612H30.625V46.9194H39.375V27.9612H70V19.2112H39.375V0.25293Z" fill="#D80027"/>
<path d="M53.8385 31.7021L70.0007 40.6813V31.7021H53.8385ZM42.6094 31.7021L70.0007 46.9195V42.6164L50.3552 31.7021H42.6094ZM62.7046 46.9195L42.6094 35.7545V46.9195H62.7046Z" fill="#0052B4"/>
<path d="M42.6094 31.7021L70.0007 46.9195V42.6164L50.3552 31.7021H42.6094Z" fill="white"/>
<path d="M42.6094 31.7021L70.0007 46.9195V42.6164L50.3552 31.7021H42.6094Z" fill="#D80027"/>
<path d="M12.3513 31.7012L0 38.5631V31.7012H12.3513ZM27.3913 33.6363V46.9187H3.4851L27.3913 33.6363Z" fill="#0052B4"/>
<path d="M19.6455 31.7021L0 42.6164V46.9195L27.3913 31.7021H19.6455Z" fill="#D80027"/>
<path d="M16.1622 15.4693L0 6.49015V15.4693H16.1622ZM27.3913 15.4693L0 0.251953V4.55504L19.6455 15.4693H27.3913ZM7.29613 0.251953L27.3913 11.417V0.251953H7.29613Z" fill="#0052B4"/>
<path d="M27.3913 15.4703L0 0.25293V4.55602L19.6455 15.4703H27.3913Z" fill="white"/>
<path d="M27.3913 15.4703L0 0.25293V4.55602L19.6455 15.4703H27.3913Z" fill="#D80027"/>
<path d="M57.6494 15.4704L70.0007 8.6085V15.4704H57.6494ZM42.6094 13.5353V0.25293H66.5156L42.6094 13.5353Z" fill="#0052B4"/>
<path d="M50.3552 15.4703L70.0007 4.55602V0.25293L42.6094 15.4703H50.3552Z" fill="#D80027"/>
</g>
<defs>
<clipPath id="clip0_3_25130">
<rect width="70" height="46.6666" fill="white" transform="translate(0 0.25293)"/>
</clipPath>
</defs>
</svg>
