<svg width="70" height="48" viewBox="0 0 70 48" fill="none" xmlns="http://www.w3.org/2000/svg">
<g clip-path="url(#clip0_3_24450)">
<path d="M0 0.589844H70V47.2565H0V0.589844Z" fill="#DB3E00"/>
<path d="M45.166 0.589844H70.0003V47.2565H45.166V0.589844Z" fill="#479900"/>
<path d="M0 0.589844H24.807V47.2565H0V0.589844Z" fill="black"/>
<path d="M34.932 17.8789C32.2849 17.8789 30.1289 20.0348 30.1289 22.682V29.8867H39.7351V22.682C39.7351 20.0212 37.5792 17.8789 34.932 17.8789Z" fill="white"/>
<path d="M34.9321 12.0918C28.4233 12.0918 23.1426 17.3725 23.1426 23.8813C23.1426 30.39 28.4233 35.6571 34.9321 35.6571C41.4408 35.6571 46.7215 30.3764 46.7215 23.8676C46.7215 17.3588 41.4408 12.0918 34.9321 12.0918ZM34.9321 33.6103C29.5558 33.6103 25.1894 29.2438 25.1894 23.8676C25.1894 18.4914 29.5558 14.1249 34.9321 14.1249C40.3083 14.1249 44.6747 18.4914 44.6747 23.8676C44.6747 29.2575 40.3083 33.6103 34.9321 33.6103Z" fill="white"/>
</g>
<defs>
<clipPath id="clip0_3_24450">
<rect width="70" height="46.6666" fill="white" transform="translate(0 0.589844)"/>
</clipPath>
</defs>
</svg>
