<svg width="70" height="48" viewBox="0 0 70 48" fill="none" xmlns="http://www.w3.org/2000/svg">
<g clip-path="url(#clip0_3_24885)">
<path d="M0 0.587891H70V47.2545H0V0.587891Z" fill="#095FAD"/>
<path d="M46.6667 0.587891H70V47.2545H46.6667V0.587891ZM0 0.587891H23.3333V47.2545H0V0.587891Z" fill="#BE1229"/>
<path d="M14.7771 23.2793H16.7966V33.404H14.7771V23.2793ZM6.67188 23.2793H8.69137V33.404H6.67188V23.2793Z" fill="#FFDA44"/>
<path d="M11.7343 30.3612C12.8497 30.3612 13.7538 29.4571 13.7538 28.3418C13.7538 27.2264 12.8497 26.3223 11.7343 26.3223C10.619 26.3223 9.71484 27.2264 9.71484 28.3418C9.71484 29.4571 10.619 30.3612 11.7343 30.3612Z" fill="#FFDA44"/>
<path d="M9.71484 31.3846H13.7675V33.404H9.71484V31.3846ZM9.71484 23.2793H13.7675V25.2988H9.71484V23.2793Z" fill="#FFDA44"/>
<path d="M11.7343 22.2558C12.8497 22.2558 13.7538 21.3516 13.7538 20.2363C13.7538 19.121 12.8497 18.2168 11.7343 18.2168C10.619 18.2168 9.71484 19.121 9.71484 20.2363C9.71484 21.3516 10.619 22.2558 11.7343 22.2558Z" fill="#FFDA44"/>
<path d="M10.4102 17.4939H13.071L11.7337 15.3652L10.4102 17.4939Z" fill="#FFDA44"/>
</g>
<defs>
<clipPath id="clip0_3_24885">
<rect width="70" height="46.6666" fill="white" transform="translate(0 0.587891)"/>
</clipPath>
</defs>
</svg>
