<svg width="70" height="47" viewBox="0 0 70 47" fill="none" xmlns="http://www.w3.org/2000/svg">
<g clip-path="url(#clip0_3_24785)">
<path d="M0 0.255859H70V46.923H0V0.255859Z" fill="white"/>
<path d="M0 0.255859H70V12.6397H0V0.255859Z" fill="black"/>
<path d="M0 34.5391H70V46.9214H0V34.5391Z" fill="#496E2D"/>
<path d="M0 15.7422H70V31.4374H0V15.7422Z" fill="#A2001D"/>
<path d="M44.1955 7.70338L40.6978 6.08887L34.9991 18.9927L29.3004 6.08887L25.8027 7.70338L32.8778 23.5889L25.8027 39.4745L29.3004 41.0889L34.9991 28.1852L40.6978 41.0889L44.1955 39.4745L37.1204 23.5889L44.1955 7.70338Z" fill="white"/>
<path d="M37.3743 9.22424C36.0202 7.74549 34.9987 6.89551 34.9987 6.89551C34.9987 6.89551 33.9771 7.74535 32.623 9.2241V37.9524C33.9771 39.4311 34.9987 40.2813 34.9987 40.2813C34.9987 40.2813 36.0202 39.4314 37.3743 37.9525V9.22424Z" fill="white"/>
<path d="M28.5801 14.7339V32.4438C30.0108 34.9788 31.7621 37.0569 33.0743 38.4345V8.74316C31.7619 10.1207 30.0107 12.1987 28.5801 14.7339ZM41.4207 14.7339C39.9899 12.1987 38.2387 10.1207 36.9265 8.74316V38.4346C38.2388 37.0569 39.9899 34.9789 41.4207 32.4439V14.7339Z" fill="#A2001D"/>
<path d="M41.4205 14.7334V32.4433C42.8689 29.8765 43.9886 26.8415 43.9886 23.5884C43.9886 20.3353 42.8689 17.3003 41.4205 14.7334ZM28.5798 14.7334V32.4433C27.1314 29.8765 26.0117 26.8415 26.0117 23.5884C26.0117 20.3353 27.1314 17.3003 28.5798 14.7334Z" fill="black"/>
</g>
<defs>
<clipPath id="clip0_3_24785">
<rect width="70" height="46.6666" fill="white" transform="translate(0 0.255859)"/>
</clipPath>
</defs>
</svg>
