<svg width="70" height="48" viewBox="0 0 70 48" fill="none" xmlns="http://www.w3.org/2000/svg">
<g clip-path="url(#clip0_3_24915)">
<path d="M0 0.921875H70V47.589H0V0.921875Z" fill="#0052B4"/>
<path d="M58.1459 21.2132L58.6091 22.6389H60.108L58.8953 23.52L59.3585 24.9455L58.1459 24.0645L56.9331 24.9455L57.3963 23.52L56.1836 22.6389H57.6824L58.1459 21.2132ZM52.7874 31.477L53.4823 33.6155H55.7306L53.9116 34.9372L54.6064 37.0755L52.7874 35.7538L50.9683 37.0755L51.6633 34.9372L49.8442 33.6155H52.0926L52.7874 31.477ZM52.9898 14.6816L53.569 16.4639H55.4426L53.9266 17.565L54.5056 19.347L52.9898 18.2456L51.4739 19.347L52.0529 17.565L50.5371 16.4639H52.4107L52.9898 14.6816ZM47.8339 21.1512L48.5287 23.2896H50.7772L48.958 24.6111L49.6531 26.7495L47.8339 25.428L46.0149 26.7495L46.7097 24.6111L44.8906 23.2896H47.139L47.8339 21.1512Z" fill="#D80027"/>
<path d="M35 0.921875V5.10055L28.8233 8.53055H35V16.646H26.9181L35 21.1367V24.2547H31.351L21.3043 18.673V24.2547H13.6957V17.6139L1.74248 24.2547H0V20.0775L6.17531 16.646H0V8.53055H8.08049L0 4.04152V0.921875H3.64766L13.6957 6.50519V0.921875H21.3043V7.56271L33.2577 0.921875H35Z" fill="white"/>
<path d="M19.6875 0.921875H15.3125V10.4011H0V14.7761H15.3125V24.2554H19.6875V14.7761H35V10.4011H19.6875V0.921875Z" fill="#D80027"/>
<path d="M21.3047 16.6465L35.0004 24.2554V22.1036L25.1775 16.6465H21.3047Z" fill="#0052B4"/>
<path d="M21.3047 16.6465L35.0004 24.2554V22.1036L25.1775 16.6465H21.3047Z" fill="white"/>
<path d="M21.3043 16.6465L35 24.2554V22.1036L25.1772 16.6465H21.3043ZM9.8227 16.6465L0 22.1036V24.2554L13.6957 16.6465H9.8227Z" fill="#D80027"/>
<path d="M13.6957 8.53068L0 0.921875V3.07355L9.82283 8.53068H13.6957Z" fill="#0052B4"/>
<path d="M13.6957 8.53068L0 0.921875V3.07355L9.82283 8.53068H13.6957Z" fill="white"/>
<path d="M13.6957 8.52971L0 0.920898V3.07258L9.82283 8.52971H13.6957ZM25.1773 8.52971L35 3.07258V0.920898L21.3043 8.52971H25.1773Z" fill="#D80027"/>
</g>
<defs>
<clipPath id="clip0_3_24915">
<rect width="70" height="46.6666" fill="white" transform="translate(0 0.921875)"/>
</clipPath>
</defs>
</svg>
