<svg width="70" height="48" viewBox="0 0 70 48" fill="none" xmlns="http://www.w3.org/2000/svg">
<g clip-path="url(#clip0_3_24730)">
<path d="M0 0.922852H70V47.5895H0V0.922852Z" fill="white"/>
<path d="M0 0.922852H70V16.4784H0V0.922852ZM0 32.0339H70V47.5895H0V32.0339ZM27.768 17.0106L28.6823 19.2757L31.0838 19.4121L29.1735 20.8994L29.8148 23.3146L27.768 21.9638L25.7212 23.3146L26.3626 20.8994L24.4522 19.4121L26.8538 19.2757L27.768 17.0106ZM42.0955 17.0106L43.0098 19.2757L45.4113 19.4121L43.501 20.8994L44.1423 23.3146L42.0955 21.9638L40.0487 23.3146L40.6901 20.8994L38.7797 19.4121L41.1813 19.2757L42.0955 17.0106ZM34.9318 21.0632L35.846 23.3283L38.2476 23.4647L36.3372 24.9521L36.9786 27.3673L34.9318 26.0164L32.885 27.3673L33.5263 24.9521L31.616 23.4647L34.0175 23.3283L34.9318 21.0632ZM27.768 25.1158L28.6823 27.3809L31.0838 27.5174L29.1735 29.0047L29.8148 31.4062L27.768 30.0554L25.7212 31.4062L26.3626 29.0047L24.4522 27.5174L26.8538 27.3809L27.768 25.1158ZM42.0955 25.1158L43.0098 27.3809L45.4113 27.5174L43.501 29.0047L44.1423 31.4062L42.0955 30.0554L40.0487 31.4062L40.6901 29.0047L38.7797 27.5174L41.1813 27.3809L42.0955 25.1158Z" fill="#338AF3"/>
</g>
<defs>
<clipPath id="clip0_3_24730">
<rect width="70" height="46.6666" fill="white" transform="translate(0 0.922852)"/>
</clipPath>
</defs>
</svg>
