<svg width="70" height="48" viewBox="0 0 70 48" fill="none" xmlns="http://www.w3.org/2000/svg">
<g clip-path="url(#clip0_3_25065)">
<path d="M0 0.619141H69.8635V47.2858H0V0.619141Z" fill="white"/>
<path d="M0 0.619141H69.8635V13.0636H0V0.619141ZM0 34.8414H69.8635V47.2858H0V34.8414Z" fill="#D03433"/>
<path d="M0 13.0371H69.8635V34.8695H0V13.0371Z" fill="#FBCA46"/>
<path d="M24.2188 22.3975H27.3238V23.953H24.2188V22.3975Z" fill="white"/>
<path d="M22.3572 27.064C22.3572 27.9974 23.2887 28.6196 24.2202 28.6196C25.1517 28.6196 26.0832 27.9974 26.0832 27.064L26.3937 22.3974H22.0467L22.3572 27.064ZM20.4941 22.3974C20.4941 21.464 21.1152 20.8418 21.7362 20.8418H26.3937C27.3252 20.8418 27.9463 21.464 27.9463 22.0862V22.3974L27.6357 27.064C27.3252 28.9307 26.0832 30.1751 24.2202 30.1751C22.3572 30.1751 21.1151 28.9307 20.8046 27.064L20.4941 22.3974Z" fill="#A41517"/>
<path d="M21.1146 23.9526H27.3247V25.5081H25.7722L24.2196 28.6192L22.6671 25.5081H21.1146V23.9526ZM16.457 19.2859H19.5621V30.1748H16.457V19.2859ZM28.8772 19.2859H31.9823V30.1748H28.8772V19.2859ZM21.1146 17.7304C21.1146 16.797 21.7356 16.1748 22.6671 16.1748H25.7722C26.7037 16.1748 27.3247 16.797 27.3247 17.7304V18.3526C27.3247 18.9748 27.0142 19.2859 26.3932 19.2859H21.7356C21.4251 19.2859 21.1146 18.9748 21.1146 18.6637V17.7304Z" fill="#A41517"/>
</g>
<defs>
<clipPath id="clip0_3_25065">
<rect width="70" height="46.6666" fill="white" transform="translate(0 0.586914)"/>
</clipPath>
</defs>
</svg>
