<svg width="70" height="48" viewBox="0 0 70 48" fill="none" xmlns="http://www.w3.org/2000/svg">
<g clip-path="url(#clip0_3_24930)">
<path d="M0 0.587891H70V47.2545H0V0.587891Z" fill="white"/>
<path d="M0 0.587891H70V4.17658H0V0.587891ZM0 7.76527H70V11.354H0V7.76527ZM0 14.9427H70V18.5313H0V14.9427ZM0 22.12H70V25.7087H0V22.12ZM0 29.3111H70V32.8997H0V29.3111ZM0 36.4884H70V40.0771H0V36.4884ZM0 43.6658H70V47.2545H0V43.6658Z" fill="#D80027"/>
<path d="M0 0.587891H35V25.7087H0V0.587891Z" fill="#2E52B2"/>
<path d="M6.52159 19.5408L5.97578 17.7942L5.37539 19.5408H3.57422L5.03426 20.5915L4.48845 22.3381L5.97578 21.2601L7.42217 22.3381L6.86272 20.5915L8.35005 19.5408H6.52159ZM14.2038 19.5408L13.6444 17.7942L13.0713 19.5408H11.2701L12.7302 20.5915L12.1844 22.3381L13.6444 21.2601L15.1181 22.3381L14.5723 20.5915L16.0323 19.5408H14.2038ZM21.9134 19.5408L21.3267 17.7942L20.7808 19.5408H18.9387L20.4397 20.5915L19.8666 22.3381L21.3267 21.2601L22.8276 22.3381L22.2545 20.5915L23.7146 19.5408H21.9134ZM29.582 19.5408L29.0362 17.7942L28.4631 19.5408H26.6483L28.122 20.5915L27.5762 22.3381L29.0362 21.2601L30.5099 22.3381L29.9231 20.5915L31.4241 19.5408H29.582ZM13.6444 10.8625L13.0713 12.6091H11.2701L12.7302 13.687L12.1844 15.4063L13.6444 14.342L15.1181 15.4063L14.5723 13.687L16.0323 12.6091H14.2038L13.6444 10.8625ZM5.97578 10.8625L5.37539 12.6091H3.57422L5.03426 13.687L4.48845 15.4063L5.97578 14.342L7.42217 15.4063L6.86272 13.687L8.35005 12.6091H6.52159L5.97578 10.8625ZM21.3267 10.8625L20.7808 12.6091H18.9387L20.4397 13.687L19.8666 15.4063L21.3267 14.342L22.8276 15.4063L22.2545 13.687L23.7146 12.6091H21.9134L21.3267 10.8625ZM29.0362 10.8625L28.4631 12.6091H26.6483L28.122 13.687L27.5762 15.4063L29.0362 14.342L30.5099 15.4063L29.9231 13.687L31.4241 12.6091H29.582L29.0362 10.8625ZM5.97578 3.95801L5.37539 5.6773H3.57422L5.03426 6.75528L4.48845 8.48822L5.97578 7.41025L7.42217 8.48822L6.86272 6.75528L8.35005 5.6773H6.52159L5.97578 3.95801ZM13.6444 3.95801L13.0713 5.6773H11.2701L12.7302 6.75528L12.1844 8.48822L13.6444 7.41025L15.1181 8.48822L14.5723 6.75528L16.0323 5.6773H14.2038L13.6444 3.95801ZM21.3267 3.95801L20.7808 5.6773H18.9387L20.4397 6.75528L19.8666 8.48822L21.3267 7.41025L22.8276 8.48822L22.2545 6.75528L23.7146 5.6773H21.9134L21.3267 3.95801ZM29.0362 3.95801L28.4631 5.6773H26.6483L28.122 6.75528L27.5762 8.48822L29.0362 7.41025L30.5099 8.48822L29.9231 6.75528L31.4241 5.6773H29.582L29.0362 3.95801Z" fill="white"/>
</g>
<defs>
<clipPath id="clip0_3_24930">
<rect width="70" height="46.6666" fill="white" transform="translate(0 0.587891)"/>
</clipPath>
</defs>
</svg>
