<svg width="70" height="47" viewBox="0 0 70 47" fill="none" xmlns="http://www.w3.org/2000/svg">
<g clip-path="url(#clip0_3_24965)">
<path d="M0 0.254883H70V46.9205H0V0.254883Z" fill="white"/>
<path d="M0 0.254883H70V15.8101H0V0.254883Z" fill="#D80027"/>
<path d="M0 31.3652H70V46.9204H0V31.3652Z" fill="#0052B4"/>
<path d="M39.5913 18.2197L37.8698 19.9413C38.6039 20.6757 39.0583 21.6902 39.0583 22.8107C39.0583 25.0518 37.2414 26.8686 35.0004 26.8686C32.7594 26.8686 30.9426 25.0517 30.9426 22.8107C30.9426 21.6903 31.3968 20.6757 32.1311 19.9413L30.4096 18.2197C29.2346 19.3947 28.5078 21.0178 28.5078 22.8106C28.5078 26.3965 31.4146 29.3032 35.0004 29.3032C38.5863 29.3032 41.4931 26.3965 41.4931 22.8106C41.4931 21.0179 40.7663 19.3947 39.5913 18.2197Z" fill="#6DA544"/>
<path d="M34.9995 20.376L35.6039 22.236H37.5596L35.9773 23.3856L36.5818 25.2455L34.9995 24.096L33.4173 25.2455L34.0217 23.3856L32.4395 22.236H34.3951L34.9995 20.376Z" fill="#FFDA44"/>
</g>
<defs>
<clipPath id="clip0_3_24965">
<rect width="70" height="46.6666" fill="white" transform="translate(0 0.253906)"/>
</clipPath>
</defs>
</svg>
