<svg width="70" height="48" viewBox="0 0 70 48" fill="none" xmlns="http://www.w3.org/2000/svg">
<g clip-path="url(#clip0_3_24455)">
<path d="M0 0.589844H70V47.2565H0V0.589844Z" fill="#ED2024"/>
<path d="M25.2773 10.0788V22.5232L30.7996 24.4677L26.9107 28.2788L28.7773 30.6121L32.8996 26.3344L33.8329 28.1232L31.4996 31.9343L34.2996 36.2899L32.8996 38.3121L35.0773 41.1121L37.1773 38.2343L36.0107 36.2121L38.344 31.701L36.244 28.1232L37.1773 26.3344L41.2218 30.6121L43.1662 28.3566L39.1218 24.3899L44.7218 22.3677V10.0788L40.6773 11.5566L40.5996 14.5121L38.0329 14.7455V12.7233L39.3551 10.9344L43.7107 9.22326L41.9218 8.91215L43.0107 7.97882L43.7107 8.28993L43.0885 7.20104L41.9996 7.58993L41.2218 6.73438L36.944 7.58993L38.0329 8.44548L35.0773 12.2566L32.1218 8.52326L33.1329 7.66771L29.244 6.73438L28.1551 7.58993L26.9885 7.27882L26.3662 8.36771L27.0662 7.90104L28.3107 8.7566L26.5218 9.14548L30.7996 10.701L32.044 12.4899V14.7455L29.4773 14.5121V11.7121L25.2773 10.0788Z" fill="#212121"/>
<path d="M20.377 20.0335H25.3547V21.9779H20.377V20.0335ZM20.377 16.8446H25.3547V18.9446H20.377V16.8446ZM20.377 13.5779H25.3547V15.6001H20.377V13.5779ZM20.377 10.4668H25.3547V12.4112H20.377V10.4668Z" fill="#212121"/>
<path d="M44.6445 20.0335H49.6223V21.9779H44.6445V20.0335ZM44.6445 16.8446H49.6223V18.9446H44.6445V16.8446ZM44.6445 13.5779H49.6223V15.6001H44.6445V13.5779ZM44.6445 10.4668H49.6223V12.4112H44.6445V10.4668Z" fill="#212121"/>
<path d="M41.5327 28.668H46.5105V30.1457H41.5327V28.668ZM23.4883 28.668H28.4661V30.1457H23.4883V28.668Z" fill="#212121"/>
</g>
<defs>
<clipPath id="clip0_3_24455">
<rect width="70" height="46.6666" fill="white" transform="translate(0 0.589844)"/>
</clipPath>
</defs>
</svg>
