<svg width="70" height="48" viewBox="0 0 70 48" fill="none" xmlns="http://www.w3.org/2000/svg">
<g clip-path="url(#clip0_3_25035)">
<path d="M0 0.919922H70V47.5871H0V0.919922Z" fill="#0052B4"/>
<path d="M0 0.919922H70V16.4751H0V0.919922Z" fill="#D80027"/>
<path d="M0 32.0303H70V47.5854H0V32.0303Z" fill="white"/>
<path d="M17.7012 14.1074V25.7471C17.7012 32.3683 26.351 34.3969 26.351 34.3969C26.351 34.3969 35.0005 32.368 35.0005 25.7471V14.1074H17.7012Z" fill="#D80027"/>
<path d="M21.2784 16.1367H31.423V12.0787L29.394 13.0932L26.3505 10.0498L23.3073 13.0932L21.2784 12.0787V16.1367ZM32.9714 27.3678L26.3773 20.7737L19.7832 27.3678L21.9353 29.5198L26.3773 25.0778L30.8193 29.5198L32.9714 27.3678Z" fill="#FFDA44"/>
<path d="M32.9714 21.2091H29.8947C30.0739 20.9012 30.1683 20.5512 30.1682 20.1949C30.1682 19.0744 29.2597 18.166 28.1393 18.166C27.3651 18.166 26.6927 18.5997 26.3506 19.2373C26.0086 18.5998 25.336 18.166 24.5619 18.166C23.4415 18.166 22.533 19.0744 22.533 20.1949C22.533 20.5649 22.6337 20.9106 22.8066 21.2091H19.7832C19.7832 22.3296 20.7592 23.238 21.8796 23.238H21.8121C21.8121 24.3586 22.7205 25.2669 23.841 25.2669C23.841 26.2591 24.5535 27.0834 25.4945 27.2597L23.8957 30.8692C24.6837 31.1898 25.5263 31.3544 26.377 31.3538C27.2277 31.3543 28.0704 31.1898 28.8583 30.8692L27.2595 27.2597C28.2006 27.0834 28.913 26.2591 28.913 25.2669C30.0336 25.2669 30.9419 24.3586 30.9419 23.238H30.8744C31.9953 23.238 32.9714 22.3296 32.9714 21.2091Z" fill="white"/>
</g>
<defs>
<clipPath id="clip0_3_25035">
<rect width="70" height="46.6666" fill="white" transform="translate(0 0.919922)"/>
</clipPath>
</defs>
</svg>
