<svg width="50" height="50" viewBox="0 0 50 50" fill="none" xmlns="http://www.w3.org/2000/svg">
<rect width="50" height="50" rx="5" fill="#8E59FF"/>
<path d="M27.1631 14.3883L29.3631 18.7883C29.6631 19.4008 30.4631 19.9883 31.1381 20.1008L35.1256 20.7633C37.6756 21.1883 38.2756 23.0383 36.4381 24.8633L33.3381 27.9633C32.8131 28.4883 32.5256 29.5008 32.6881 30.2258L33.5756 34.0633C34.2756 37.1008 32.6631 38.2758 29.9756 36.6883L26.2381 34.4758C25.5631 34.0758 24.4506 34.0758 23.7631 34.4758L20.0256 36.6883C17.3506 38.2758 15.7256 37.0883 16.4256 34.0633L17.3131 30.2258C17.4756 29.5008 17.1881 28.4883 16.6631 27.9633L13.5631 24.8633C11.7381 23.0383 12.3256 21.1883 14.8756 20.7633L18.8631 20.1008C19.5256 19.9883 20.3256 19.4008 20.6256 18.7883L22.8256 14.3883C24.0256 12.0008 25.9756 12.0008 27.1631 14.3883Z" fill="#F1EAFF" stroke="#F1EAFF" stroke-width="1.5" stroke-linecap="round" stroke-linejoin="round"/>
</svg>
