<svg width="24" height="25" viewBox="0 0 24 25" fill="none" xmlns="http://www.w3.org/2000/svg">
<path d="M12 22.5C17.5228 22.5 22 18.0228 22 12.5C22 6.97715 17.5228 2.5 12 2.5C6.47715 2.5 2 6.97715 2 12.5C2 18.0228 6.47715 22.5 12 22.5Z" stroke="#8E59FF" stroke-width="1.5" stroke-linecap="round" stroke-linejoin="round"/>
<path d="M7.99961 3.5H8.99961C7.04961 9.34 7.04961 15.66 8.99961 21.5H7.99961" stroke="#8E59FF" stroke-width="1.5" stroke-linecap="round" stroke-linejoin="round"/>
<path d="M15 3.5C16.95 9.34 16.95 15.66 15 21.5" stroke="#8E59FF" stroke-width="1.5" stroke-linecap="round" stroke-linejoin="round"/>
<path d="M3 16.5V15.5C8.84 17.45 15.16 17.45 21 15.5V16.5" stroke="#8E59FF" stroke-width="1.5" stroke-linecap="round" stroke-linejoin="round"/>
<path d="M3 9.49961C8.84 7.54961 15.16 7.54961 21 9.49961" stroke="#8E59FF" stroke-width="1.5" stroke-linecap="round" stroke-linejoin="round"/>
</svg>
