<svg width="34" height="24" viewBox="0 0 34 24" fill="none" xmlns="http://www.w3.org/2000/svg">
<rect x="0.5" y="0.5" width="33" height="23" rx="3.5" fill="white"/>
<rect x="0.5" y="0.5" width="33" height="23" rx="3.5" stroke="#F9F7F6"/>
<path d="M10.5185 5H15.8767C16.6247 5 17.0899 5.62758 16.9154 6.40009L14.4208 17.4255C14.2447 18.1953 13.4959 18.8234 12.7474 18.8234H7.38973C6.64282 18.8234 6.17657 18.1953 6.35106 17.4255L8.84672 6.40009C9.0212 5.62758 9.76968 5 10.5185 5Z" fill="#E21836"/>
<path d="M15.4303 5H21.5921C22.3399 5 22.0027 5.62758 21.8268 6.40009L19.3326 17.4255C19.1576 18.1953 19.2121 18.8234 18.4628 18.8234H12.301C11.5516 18.8234 11.0878 18.1953 11.2639 17.4255L13.758 6.40009C13.9351 5.62758 14.682 5 15.4303 5Z" fill="#00447C"/>
<path d="M21.348 5H26.7062C27.4552 5 27.9204 5.62758 27.7445 6.40009L25.2503 17.4255C25.0742 18.1953 24.3248 18.8234 23.576 18.8234H18.2203C17.4709 18.8234 17.0061 18.1953 17.1816 17.4255L19.6762 6.40009C19.8507 5.62758 20.5986 5 21.348 5Z" fill="#007B84"/>
<path d="M11.9181 8.53314C11.3671 8.53892 11.2043 8.53314 11.1524 8.5205C11.1324 8.61824 10.7605 10.3839 10.7595 10.3854C10.6794 10.7426 10.6212 10.9972 10.4233 11.1616C10.311 11.2572 10.1799 11.3033 10.0279 11.3033C9.78352 11.3033 9.64116 11.1784 9.61726 10.9415L9.61269 10.8602C9.61269 10.8602 9.68714 10.3817 9.68714 10.379C9.68714 10.379 10.0774 8.77003 10.1472 8.55734C10.1509 8.54524 10.1519 8.53892 10.1529 8.53314C9.39328 8.54 9.25863 8.53314 9.24936 8.5205C9.24427 8.53784 9.22546 8.6376 9.22546 8.6376L8.82699 10.4511L8.79278 10.6049L8.72656 11.108C8.72656 11.2572 8.75503 11.379 8.81171 11.482C8.99325 11.8086 9.51108 11.8575 9.80402 11.8575C10.1815 11.8575 10.5355 11.775 10.7748 11.6242C11.1901 11.3716 11.2988 10.9768 11.3957 10.6259L11.4406 10.4459C11.4406 10.4459 11.8426 8.77473 11.9109 8.55734C11.9135 8.54524 11.9145 8.53892 11.9181 8.53314ZM13.2858 9.88125C13.1889 9.88125 13.0118 9.90545 12.8527 9.98571C12.795 10.0162 12.7404 10.0515 12.6828 10.0865L12.7348 9.89335L12.7063 9.86081C12.369 9.93113 12.2935 9.94054 11.9819 9.98571L11.9558 10.0036C11.9196 10.3124 11.8875 10.5446 11.7533 11.1516C11.7023 11.3753 11.6493 11.6012 11.5961 11.8243L11.6105 11.8527C11.9298 11.8354 12.0267 11.8354 12.3042 11.8401L12.3267 11.8149C12.3619 11.629 12.3665 11.5854 12.4446 11.2089C12.4813 11.0303 12.5578 10.638 12.5956 10.4983C12.6649 10.4653 12.7334 10.4327 12.7987 10.4327C12.9542 10.4327 12.9353 10.5724 12.9293 10.6281C12.9226 10.7215 12.8659 11.0267 12.8078 11.2887L12.769 11.4579C12.742 11.5828 12.7123 11.7042 12.6853 11.828L12.6971 11.8527C13.0118 11.8354 13.1078 11.8354 13.3766 11.8401L13.4082 11.8149C13.4568 11.5245 13.471 11.4468 13.5572 11.024L13.6006 10.8297C13.6848 10.4495 13.7271 10.2567 13.6634 10.0997C13.596 9.92373 13.4343 9.88125 13.2858 9.88125ZM14.8137 10.2793C14.6464 10.3124 14.5397 10.3344 14.4337 10.3487C14.3286 10.366 14.226 10.3818 14.0644 10.4049L14.0516 10.4169L14.0398 10.4264C14.023 10.5504 14.0112 10.6575 13.9889 10.7835C13.9699 10.9138 13.9408 11.0618 13.8934 11.2745C13.8567 11.4373 13.8378 11.494 13.8169 11.5513C13.7965 11.6086 13.774 11.6642 13.7328 11.8243L13.7424 11.8391L13.7505 11.8527C13.9016 11.8453 14.0005 11.8401 14.1021 11.8391C14.2036 11.8354 14.3087 11.8391 14.4714 11.8401L14.4857 11.8281L14.501 11.8149C14.5245 11.6705 14.528 11.6317 14.5424 11.5612C14.5566 11.4857 14.5811 11.3811 14.6414 11.1017C14.6698 10.9705 14.7016 10.8397 14.7311 10.7058C14.7618 10.5724 14.7939 10.4411 14.8245 10.3098L14.8199 10.294L14.8137 10.2793ZM14.8173 9.7426C14.6653 9.65024 14.3985 9.67954 14.2189 9.80713C14.0398 9.93216 14.0195 10.1096 14.171 10.2032C14.3204 10.293 14.5882 10.2663 14.7662 10.1376C14.9449 10.0099 14.9672 9.83402 14.8173 9.7426ZM15.7367 11.8816C16.0442 11.8816 16.3595 11.7944 16.5968 11.5355C16.7794 11.3255 16.8631 11.013 16.8921 10.8844C16.9865 10.4579 16.913 10.2588 16.8207 10.1375C16.6804 9.95266 16.4325 9.89338 16.1754 9.89338C16.0207 9.89338 15.6524 9.90911 15.3647 10.1822C15.1581 10.3791 15.0626 10.6464 15.0051 10.9026C14.9469 11.1637 14.8801 11.6337 15.3 11.8086C15.4295 11.8659 15.6163 11.8816 15.7367 11.8816ZM15.7127 10.9221C15.7836 10.5992 15.8673 10.3282 16.0809 10.3282C16.2484 10.3282 16.2605 10.5298 16.1861 10.8538C16.1728 10.9258 16.1116 11.1932 16.029 11.307C15.9712 11.3911 15.9029 11.442 15.8275 11.442C15.805 11.442 15.6714 11.442 15.6693 11.2378C15.6682 11.137 15.6882 11.034 15.7127 10.9221ZM17.661 11.8401L17.685 11.815C17.7191 11.629 17.7247 11.5853 17.8002 11.2089C17.8379 11.0304 17.916 10.6381 17.9527 10.4984C18.0222 10.4652 18.0895 10.4326 18.1569 10.4326C18.3114 10.4326 18.2926 10.5723 18.2864 10.628C18.2808 10.7216 18.2241 11.0266 18.165 11.2886L18.1283 11.4578C18.1002 11.5828 18.0696 11.7041 18.0426 11.828L18.0543 11.8528C18.3701 11.8354 18.4625 11.8354 18.7328 11.8401L18.7655 11.815C18.8129 11.5244 18.8257 11.4467 18.9145 11.0241L18.9568 10.8296C19.0414 10.4494 19.0843 10.2568 19.0216 10.0998C18.9522 9.92377 18.7895 9.88129 18.6431 9.88129C18.546 9.88129 18.368 9.90535 18.2099 9.98575C18.1533 10.0163 18.0967 10.0514 18.041 10.0866L18.0895 9.89339L18.0635 9.86072C17.7263 9.93117 17.6492 9.94058 17.338 9.98575L17.3141 10.0036C17.2763 10.3124 17.2457 10.5445 17.1115 11.1516C17.0605 11.3753 17.0074 11.6012 16.9544 11.8244L16.9686 11.8528C17.2885 11.8354 17.384 11.8354 17.661 11.8401ZM19.9812 11.8527C20.001 11.7529 20.1189 11.1617 20.12 11.1617C20.12 11.1617 20.2204 10.7278 20.2266 10.7121C20.2266 10.7121 20.2582 10.6669 20.2898 10.649H20.3363C20.775 10.649 21.2703 10.649 21.6586 10.355C21.9228 10.1533 22.1034 9.85554 22.184 9.49362C22.2049 9.40489 22.2203 9.29935 22.2203 9.19382C22.2203 9.05521 22.1933 8.91807 22.1152 8.81092C21.9172 8.52577 21.5229 8.52053 21.0678 8.51838C21.0663 8.51838 20.8434 8.52053 20.8434 8.52053C20.2608 8.52792 20.0271 8.52577 19.9311 8.51367C19.923 8.55737 19.9078 8.63507 19.9078 8.63507C19.9078 8.63507 19.6991 9.63076 19.6991 9.63237C19.6991 9.63237 19.1996 11.7493 19.1761 11.8491C19.6848 11.8427 19.8934 11.8427 19.9812 11.8527ZM20.3679 10.084C20.3679 10.084 20.5898 9.0903 20.5887 9.09406L20.5959 9.04311L20.599 9.00425L20.6877 9.01366C20.6877 9.01366 21.1453 9.05413 21.1561 9.05521C21.3367 9.12713 21.4111 9.31253 21.3591 9.55453C21.3117 9.77568 21.1724 9.96162 20.9933 10.0514C20.8459 10.1275 20.6653 10.1338 20.4791 10.1338H20.3587L20.3679 10.084ZM21.7494 10.9405C21.6908 11.1979 21.6234 11.6679 22.0412 11.8354C22.1744 11.8937 22.2938 11.9111 22.4151 11.9048C22.5432 11.8976 22.6619 11.8315 22.7719 11.7363C22.762 11.7754 22.7521 11.8145 22.7421 11.8538L22.7611 11.8789C23.0616 11.8659 23.1548 11.8659 23.4804 11.8685L23.5099 11.8453C23.5575 11.5576 23.6023 11.2783 23.7258 10.7278C23.786 10.4642 23.8461 10.2031 23.9079 9.94055L23.8982 9.91165C23.562 9.97578 23.4722 9.98949 23.1488 10.0367L23.1243 10.0572C23.121 10.084 23.1176 10.1097 23.1145 10.1354C23.0642 10.0517 22.9913 9.98035 22.8789 9.93585C22.7351 9.87763 22.3973 9.95265 22.107 10.2248C21.903 10.419 21.8051 10.6852 21.7494 10.9405ZM22.4555 10.9563C22.5274 10.6391 22.6101 10.3708 22.8243 10.3708C22.9597 10.3708 23.031 10.4994 23.0165 10.7188C23.005 10.7736 22.9926 10.8312 22.9779 10.8964C22.9564 10.9907 22.9332 11.0841 22.9106 11.1777C22.8876 11.2417 22.8608 11.3021 22.8315 11.3422C22.7763 11.4226 22.6452 11.4725 22.5697 11.4725C22.5483 11.4725 22.4161 11.4725 22.4116 11.2719C22.4105 11.172 22.4305 11.0692 22.4555 10.9563ZM26.1424 9.90908L26.1164 9.87856C25.7838 9.94793 25.7236 9.95896 25.418 10.0014L25.3955 10.0246C25.3944 10.0283 25.3935 10.0341 25.392 10.0394L25.3909 10.0341C25.1634 10.5744 25.1701 10.4579 24.9849 10.8832C24.9838 10.8639 24.9838 10.8518 24.9828 10.8312L24.9364 9.90908L24.9073 9.87856C24.5589 9.94793 24.5506 9.95896 24.2288 10.0014L24.2038 10.0246C24.2002 10.0356 24.2002 10.0477 24.1981 10.0609L24.2002 10.0656C24.2405 10.2772 24.2308 10.23 24.2711 10.5639C24.2899 10.7278 24.315 10.8927 24.3338 11.0545C24.3656 11.3254 24.3833 11.4588 24.4221 11.8722C24.2048 12.2414 24.1533 12.3811 23.9441 12.7051L23.9456 12.7083L23.7982 12.9482C23.7814 12.9734 23.7661 12.9908 23.7447 12.9982C23.7212 13.0101 23.6906 13.0123 23.6482 13.0123H23.5665L23.4452 13.4277L23.8614 13.4351C24.1058 13.434 24.2594 13.3164 24.3421 13.1583L24.6038 12.6966H24.5996L24.6272 12.6641C24.8032 12.2739 26.1424 9.90908 26.1424 9.90908ZM21.7494 15.3651H21.5728L22.2264 13.1399H22.4432L22.512 12.9107L22.5187 13.1656C22.5106 13.3232 22.631 13.4629 22.9473 13.4397H23.3131L23.439 13.0113H23.3013C23.2222 13.0113 23.1855 12.9907 23.1901 12.9466L23.1834 12.6873H22.506V12.6886C22.287 12.6933 21.6329 12.7103 21.5005 12.7466C21.3402 12.789 21.1714 12.9141 21.1714 12.9141L21.2377 12.6846H20.604L20.472 13.1399L19.8097 15.3991H19.6812L19.5552 15.8245H20.8173L20.775 15.9663H21.3969L21.4382 15.8245H21.6127L21.7494 15.3651ZM21.2316 13.5921C21.1301 13.621 20.9413 13.7086 20.9413 13.7086L21.1092 13.1399H21.6127L21.4912 13.5543C21.4912 13.5543 21.3357 13.5637 21.2316 13.5921ZM21.2412 14.4045C21.2412 14.4045 21.0831 14.4249 20.979 14.4491C20.8765 14.4811 20.6842 14.582 20.6842 14.582L20.8577 13.9901H21.3637L21.2412 14.4045ZM20.9591 15.3703H20.4541L20.6005 14.8709H21.104L20.9591 15.3703ZM22.1754 13.9901H22.9034L22.7987 14.3389H22.0611L21.9504 14.7202H22.5958L22.1071 15.4286C22.0729 15.4806 22.0422 15.499 22.0081 15.5137C21.9739 15.5315 21.9289 15.5525 21.877 15.5525H21.6979L21.5749 15.9701H22.0432C22.2867 15.9701 22.4304 15.8561 22.5366 15.7064L22.8717 15.2343L22.9437 15.7137C22.959 15.8035 23.0217 15.8561 23.0641 15.8765C23.111 15.9007 23.1595 15.9423 23.2279 15.9484C23.3013 15.9517 23.3543 15.9542 23.3896 15.9542H23.6197L23.7579 15.4869H23.6671C23.615 15.4869 23.5253 15.4779 23.51 15.4611C23.4947 15.4407 23.4947 15.4092 23.4865 15.3613L23.4135 14.8808H23.1145L23.2457 14.7202H23.9819L24.0951 14.3389H23.4135L23.5197 13.9901H24.1992L24.3252 13.5601H22.2993L22.1754 13.9901ZM16.0269 15.4674L16.1968 14.8856H16.8951L17.0227 14.4528H16.3238L16.4305 14.0947H17.1135L17.2401 13.6756H15.531L15.4071 14.0947H15.7953L15.6918 14.4528H15.3025L15.1734 14.893H15.5616L15.3351 15.6628C15.3045 15.7647 15.3495 15.8036 15.3779 15.8509C15.4071 15.897 15.4366 15.9275 15.5029 15.9449C15.5714 15.9606 15.6183 15.97 15.682 15.97H16.4693L16.6095 15.4906L16.2606 15.5399C16.1932 15.5399 16.0065 15.5316 16.0269 15.4674ZM16.107 12.682L15.93 13.0112C15.8922 13.0831 15.8581 13.1278 15.8274 13.1483C15.8004 13.1657 15.7468 13.1729 15.6692 13.1729H15.5769L15.4535 13.5941H15.7601C15.9076 13.5941 16.0208 13.5385 16.0749 13.5107C16.133 13.4787 16.1483 13.4969 16.1932 13.4523L16.2968 13.36H17.2543L17.3814 12.9214H16.6805L16.8028 12.682H16.107ZM17.5207 15.4759C17.5044 15.4517 17.5161 15.4091 17.5411 15.3204L17.8028 14.4286H18.7338C18.8695 14.4266 18.9675 14.425 19.0312 14.4203C19.0997 14.4129 19.1741 14.3877 19.2552 14.3426C19.3389 14.2952 19.3818 14.2453 19.4179 14.1881C19.4583 14.1309 19.5231 14.0059 19.5787 13.8131L19.9077 12.6846L18.9415 12.6904C18.9415 12.6904 18.644 12.7356 18.513 12.7854C18.3808 12.8411 18.192 12.9965 18.192 12.9965L18.2792 12.6872H17.6824L16.8468 15.5399C16.8171 15.6507 16.7973 15.7311 16.7927 15.7793C16.7911 15.8314 16.8564 15.8829 16.8988 15.9217C16.9488 15.9606 17.0227 15.9542 17.0936 15.9606C17.1682 15.9663 17.2742 15.97 17.4206 15.97H17.8793L18.0201 15.4806L17.6095 15.5205C17.5656 15.5205 17.5339 15.4963 17.5207 15.4759ZM17.9717 13.8263H18.9496L18.8874 14.0269C18.8787 14.0316 18.8578 14.0169 18.7583 14.029H17.9114L17.9717 13.8263ZM18.1676 13.1535H19.1537L19.0828 13.3951C19.0828 13.3951 18.618 13.3904 18.5436 13.4045C18.216 13.4629 18.0247 13.643 18.0247 13.643L18.1676 13.1535ZM18.9093 14.6986C18.9012 14.7286 18.8884 14.7469 18.8705 14.7606C18.8507 14.7737 18.8185 14.7785 18.7706 14.7785H18.6313L18.6395 14.5342H18.0599L18.0364 15.7284C18.0355 15.8146 18.0436 15.8645 18.1048 15.9044C18.1661 15.9543 18.3548 15.9606 18.6088 15.9606H18.972L19.1031 15.5136L18.7869 15.5315L18.6818 15.5378C18.6674 15.5315 18.6537 15.5257 18.6384 15.51C18.6251 15.4964 18.6027 15.5047 18.6063 15.4185L18.6088 15.1124L18.9404 15.0983C19.1195 15.0983 19.196 15.0383 19.2613 14.9812C19.3236 14.9265 19.344 14.8636 19.3675 14.7785L19.4231 14.5074H18.9674L18.9093 14.6986Z" fill="#FEFEFE"/>
</svg>
